<?xml version="1.0" encoding="UTF-8" standalone="no"?>
<!-- Created with Inkscape (http://www.inkscape.org/) -->

<svg
   width="135.41034mm"
   height="84.163353mm"
   viewBox="0 0 135.41034 84.163353"
   version="1.1"
   id="svg29975"
   xml:space="preserve"
   inkscape:version="1.2.1 (9c6d41e, 2022-07-14)"
   sodipodi:docname="地震.svg"
   inkscape:export-filename="地震.png"
   inkscape:export-xdpi="225.0936"
   inkscape:export-ydpi="225.0936"
   xmlns:inkscape="http://www.inkscape.org/namespaces/inkscape"
   xmlns:sodipodi="http://sodipodi.sourceforge.net/DTD/sodipodi-0.dtd"
   xmlns="http://www.w3.org/2000/svg"
   xmlns:svg="http://www.w3.org/2000/svg"><sodipodi:namedview
     id="namedview29977"
     pagecolor="#ffffff"
     bordercolor="#000000"
     borderopacity="0.25"
     inkscape:showpageshadow="2"
     inkscape:pageopacity="0.0"
     inkscape:pagecheckerboard="0"
     inkscape:deskcolor="#d1d1d1"
     inkscape:document-units="mm"
     showgrid="false"
     inkscape:zoom="1.8213428"
     inkscape:cx="240.20739"
     inkscape:cy="156.47796"
     inkscape:window-width="1440"
     inkscape:window-height="872"
     inkscape:window-x="0"
     inkscape:window-y="0"
     inkscape:window-maximized="0"
     inkscape:current-layer="layer1"
     showborder="false" /><defs
     id="defs29972"><mask
       maskUnits="userSpaceOnUse"
       id="mask32832"><path
         id="mask-powermask-path-effect32836_box"
         style="fill:#ffffff;fill-opacity:1"
         d="M 82.265625,171.96289 H 112.11719 V 203.49805 H 82.265625 Z" /><path
         style="color:#000000;fill:#fffe11;stroke-width:1"
         d="M 36.802735,144.24414 V 144.64453 194.44141 H 150.44727 V 144.24414 Z M 37.603517,145.04492 H 149.64648 V 193.64258 H 37.603517 Z"
         id="path32834" /></mask><filter
       id="mask-powermask-path-effect32836_inverse"
       inkscape:label="filtermask-powermask-path-effect32836"
       style="color-interpolation-filters:sRGB"
       height="100"
       width="100"
       x="-50"
       y="-50"><feColorMatrix
         id="mask-powermask-path-effect32836_primitive1"
         values="1"
         type="saturate"
         result="fbSourceGraphic" /><feColorMatrix
         id="mask-powermask-path-effect32836_primitive2"
         values="-1 0 0 0 1 0 -1 0 0 1 0 0 -1 0 1 0 0 0 1 0 "
         in="fbSourceGraphic" /></filter><clipPath
       clipPathUnits="userSpaceOnUse"
       id="clipPath32854"><rect
         style="fill:#000000;fill-opacity:1;stroke:#fffe11;stroke-width:0.499999;stroke-dasharray:none;stroke-opacity:1"
         id="rect32856"
         width="32.1465"
         height="23.41535"
         x="81.415123"
         y="170.71094" /></clipPath></defs><g
     inkscape:label="Layer 1"
     inkscape:groupmode="layer"
     id="layer1"
     transform="translate(-36.802734,-114.89251)"><path
       style="color:#000000;fill:#000000;fill-opacity:1;stroke:none;stroke-opacity:1"
       d="M 36.802734,144.24414 V 144.64453 194.44141 H 150.44727 V 144.24414 Z M 37.603516,145.04492 H 149.64648 V 193.64258 H 37.603516 Z"
       id="rect30354" /><path
       style="fill:none;stroke:#000000;stroke-width:0.799999;stroke-dasharray:none;stroke-opacity:1"
       d="M 149.89263,145.10718 171.81308,116.08575 V 157.91984 L 150.02034,194.03926"
       id="path30942"
       sodipodi:nodetypes="cccc" /><path
       style="fill:none;stroke:#000000;stroke-width:0.799999;stroke-dasharray:none;stroke-opacity:1"
       d="M 172.12213,115.31359 71.936114,115.77701 37.099966,144.48963"
       id="path30944"
       sodipodi:nodetypes="ccc" /><ellipse
       style="fill:none;stroke:#000000;stroke-width:0.5;stroke-dasharray:none;stroke-opacity:1"
       id="path30998"
       cx="97.191406"
       cy="187.73033"
       rx="1.5066639"
       ry="1.5993817" /><ellipse
       style="fill:none;stroke:#000000;stroke-width:0.5;stroke-dasharray:none;stroke-opacity:1"
       id="path30998-5"
       cx="97.191406"
       cy="187.73033"
       rx="4.112649"
       ry="4.3657351" /><g
       id="g32826"
       mask="url(#mask32832)"
       clip-path="url(#clipPath32854)"
       style="fill:#000000;fill-opacity:1;stroke:none;stroke-opacity:1"><path
         style="color:#000000;fill:#000000;fill-opacity:1;stroke:none;stroke-opacity:1;-inkscape-stroke:none"
         d="M 97.191406,180.48437 C 93.40787,180.48437 90.349609,183.73907 90.349609,187.73047 90.349609,191.72187 93.40787,194.97656 97.191406,194.97656 100.97494,194.97656 104.0332,191.72187 104.0332,187.73047 104.0332,183.73907 100.97494,180.48438 97.191406,180.48437 Z M 97.191406,180.98437 C 100.68809,180.98437 103.5332,183.99363 103.5332,187.73047 103.5332,191.46731 100.68809,194.47656 97.191406,194.47656 93.694718,194.47656 90.849609,191.46731 90.849609,187.73047 90.849609,183.99363 93.694718,180.98437 97.191406,180.98437 Z"
         id="path32073" /><path
         style="color:#000000;fill:#000000;fill-opacity:1;stroke:none;stroke-opacity:1;-inkscape-stroke:none"
         d="M 97.191406,177.84375 C 92.033939,177.84375 87.863281,182.28059 87.863281,187.73047 87.863281,193.18035 92.033939,197.61719 97.191406,197.61719 102.34887,197.61719 106.51953,193.18035 106.51953,187.73047 106.51953,182.28059 102.34887,177.84375 97.191406,177.84375 Z M 97.191406,178.34375 C 102.06202,178.34375 106.01953,182.53515 106.01953,187.73047 106.01953,192.92579 102.06202,197.11719 97.191406,197.11719 92.320788,197.11719 88.363281,192.92579 88.363281,187.73047 88.363281,182.53515 92.320788,178.34375 97.191406,178.34375 Z"
         id="path32076" /><path
         style="color:#000000;fill:#000000;fill-opacity:1;stroke:none;stroke-opacity:1;-inkscape-stroke:none"
         d="M 97.191406,172.96289 C 89.494947,172.96289 83.265625,179.58535 83.265625,187.73047 83.265625,195.87558 89.494947,202.49805 97.191406,202.49805 104.88787,202.49805 111.11719,195.87558 111.11719,187.73047 111.11719,179.58535 104.88787,172.96289 97.191406,172.96289 Z M 97.191406,173.46289 C 104.60102,173.46289 110.61719,179.83991 110.61719,187.73047 110.61719,195.62103 104.60102,201.99805 97.191406,201.99805 89.781795,201.99805 83.765625,195.62103 83.765625,187.73047 83.765625,179.83991 89.781795,173.46289 97.191406,173.46289 Z"
         id="path32079" /></g><path
       style="fill:#000000;fill-opacity:1;stroke:#000000;stroke-width:0.499999;stroke-dasharray:none;stroke-opacity:1"
       d="M 95.651327,186.87797 48.281148,144.84344"
       id="path32921" /><path
       style="fill:#000000;fill-opacity:1;stroke:#000000;stroke-width:0.499999;stroke-dasharray:none;stroke-opacity:1"
       d="M 96.814615,186.02237 69.691157,144.60723"
       id="path32923" /><path
       style="fill:#000000;fill-opacity:1;stroke:#000000;stroke-width:0.499999;stroke-dasharray:none;stroke-opacity:1"
       d="M 97.352473,185.86869 97.045125,144.53039"
       id="path32925" /><path
       style="fill:#000000;fill-opacity:1;stroke:#000000;stroke-width:0.499999;stroke-dasharray:none;stroke-opacity:1"
       d="M 98.044007,186.0992 119.6352,144.68406"
       id="path32927" /><path
       style="fill:#000000;fill-opacity:1;stroke:#000000;stroke-width:0.499999;stroke-dasharray:none;stroke-opacity:1"
       d="M 98.812378,187.48227 140.38119,144.53039"
       id="path32929" /><circle
       style="fill:#ffffff;fill-opacity:1;stroke:#000000;stroke-width:0.499999;stroke-dasharray:none;stroke-opacity:1"
       id="path32931"
       cx="97.147316"
       cy="145.09641"
       r="1.441355" /><path
       style="fill:#000000;fill-opacity:1;stroke:#000000;stroke-width:0.499999;stroke-dasharray:none;stroke-opacity:1"
       d="M 98.204318,143.94332 145.57685,124.91743"
       id="path32933" /><path
       style="fill:none;fill-opacity:1;stroke:#000000;stroke-width:0.5;stroke-dasharray:2, 2;stroke-dashoffset:0;stroke-opacity:1"
       d="M 68.128046,144.71204 C 68.128046,144.71204 87.538292,130.68285 112.04133,131.64375 136.54436,132.60466 119.95632,144.61595 119.95632,144.61595"
       id="path32935"
       sodipodi:nodetypes="csc" /><path
       style="fill:none;fill-opacity:1;stroke:#000000;stroke-width:0.5;stroke-dasharray:2, 2;stroke-dashoffset:0;stroke-opacity:1"
       d="M 48.909977,144.71204 C 48.909977,144.71204 81.868961,121.07382 122.70735,121.93863 163.54575,122.80344 144.1355,142.02151 140.67624,144.61595"
       id="path32937" /><rect
       style="fill:none;fill-opacity:1;stroke:#000000;stroke-width:0.384805;stroke-dasharray:none;stroke-opacity:1"
       id="rect32939"
       width="5.8062458"
       height="4.0548978"
       x="145.42316"
       y="121.78496" /><path
       sodipodi:type="star"
       style="fill:none;fill-opacity:1;stroke:#000000;stroke-width:0.881129;stroke-dasharray:none;stroke-opacity:1"
       id="path33729"
       inkscape:flatsided="true"
       sodipodi:sides="3"
       sodipodi:cx="143.88361"
       sodipodi:cy="120.33901"
       sodipodi:r1="5.5907516"
       sodipodi:r2="1.6504509"
       sodipodi:arg1="0.78130883"
       sodipodi:arg2="1.8285064"
       inkscape:rounded="0"
       inkscape:randomized="0"
       d="M 147.853,124.27607 138.48932,121.80808 145.3085,114.93289 Z"
       inkscape:transform-center-x="-0.17873888"
       inkscape:transform-center-y="-0.43785886"
       transform="matrix(-0.40914161,-0.21880183,0.4695822,-0.22280143,150.79936,179.03218)" /><g
       aria-label="震中距"
       transform="matrix(0.90781659,-0.4050856,0.39801588,0.92394159,0,0)"
       id="text33735"
       style="font-weight:500;font-size:2.886px;font-family:MiSans;-inkscape-font-specification:'MiSans Medium';fill:none;stroke:#000000;stroke-width:0.454488;stroke-dasharray:1.81795, 1.81795"><path
         d="M 66.059577,168.19536 H 65.254384 V 168.56188 H 64.99753 V 168.02797 H 66.059577 V 167.88367 H 65.11297 V 167.70474 H 67.268811 V 167.88367 H 66.313545 V 168.02797 H 67.387137 V 168.56188 H 67.133169 V 168.19536 H 66.313545 V 168.71773 H 66.059577 Z M 65.395797,168.31369 H 65.935479 V 168.45221 H 65.395797 Z M 66.449187,168.31369 H 66.985983 V 168.45221 H 66.449187 Z M 65.935479,168.68598 H 65.395797 V 168.55034 H 65.935479 Z M 66.452073,168.55034 H 66.988869 V 168.68598 H 66.452073 Z M 65.843127,169.5893 V 169.98757 L 66.267369,169.88367 66.273141,170.09146 65.577615,170.26751 65.499693,170.07992 Q 65.557413,170.05106 65.574729,170.03374 65.592045,170.01354 65.592045,169.98757 V 169.5893 H 65.364051 Q 65.338077,169.78266 65.268814,169.94428 65.202436,170.10589 65.081224,170.26751 L 64.856116,170.10878 Q 65.017732,169.8981 65.075452,169.71628 65.133172,169.53158 65.133172,169.21989 V 168.80142 H 67.346733 V 168.96592 H 65.384253 V 169.27761 Q 65.384253,169.36708 65.381367,169.41037 H 67.398681 V 169.5893 H 67.136055 L 67.237065,169.75091 Q 67.118739,169.80863 66.890745,169.90676 67.112967,169.97025 67.479489,170.002 L 67.372707,170.22422 Q 67.035045,170.18093 66.798393,170.10012 66.561741,170.0222 66.382809,169.90099 66.206763,169.77689 66.050919,169.5893 Z M 67.216863,169.11022 V 169.26895 H 65.488149 V 169.11022 Z M 66.639663,169.81152 Q 66.864771,169.71628 67.112967,169.5893 H 66.330861 Q 66.469389,169.72783 66.639663,169.81152 Z"
         style="fill:#000000;stroke:none"
         id="path1264" /><path
         d="M 69.202426,167.60662 V 168.13764 H 70.183666 V 169.39305 H 69.202426 V 170.25596 H 68.913826 V 169.39305 H 67.938358 V 168.13764 H 68.913826 V 167.60662 Z M 68.221186,168.41758 V 169.11599 H 68.913826 V 168.41758 Z M 69.202426,168.41758 V 169.11599 H 69.900838 V 168.41758 Z"
         style="fill:#000000;stroke:none"
         id="path1266" /><path
         d="M 71.427526,169.76534 71.71324,169.7134 71.730556,169.97891 Q 71.5978,169.99045 70.81858,170.13187 L 70.685824,170.15495 70.642534,169.89521 70.772404,169.87501 V 168.86203 H 70.99174 V 169.84038 L 71.187988,169.80575 V 168.66001 H 70.809922 V 167.71628 H 71.66995 V 168.66001 H 71.427526 V 169.02076 H 71.71324 V 169.26318 H 71.427526 Z M 72.125938,169.43345 V 169.89521 H 73.219732 V 170.15207 H 71.860426 V 167.75092 H 73.196644 V 168.01643 H 72.125938 V 168.41758 H 73.072546 V 169.43345 Z M 71.430412,167.95871 H 71.055232 V 168.41758 H 71.430412 Z M 72.812806,169.17949 V 168.67155 H 72.125938 V 169.17949 Z"
         style="fill:#000000;stroke:none"
         id="path1268" /></g><g
       aria-label="等震线"
       transform="scale(0.96580163,1.0354093)"
       id="text33815"
       style="font-weight:500;font-size:2.97884px;font-family:MiSans;-inkscape-font-specification:'MiSans Medium';stroke-width:0.469109;stroke-dasharray:1.87644, 1.87644"><path
         d="M 113.80236,114.1821 Q 113.6832,114.36381 113.51639,114.54254 L 113.3168,114.36381 Q 113.46277,114.20891 113.57894,114.03316 113.69512,113.85741 113.76959,113.68761 L 114.04662,113.74421 Q 114.00194,113.84847 113.94236,113.95273 H 114.64835 V 114.1821 H 114.18663 Q 114.2462,114.28338 114.34153,114.42339 L 114.12109,114.53658 114.03471,114.3936 Q 113.95726,114.27444 113.90662,114.1821 Z M 114.56196,114.30721 Q 114.80027,114.00039 114.9224,113.69059 L 115.1905,113.74123 Q 115.14283,113.85443 115.09219,113.95273 H 115.92925 V 114.1821 H 115.43178 Q 115.542,114.34296 115.58072,114.40551 L 115.36029,114.52765 115.30369,114.44126 Q 115.19347,114.25955 115.13688,114.1821 H 114.96708 Q 114.8658,114.34594 114.8092,114.41743 Z M 115.93521,115.29321 H 115.35433 V 115.53151 H 115.84882 V 115.76982 H 115.35433 V 116.05579 Q 115.35433,116.20175 115.31561,116.2792 115.27688,116.35665 115.17858,116.38942 115.08028,116.42219 114.89559,116.42219 H 114.53813 L 114.49047,116.17792 H 114.8241 Q 114.93431,116.17792 114.98496,116.16303 115.0356,116.14813 115.05049,116.11239 115.06836,116.07366 115.06836,115.99621 V 115.76982 H 113.95726 Q 114.15088,115.89493 114.38323,116.07366 L 114.21641,116.27622 Q 113.91555,116.0409 113.76065,115.93962 L 113.8947,115.76982 H 113.41213 V 115.53151 H 115.06836 V 115.29321 H 113.32276 V 115.06086 H 114.47855 V 114.81957 H 113.52532 V 114.59914 H 114.47855 V 114.43828 H 114.7675 V 114.59914 H 115.72073 V 114.81957 H 114.7675 V 115.06086 H 115.93521 Z"
         id="path1257" /><path
         d="M 117.49611,114.32806 H 116.66502 V 114.70638 H 116.3999 V 114.15529 H 117.49611 V 114.00635 H 116.51905 V 113.82166 H 118.74425 V 114.00635 H 117.75825 V 114.15529 H 118.86638 V 114.70638 H 118.60424 V 114.32806 H 117.75825 V 114.86723 H 117.49611 Z M 116.81098,114.4502 H 117.36802 V 114.59318 H 116.81098 Z M 117.89826,114.4502 H 118.45232 V 114.59318 H 117.89826 Z M 117.36802,114.83447 H 116.81098 V 114.69446 H 117.36802 Z M 117.90123,114.69446 H 118.4553 V 114.83447 H 117.90123 Z M 117.2727,115.76684 V 116.17792 L 117.71059,116.07068 117.71655,116.28516 116.99865,116.46687 116.91822,116.27325 Q 116.97779,116.24346 116.99567,116.22558 117.01354,116.20473 117.01354,116.17792 V 115.76684 H 116.77821 Q 116.7514,115.96643 116.67991,116.13324 116.6114,116.30006 116.48628,116.46687 L 116.25394,116.30303 Q 116.42075,116.08558 116.48033,115.89791 116.5399,115.70727 116.5399,115.38555 V 114.95362 H 118.82467 V 115.12341 H 116.79906 V 115.44513 Q 116.79906,115.53747 116.79608,115.58215 H 118.87829 V 115.76684 H 118.60722 L 118.71148,115.93366 Q 118.58935,115.99323 118.35402,116.09452 118.58339,116.16005 118.9617,116.19282 L 118.85148,116.42219 Q 118.50296,116.37751 118.25869,116.2941 118.01443,116.21367 117.82974,116.08856 117.64803,115.96047 117.48718,115.76684 Z M 118.69063,115.27236 V 115.43619 H 116.9063 V 115.27236 Z M 118.09486,115.99621 Q 118.32721,115.89791 118.58339,115.76684 H 117.77612 Q 117.91911,115.90983 118.09486,115.99621 Z"
         id="path1259" /><path
         d="M 119.35192,114.86128 119.29533,114.59318 Q 119.40852,114.46211 119.55746,114.20295 119.70938,113.94081 119.8196,113.69655 L 120.05195,113.80677 Q 119.75705,114.40253 119.61704,114.58126 L 119.92982,114.55148 Q 120.04897,114.337 120.09068,114.25359 L 120.32303,114.38168 Q 120.18302,114.6468 120.02216,114.90298 119.86428,115.15618 119.72428,115.32895 L 120.23068,115.25448 120.23664,115.5196 119.40554,115.63875 119.34894,115.36768 Q 119.53661,115.17107 119.77492,114.80766 Z M 121.42817,114.25061 Q 121.29413,114.10465 121.07369,113.88422 L 121.24051,113.72634 121.32392,113.80677 Q 121.54733,114.02422 121.60988,114.09273 Z M 121.57414,115.93366 Q 121.61286,115.78472 121.63967,115.59407 L 121.88096,115.71024 Q 121.83032,115.95451 121.79755,116.0826 121.74393,116.2792 121.65457,116.36261 121.56818,116.449 121.44605,116.449 121.32987,116.449 121.23157,116.37751 121.13327,116.30601 121.01709,116.12132 120.96943,116.03792 120.95454,116.00515 120.65368,116.19877 120.37069,116.31793 L 120.25451,116.05877 Q 120.58218,115.92472 120.85922,115.74897 120.78772,115.51066 120.73411,115.17107 L 120.29919,115.22469 120.27536,114.96256 120.69836,114.90894 Q 120.67751,114.73021 120.66559,114.60807 L 120.36473,114.64084 120.3409,114.39062 120.64176,114.35785 Q 120.62687,114.19402 120.61793,113.97954 120.60899,113.76208 120.60899,113.73825 L 120.889,113.7323 120.89198,113.80677 120.92177,114.32508 121.80053,114.2238 121.83032,114.47403 120.94262,114.57531 120.96943,114.87617 121.86904,114.76595 121.8899,115.02511 121.00518,115.13533 Q 121.03795,115.38257 121.09454,115.58513 121.37456,115.36768 121.60393,115.0966 L 121.7767,115.27831 Q 121.49967,115.59407 121.18093,115.84131 121.2137,115.93068 121.25242,115.98728 121.34477,116.1392 121.44605,116.1392 121.49371,116.1392 121.51754,116.10047 121.54435,116.05877 121.57414,115.93366 Z M 119.31022,116.26431 119.26852,115.99026 120.23366,115.80557 120.25451,116.08558 Z"
         id="path1261" /></g><g
       aria-label="震中"
       transform="scale(0.96580163,1.0354093)"
       id="text33815-4"
       style="font-weight:500;font-size:2.84224px;font-family:MiSans;-inkscape-font-specification:'MiSans Medium';stroke-width:0.447598;stroke-dasharray:1.79039, 1.79039"><path
         d="M 99.495495,135.26589 H 98.70251 V 135.62685 H 98.449551 V 135.10104 H 99.495495 V 134.95893 H 98.56324 V 134.78271 H 100.68639 V 134.95893 H 99.745612 V 135.10104 H 100.80293 V 135.62685 H 100.55281 V 135.26589 H 99.745612 V 135.78033 H 99.495495 Z M 98.84178,135.38242 H 99.373279 V 135.51885 H 98.84178 Z M 99.879197,135.38242 H 100.40785 V 135.51885 H 99.879197 Z M 99.373279,135.74907 H 98.84178 V 135.61548 H 99.373279 Z M 99.88204,135.61548 H 100.4107 V 135.74907 H 99.88204 Z M 99.282327,136.63869 V 137.03092 L 99.700136,136.9286 99.705821,137.13324 99.020841,137.30662 98.9441,137.12187 Q 99.000945,137.09345 99.017999,137.0764 99.035052,137.0565 99.035052,137.03092 V 136.63869 H 98.810515 Q 98.784935,136.82912 98.716721,136.98829 98.65135,137.14745 98.531976,137.30662 L 98.310281,137.15029 Q 98.469446,136.94281 98.526291,136.76375 98.583136,136.58185 98.583136,136.27488 V 135.86276 H 100.76313 V 136.02477 H 98.830411 V 136.33173 Q 98.830411,136.41984 98.827569,136.46247 H 100.81429 V 136.63869 H 100.55565 L 100.65513,136.79786 Q 100.5386,136.8547 100.31406,136.95134 100.53291,137.01387 100.89388,137.04513 L 100.78871,137.26398 Q 100.45617,137.22135 100.22311,137.14177 99.990045,137.06503 99.813826,136.94565 99.640449,136.82344 99.486968,136.63869 Z M 100.63523,136.16688 V 136.3232 H 98.932731 V 136.16688 Z M 100.06679,136.85754 Q 100.28848,136.76375 100.53291,136.63869 H 99.762666 Q 99.899093,136.77512 100.06679,136.85754 Z"
         id="path1271" /><path
         d="M 102.59069,134.68607 V 135.20904 H 103.55705 V 136.44542 H 102.59069 V 137.29525 H 102.30646 V 136.44542 H 101.34579 V 135.20904 H 102.30646 V 134.68607 Z M 101.62433,135.48474 V 136.17256 H 102.30646 V 135.48474 Z M 102.59069,135.48474 V 136.17256 H 103.27851 V 135.48474 Z"
         id="path1273" /></g><g
       aria-label="震源"
       transform="scale(0.96580163,1.0354093)"
       id="text33815-4-8"
       style="font-weight:500;font-size:3.21301px;font-family:MiSans;-inkscape-font-specification:'MiSans Medium';stroke-width:0.505986;stroke-dasharray:2.02394, 2.02394"><path
         d="M 99.076434,189.94154 H 98.180005 V 190.34959 H 97.894047 V 189.75518 H 99.076434 V 189.59453 H 98.022567 V 189.39532 H 100.42269 V 189.59453 H 99.359179 V 189.75518 H 100.55442 V 190.34959 H 100.27167 V 189.94154 H 99.359179 V 190.52309 H 99.076434 Z M 98.337442,190.07327 H 98.938275 V 190.22749 H 98.337442 Z M 99.510191,190.07327 H 100.10781 V 190.22749 H 99.510191 Z M 98.938275,190.48775 H 98.337442 V 190.33674 H 98.938275 Z M 99.513404,190.33674 H 100.11102 V 190.48775 H 99.513404 Z M 98.835459,191.49342 V 191.93681 L 99.307771,191.82115 99.314197,192.05248 98.539862,192.24848 98.45311,192.03963 Q 98.517371,192.0075 98.536649,191.98822 98.555927,191.96573 98.555927,191.93681 V 191.49342 H 98.302099 Q 98.273182,191.70869 98.19607,191.88862 98.12217,192.06855 97.987224,192.24848 L 97.736609,192.07176 Q 97.916538,191.83721 97.980798,191.63479 98.045058,191.42916 98.045058,191.08215 V 190.61627 H 100.50944 V 190.79941 H 98.32459 V 191.14641 Q 98.32459,191.24602 98.321377,191.29421 H 100.56727 V 191.49342 H 100.27489 L 100.38734,191.67335 Q 100.25561,191.73761 100.00178,191.84685 100.24918,191.91754 100.65724,191.95288 L 100.53835,192.20028 Q 100.16243,192.15209 99.898965,192.06212 99.635498,191.97537 99.436291,191.84042 99.240298,191.70226 99.066795,191.49342 Z M 100.36485,190.96006 V 191.13678 H 98.440258 V 190.96006 Z M 99.722249,191.74082 Q 99.972864,191.63479 100.24918,191.49342 H 99.378457 Q 99.532682,191.64764 99.722249,191.74082 Z"
         id="path1285" /><path
         d="M 101.58579,190.0058 Q 101.51832,189.94154 101.37373,189.81944 101.22914,189.69413 101.15846,189.62987 L 101.07171,189.55919 101.23557,189.3407 Q 101.47333,189.52063 101.75929,189.75839 Z M 103.68067,191.23317 H 103.13767 V 191.834 Q 103.13767,191.97216 103.10554,192.04927 103.07341,192.12638 102.9963,192.15851 102.9224,192.19064 102.78424,192.19064 H 102.51756 L 102.46294,191.92075 H 102.67821 Q 102.79067,191.92075 102.82601,191.88219 102.86135,191.84042 102.86135,191.71833 V 191.23317 H 102.31836 V 190.01543 H 102.71034 Q 102.75854,189.85478 102.79709,189.7102 H 102.09666 V 190.51666 Q 102.09666,190.92793 102.06774,191.21067 102.03882,191.49021 101.96492,191.73118 101.89102,191.97216 101.74965,192.24526 L 101.47333,192.12317 Q 101.61471,191.85328 101.68539,191.62837 101.75608,191.40024 101.78178,191.15284 101.8107,190.90223 101.8107,190.5263 V 189.43067 H 103.85417 V 189.7102 H 103.09269 Q 103.05092,189.87085 103.00594,190.01543 H 103.68067 Z M 101.5151,190.748 Q 101.19701,190.46526 100.96247,190.28211 L 101.12312,190.05078 Q 101.21308,190.11825 101.30626,190.19536 101.40265,190.26926 101.4894,190.33995 L 101.69503,190.50703 Z M 103.40114,190.51024 V 190.26926 H 102.59146 V 190.51024 Z M 103.40114,190.73515 H 102.59146 V 190.98576 H 103.40114 Z M 101.46048,190.98576 101.59222,191.01789 101.29983,192.19707 101.02994,192.11996 Q 101.29341,191.09179 101.3159,190.95363 Z M 102.65251,191.47414 Q 102.56254,191.64122 102.43402,191.82436 102.30872,192.00429 102.18662,192.14887 L 101.97778,191.97858 Q 102.25731,191.67977 102.43081,191.34241 Z M 103.43648,191.35526 Q 103.54573,191.49663 103.67746,191.67656 103.80919,191.85649 103.88952,191.97216 L 103.66782,192.1296 Q 103.58428,191.99465 103.45255,191.80187 103.32081,191.60909 103.23085,191.49663 Z"
         id="path1287" /></g><g
       aria-label="震源深度"
       transform="scale(0.96580163,1.0354093)"
       id="text33815-4-9"
       style="font-weight:500;font-size:3.12907px;font-family:MiSans;-inkscape-font-specification:'MiSans Medium';writing-mode:tb-rl;stroke-width:0.492766;stroke-dasharray:1.97106, 1.97106"><path
         d="M 103.53464,148.99791 H 102.66163 V 149.3953 H 102.38314 V 148.81642 H 103.53464 V 148.65997 H 102.50831 V 148.46597 H 104.84572 V 148.65997 H 103.81 V 148.81642 H 104.97401 V 149.3953 H 104.69865 V 148.99791 H 103.81 V 149.56427 H 103.53464 Z M 102.81495,149.1262 H 103.40009 V 149.2764 H 102.81495 Z M 103.95707,149.1262 H 104.53907 V 149.2764 H 103.95707 Z M 103.40009,149.52985 H 102.81495 V 149.38279 H 103.40009 Z M 103.96019,149.38279 H 104.5422 V 149.52985 H 103.96019 Z M 103.29996,150.50925 V 150.94106 L 103.75993,150.82842 103.76619,151.05371 103.01209,151.24458 102.9276,151.04119 Q 102.99018,151.0099 103.00896,150.99113 103.02773,150.96922 103.02773,150.94106 V 150.50925 H 102.78053 Q 102.75237,150.7189 102.67728,150.89413 102.60531,151.06935 102.47389,151.24458 L 102.22982,151.07248 Q 102.40505,150.84406 102.46763,150.64693 102.53021,150.44667 102.53021,150.10873 V 149.65501 H 104.93021 V 149.83337 H 102.80244 V 150.17131 Q 102.80244,150.26831 102.79931,150.31525 H 104.98653 V 150.50925 H 104.70178 L 104.8113,150.68448 Q 104.68301,150.74706 104.43581,150.85345 104.67675,150.92229 105.07414,150.95671 L 104.95837,151.19765 Q 104.59227,151.15071 104.33568,151.0631 104.0791,150.97861 103.8851,150.84719 103.69422,150.71264 103.52525,150.50925 Z M 104.7894,149.98983 V 150.16192 H 102.91508 V 149.98983 Z M 104.16358,150.75019 Q 104.40765,150.64693 104.67675,150.50925 H 103.82877 Q 103.97897,150.65945 104.16358,150.75019 Z"
         id="path1276" /><path
         d="M 102.84937,152.18956 Q 102.78366,152.12698 102.64286,152.00808 102.50205,151.88604 102.43321,151.82346 L 102.34872,151.75462 102.50831,151.54184 Q 102.73986,151.71707 103.01834,151.94862 Z M 104.88953,153.38487 H 104.36072 V 153.97 Q 104.36072,154.10455 104.32942,154.17965 104.29813,154.25475 104.22304,154.28604 104.15107,154.31733 104.01652,154.31733 H 103.7568 L 103.70361,154.05449 H 103.91326 Q 104.02278,154.05449 104.0572,154.01694 104.09162,153.97626 104.09162,153.85736 V 153.38487 H 103.5628 V 152.19895 H 103.94455 Q 103.99149,152.0425 104.02903,151.90169 H 103.3469 V 152.68708 Q 103.3469,153.0876 103.31873,153.36296 103.29057,153.63519 103.2186,153.86987 103.14664,154.10455 103.00896,154.37052 L 102.73986,154.25162 Q 102.87754,153.98878 102.94638,153.76974 103.01522,153.54758 103.04025,153.30664 103.06841,153.06257 103.06841,152.69647 V 151.62946 H 105.0585 V 151.90169 H 104.31691 Q 104.27623,152.05814 104.23242,152.19895 H 104.88953 Z M 102.78053,152.91238 Q 102.47076,152.63702 102.24233,152.45866 L 102.39879,152.23337 Q 102.4864,152.29908 102.57715,152.37418 102.67102,152.44615 102.7555,152.51498 L 102.95576,152.6777 Z M 104.6173,152.68083 V 152.44615 H 103.82877 V 152.68083 Z M 104.6173,152.89986 H 103.82877 V 153.14393 H 104.6173 Z M 102.72734,153.14393 102.85563,153.17522 102.57089,154.32359 102.30805,154.24849 Q 102.56463,153.24719 102.58653,153.11264 Z M 103.88823,153.61955 Q 103.80061,153.78226 103.67545,153.96062 103.55342,154.13584 103.43451,154.27665 L 103.23112,154.11081 Q 103.50335,153.81981 103.67232,153.49125 Z M 104.65172,153.50377 Q 104.75811,153.64145 104.8864,153.81668 105.01469,153.99191 105.09292,154.10455 L 104.87701,154.25788 Q 104.79566,154.12646 104.66736,153.93871 104.53907,153.75097 104.45146,153.64145 Z"
         id="path1278" /><path
         d="M 102.86502,155.3468 Q 102.76802,155.25919 102.61469,155.13089 102.4645,155.0026 102.34872,154.90873 L 102.51769,154.68969 Q 102.89631,154.9807 103.04651,155.10586 Z M 104.65485,155.06205 H 103.36254 V 155.37809 H 103.08405 V 154.79295 H 104.93646 V 155.38122 H 104.65485 Z M 104.23555,155.22477 Q 104.35133,155.29986 104.56723,155.45006 104.78627,155.59712 104.94272,155.70977 L 104.78314,155.93819 Q 104.6392,155.82555 104.42643,155.67535 104.21678,155.52203 104.09162,155.4438 Z M 103.89761,155.43441 Q 103.62538,155.69413 103.21235,155.97261 L 103.05902,155.73793 Q 103.47832,155.48135 103.72239,155.22789 Z M 102.79931,156.11029 Q 102.68666,156.00703 102.51769,155.86622 102.34872,155.72229 102.24546,155.64406 L 102.41756,155.4219 Q 102.68979,155.6378 102.97454,155.87561 Z M 104.26684,156.35436 Q 104.42017,156.55775 104.61417,156.72359 104.80817,156.88943 105.07727,157.0365 L 104.91456,157.30247 Q 104.45459,157.02085 104.14168,156.57965 V 157.49021 H 103.85381 V 156.59217 Q 103.69422,156.80808 103.50022,156.9833 103.30622,157.1554 103.04338,157.31186 L 102.87754,157.06466 Q 103.18106,156.89569 103.38132,156.73298 103.58158,156.56714 103.73803,156.35436 H 103.04025 V 156.08213 H 103.85381 V 155.72229 H 104.14168 V 156.08213 H 104.99592 V 156.35436 Z M 102.64598,156.30429 102.78992,156.34184 102.92447,156.38252 102.58966,157.45892 102.31117,157.37444 Z"
         id="path1280" /><path
         d="M 102.79931,158.81067 V 159.0829 Q 102.79931,159.47091 102.76802,159.73062 102.73986,159.9872 102.6804,160.18746 102.62095,160.3846 102.50831,160.61928 L 102.24859,160.46908 Q 102.36124,160.23127 102.41443,160.04666 102.47076,159.86204 102.49266,159.62736 102.51456,159.38955 102.51456,158.99529 V 158.01902 H 103.65667 L 103.57219,157.74992 103.91952,157.7155 Q 103.94142,157.77495 104.01652,158.01902 H 105.02408 V 158.27873 H 104.53594 V 158.56661 H 105.01156 V 158.81067 H 104.53594 V 159.26752 H 103.23738 V 158.81067 Z M 103.23738,158.56661 V 158.27873 H 102.79931 V 158.56661 Z M 103.519,158.56661 H 104.25433 V 158.27873 H 103.519 Z M 103.519,159.04535 H 104.25433 V 158.81067 H 103.519 Z M 104.95211,160.60363 Q 104.59227,160.54105 104.32942,160.47221 104.06658,160.40337 103.85381,160.30637 103.42512,160.48473 102.82434,160.61928 L 102.7117,160.35018 Q 103.19357,160.26569 103.55342,160.14366 103.29683,159.98095 102.99957,159.68368 V 159.449 H 104.7362 V 159.68681 Q 104.51091,159.95278 104.1761,160.14679 104.52656,160.25005 105.04598,160.3095 Z M 103.3907,159.68368 Q 103.616,159.89959 103.86006,160.02162 104.17297,159.87143 104.35759,159.68368 Z"
         id="path1282" /></g></g></svg>
