<?xml version="1.0" encoding="UTF-8" standalone="no"?>
<!-- Created with Inkscape (http://www.inkscape.org/) -->

<svg
   width="115.38004mm"
   height="74.165619mm"
   viewBox="0 0 115.38004 74.165619"
   version="1.1"
   id="svg8258"
   xml:space="preserve"
   inkscape:version="1.2.1 (9c6d41e, 2022-07-14)"
   sodipodi:docname="断层作用.svg"
   xmlns:inkscape="http://www.inkscape.org/namespaces/inkscape"
   xmlns:sodipodi="http://sodipodi.sourceforge.net/DTD/sodipodi-0.dtd"
   xmlns="http://www.w3.org/2000/svg"
   xmlns:svg="http://www.w3.org/2000/svg"><sodipodi:namedview
     id="namedview8260"
     pagecolor="#ffffff"
     bordercolor="#000000"
     borderopacity="0.25"
     inkscape:showpageshadow="2"
     inkscape:pageopacity="0.0"
     inkscape:pagecheckerboard="0"
     inkscape:deskcolor="#d1d1d1"
     inkscape:document-units="mm"
     showgrid="false"
     inkscape:zoom="1.6972453"
     inkscape:cx="207.68948"
     inkscape:cy="164.38402"
     inkscape:window-width="1440"
     inkscape:window-height="872"
     inkscape:window-x="0"
     inkscape:window-y="0"
     inkscape:window-maximized="0"
     inkscape:current-layer="layer1"
     showborder="false" /><defs
     id="defs8255"><marker
       style="overflow:visible"
       id="marker12374"
       refX="0"
       refY="0"
       orient="auto-start-reverse"
       inkscape:stockid="TriangleStart"
       markerWidth="5.3244081"
       markerHeight="6.155385"
       viewBox="0 0 5.3244081 6.1553851"
       inkscape:isstock="true"
       inkscape:collect="always"
       preserveAspectRatio="xMidYMid"><path
         transform="scale(0.5)"
         style="fill:context-stroke;fill-rule:evenodd;stroke:context-stroke;stroke-width:1pt"
         d="M 5.77,0 -2.88,5 V -5 Z"
         id="path12372" /></marker><marker
       style="overflow:visible"
       id="TriangleStart"
       refX="0"
       refY="0"
       orient="auto-start-reverse"
       inkscape:stockid="TriangleStart"
       markerWidth="5.3244081"
       markerHeight="6.155385"
       viewBox="0 0 5.3244081 6.1553851"
       inkscape:isstock="true"
       inkscape:collect="always"
       preserveAspectRatio="xMidYMid"><path
         transform="scale(0.5)"
         style="fill:context-stroke;fill-rule:evenodd;stroke:context-stroke;stroke-width:1pt"
         d="M 5.77,0 -2.88,5 V -5 Z"
         id="path135" /></marker><marker
       style="overflow:visible"
       id="TriangleStart-0"
       refX="0"
       refY="0"
       orient="auto-start-reverse"
       inkscape:stockid="TriangleStart"
       markerWidth="5.3244081"
       markerHeight="6.155385"
       viewBox="0 0 5.3244081 6.1553851"
       inkscape:isstock="true"
       inkscape:collect="always"
       preserveAspectRatio="xMidYMid"><path
         transform="scale(0.5)"
         style="fill:context-stroke;fill-rule:evenodd;stroke:context-stroke;stroke-width:1pt"
         d="M 5.77,0 -2.88,5 V -5 Z"
         id="path135-0" /></marker><marker
       style="overflow:visible"
       id="marker12374-9"
       refX="0"
       refY="0"
       orient="auto-start-reverse"
       inkscape:stockid="TriangleStart"
       markerWidth="5.3244081"
       markerHeight="6.155385"
       viewBox="0 0 5.3244081 6.1553851"
       inkscape:isstock="true"
       inkscape:collect="always"
       preserveAspectRatio="xMidYMid"><path
         transform="scale(0.5)"
         style="fill:context-stroke;fill-rule:evenodd;stroke:context-stroke;stroke-width:1pt"
         d="M 5.77,0 -2.88,5 V -5 Z"
         id="path12372-3" /></marker><marker
       style="overflow:visible"
       id="TriangleStart-6"
       refX="0"
       refY="0"
       orient="auto-start-reverse"
       inkscape:stockid="TriangleStart"
       markerWidth="5.3244081"
       markerHeight="6.155385"
       viewBox="0 0 5.3244081 6.1553851"
       inkscape:isstock="true"
       inkscape:collect="always"
       preserveAspectRatio="xMidYMid"><path
         transform="scale(0.5)"
         style="fill:context-stroke;fill-rule:evenodd;stroke:context-stroke;stroke-width:1pt"
         d="M 5.77,0 -2.88,5 V -5 Z"
         id="path135-5" /></marker><marker
       style="overflow:visible"
       id="marker12374-3"
       refX="0"
       refY="0"
       orient="auto-start-reverse"
       inkscape:stockid="TriangleStart"
       markerWidth="5.3244081"
       markerHeight="6.155385"
       viewBox="0 0 5.3244081 6.1553851"
       inkscape:isstock="true"
       inkscape:collect="always"
       preserveAspectRatio="xMidYMid"><path
         transform="scale(0.5)"
         style="fill:context-stroke;fill-rule:evenodd;stroke:context-stroke;stroke-width:1pt"
         d="M 5.77,0 -2.88,5 V -5 Z"
         id="path12372-0" /></marker><marker
       style="overflow:visible"
       id="TriangleStart-6-5"
       refX="0"
       refY="0"
       orient="auto-start-reverse"
       inkscape:stockid="TriangleStart"
       markerWidth="5.3244081"
       markerHeight="6.155385"
       viewBox="0 0 5.3244081 6.1553851"
       inkscape:isstock="true"
       inkscape:collect="always"
       preserveAspectRatio="xMidYMid"><path
         transform="scale(0.5)"
         style="fill:context-stroke;fill-rule:evenodd;stroke:context-stroke;stroke-width:1pt"
         d="M 5.77,0 -2.88,5 V -5 Z"
         id="path135-5-5" /></marker><marker
       style="overflow:visible"
       id="marker12374-3-9"
       refX="0"
       refY="0"
       orient="auto-start-reverse"
       inkscape:stockid="TriangleStart"
       markerWidth="5.3244081"
       markerHeight="6.155385"
       viewBox="0 0 5.3244081 6.1553851"
       inkscape:isstock="true"
       inkscape:collect="always"
       preserveAspectRatio="xMidYMid"><path
         transform="scale(0.5)"
         style="fill:context-stroke;fill-rule:evenodd;stroke:context-stroke;stroke-width:1pt"
         d="M 5.77,0 -2.88,5 V -5 Z"
         id="path12372-0-2" /></marker></defs><g
     inkscape:label="Layer 1"
     inkscape:groupmode="layer"
     id="layer1"
     transform="translate(-56.190264,-147.59882)"><path
       style="fill:none;stroke:#000000;stroke-width:0.4;stroke-dasharray:none;stroke-opacity:1"
       d="M 56.390264,163.01263 V 221.53318 H 157.29916 V 164.50694 H 148.74004 L 136.57706,221.57137"
       id="path8661"
       sodipodi:nodetypes="cccccc" /><path
       style="fill:none;stroke:#000000;stroke-width:0.4;stroke-dasharray:none;stroke-opacity:1"
       d="M 125.29334,221.71791 111.5184,164.12694 H 98.769248 L 87.032394,221.421"
       id="path9143"
       sodipodi:nodetypes="cccc" /><path
       style="fill:none;stroke:#000000;stroke-width:0.4;stroke-dasharray:none;stroke-opacity:1"
       d="M 78.460867,221.45003 64.414534,163.16112 H 56.586379"
       id="path9145"
       sodipodi:nodetypes="ccc" /><path
       style="fill:none;stroke:#000000;stroke-width:0.4;stroke-dasharray:none;stroke-opacity:1"
       d="M 56.344752,163.14239 70.667424,147.80218 78.19043,148.09117 64.357831,163.10294"
       id="path9969"
       sodipodi:nodetypes="cccc" /><path
       style="fill:none;stroke:#000000;stroke-width:0.4;stroke-dasharray:none;stroke-opacity:1"
       d="M 78.396673,147.95992 81.551469,160.89458"
       id="path9971" /><path
       style="fill:none;stroke:#000000;stroke-width:0.4;stroke-dasharray:none;stroke-opacity:1"
       d="M 67.670367,176.35308 81.551469,160.73684 101.8999,160.89458 113.09943,148.43314 125.08765,148.90636 111.52203,164.04938"
       id="path9973" /><path
       style="fill:none;stroke:#000000;stroke-width:0.4;stroke-dasharray:none;stroke-opacity:1"
       d="M 101.84615,160.86723 98.765925,164.14618"
       id="path9977" /><path
       style="fill:none;stroke:#000000;stroke-width:0.4;stroke-dasharray:none;stroke-opacity:1"
       d="M 67.591206,176.39308 96.110702,176.10789"
       id="path9979" /><path
       style="fill:none;stroke:#000000;stroke-width:0.4;stroke-dasharray:none;stroke-opacity:1"
       d="M 146.16242,175.96529 114.56668,175.86354 128.33773,160.42216 125.20059,148.87177"
       id="path9981"
       sodipodi:nodetypes="cccc" /><path
       style="fill:none;stroke:#000000;stroke-width:0.4;stroke-dasharray:none;stroke-opacity:1"
       d="M 128.33773,160.70736 H 151.86631"
       id="path9983" /><path
       style="fill:none;stroke:#000000;stroke-width:0.4;stroke-dasharray:none;stroke-opacity:1"
       d="M 148.7752,164.45642 162.41853,149.44216 171.11697,149.58475 157.14242,164.55749"
       id="path9987"
       sodipodi:nodetypes="cccc" /><path
       style="fill:none;stroke:#000000;stroke-width:0.4;stroke-dasharray:none;stroke-opacity:1"
       d="M 171.29017,149.46652 171.31491,206.2044 157.29904,221.59739"
       id="path10715"
       sodipodi:nodetypes="ccc" /><g
       aria-label="地堑"
       id="text11445"
       style="font-weight:500;font-size:3.175px;font-family:MiSans;-inkscape-font-specification:'MiSans Medium';stroke-width:0.4"><path
         d="M 86.986839,169.02145 Q 86.986839,169.07543 86.983664,169.1421 86.980489,169.20878 86.977314,169.2691 86.967789,169.36753 86.967789,169.44055 86.958264,169.5739 86.913814,169.64693 86.872539,169.71995 86.777289,169.74853 86.682039,169.78028 86.513764,169.78028 H 85.678739 Q 85.516814,169.78028 85.421564,169.74218 85.326314,169.70725 85.281864,169.61835 85.237414,169.52945 85.237414,169.36753 V 168.29755 L 85.008814,168.37058 84.935789,168.09435 85.237414,167.99593 V 167.23075 H 85.519989 V 167.90385 L 85.866064,167.78955 V 166.95453 H 86.145464 V 167.69748 L 86.821739,167.47523 86.786814,168.63728 Q 86.777289,168.77063 86.742364,168.84048 86.710614,168.91033 86.637589,168.94208 86.564564,168.97065 86.424864,168.97065 H 86.269289 L 86.212139,168.6849 H 86.316914 Q 86.405814,168.6849 86.443914,168.6722 86.482014,168.6595 86.494714,168.62775 86.510589,168.59283 86.513764,168.51345 86.520114,168.37058 86.529639,168.14515 86.539164,167.91655 86.535989,167.87845 L 86.145464,168.00545 V 169.2437 H 85.866064 V 168.09435 L 85.519989,168.20548 V 169.25958 Q 85.519989,169.36435 85.535864,169.41515 85.551739,169.46595 85.599364,169.485 85.646989,169.50405 85.751764,169.50405 H 86.402639 Q 86.532814,169.50405 86.589964,169.48818 86.647114,169.4723 86.666164,169.42785 86.688389,169.3834 86.691564,169.2818 L 86.701089,168.95795 Z M 84.783389,169.09448 85.104064,168.99923 85.119939,169.11988 85.129464,169.27545 84.211889,169.55168 84.151564,169.2818 84.500814,169.17703 V 168.05625 H 84.199189 V 167.76733 H 84.500814 V 167.03073 H 84.783389 V 167.76733 H 85.040564 V 168.05625 H 84.783389 Z"
         id="path745" /><path
         d="M 87.351958,168.33883 Q 87.434508,168.33565 88.053633,168.28485 V 168.04355 H 87.482133 V 167.82448 Q 87.580558,167.68478 87.704383,167.44665 H 87.386883 V 167.20218 H 87.821858 Q 87.894883,167.04343 87.929808,166.94183 L 88.206033,166.98628 Q 88.158408,167.10375 88.113958,167.20218 H 88.774358 V 167.44665 H 87.999658 Q 87.901233,167.64668 87.802808,167.8086 H 88.063158 V 167.58953 H 88.329858 V 167.8086 H 88.714033 V 168.04355 H 88.329858 V 168.26263 Q 88.580683,168.2404 88.723558,168.22453 V 168.4817 Q 88.717208,168.4817 88.520358,168.4944 L 88.329858,168.5071 V 168.81508 H 88.053633 V 168.5325 L 87.361483,168.58965 Z M 89.818933,168.76745 H 89.539533 V 168.01815 H 89.158533 Q 89.145833,168.26263 89.082333,168.42455 89.018833,168.58648 88.856908,168.78015 H 88.904533 V 168.95795 H 89.901483 V 169.20243 H 88.904533 V 169.50405 H 90.152308 V 169.76123 H 87.348783 V 169.50405 H 88.606083 V 169.20243 H 87.599608 V 168.95795 H 88.606083 V 168.78015 H 88.834683 L 88.602908,168.6214 Q 88.726733,168.50075 88.787058,168.39915 88.847383,168.29755 88.869608,168.15785 88.895008,168.01498 88.895008,167.76415 V 167.2117 Q 89.523658,167.1609 90.015783,167.03073 L 90.095158,167.2879 Q 89.672883,167.40538 89.161708,167.45618 V 167.76415 H 90.158658 V 168.01815 H 89.818933 Z"
         id="path747" /></g><g
       aria-label="地堑"
       id="text11445-0"
       style="font-weight:500;font-size:3.175px;font-family:MiSans;-inkscape-font-specification:'MiSans Medium';stroke-width:0.4"><path
         d="M 134.91253,169.09448 Q 134.91253,169.14846 134.90935,169.21513 134.90618,169.28181 134.903,169.34213 134.89348,169.44056 134.89348,169.51358 134.88395,169.64693 134.8395,169.71996 134.79823,169.79298 134.70298,169.82156 134.60773,169.85331 134.43945,169.85331 H 133.60443 Q 133.4425,169.85331 133.34725,169.81521 133.252,169.78028 133.20755,169.69138 133.1631,169.60248 133.1631,169.44056 V 168.37058 L 132.9345,168.44361 132.86148,168.16738 133.1631,168.06896 V 167.30378 H 133.44568 V 167.97688 L 133.79175,167.86258 V 167.02756 H 134.07115 V 167.77051 L 134.74743,167.54826 134.7125,168.71031 Q 134.70298,168.84366 134.66805,168.91351 134.6363,168.98336 134.56328,169.01511 134.49025,169.04368 134.35055,169.04368 H 134.19498 L 134.13783,168.75793 H 134.2426 Q 134.3315,168.75793 134.3696,168.74523 134.4077,168.73253 134.4204,168.70078 134.43628,168.66586 134.43945,168.58648 134.4458,168.44361 134.45533,168.21818 134.46485,167.98958 134.46168,167.95148 L 134.07115,168.07848 V 169.31673 H 133.79175 V 168.16738 L 133.44568,168.27851 V 169.33261 Q 133.44568,169.43738 133.46155,169.48818 133.47743,169.53898 133.52505,169.55803 133.57268,169.57708 133.67745,169.57708 H 134.32833 Q 134.4585,169.57708 134.51565,169.56121 134.5728,169.54533 134.59185,169.50088 134.61408,169.45643 134.61725,169.35483 L 134.62678,169.03098 Z M 132.70908,169.16751 133.02975,169.07226 133.04563,169.19291 133.05515,169.34848 132.13758,169.62471 132.07725,169.35483 132.4265,169.25006 V 168.12928 H 132.12488 V 167.84036 H 132.4265 V 167.10376 H 132.70908 V 167.84036 H 132.96625 V 168.12928 H 132.70908 Z"
         id="path762" /><path
         d="M 135.27765,168.41186 Q 135.3602,168.40868 135.97932,168.35788 V 168.11658 H 135.40782 V 167.89751 Q 135.50625,167.75781 135.63007,167.51968 H 135.31257 V 167.27521 H 135.74755 Q 135.82057,167.11646 135.8555,167.01486 L 136.13172,167.05931 Q 136.0841,167.17678 136.03965,167.27521 H 136.70005 V 167.51968 H 135.92535 Q 135.82692,167.71971 135.7285,167.88163 H 135.98885 V 167.66256 H 136.25555 V 167.88163 H 136.63972 V 168.11658 H 136.25555 V 168.33566 Q 136.50637,168.31343 136.64925,168.29756 V 168.55473 Q 136.6429,168.55473 136.44605,168.56743 L 136.25555,168.58013 V 168.88811 H 135.97932 V 168.60553 L 135.28717,168.66268 Z M 137.74462,168.84048 H 137.46522 V 168.09118 H 137.08422 Q 137.07152,168.33566 137.00802,168.49758 136.94452,168.65951 136.7826,168.85318 H 136.83022 V 169.03098 H 137.82717 V 169.27546 H 136.83022 V 169.57708 H 138.078 V 169.83426 H 135.27447 V 169.57708 H 136.53177 V 169.27546 H 135.5253 V 169.03098 H 136.53177 V 168.85318 H 136.76037 L 136.5286,168.69443 Q 136.65242,168.57378 136.71275,168.47218 136.77307,168.37058 136.7953,168.23088 136.8207,168.08801 136.8207,167.83718 V 167.28473 Q 137.44935,167.23393 137.94147,167.10376 L 138.02085,167.36093 Q 137.59857,167.47841 137.0874,167.52921 V 167.83718 H 138.08435 V 168.09118 H 137.74462 Z"
         id="path764" /></g><g
       aria-label="地垒"
       id="text11445-0-8"
       style="font-weight:500;font-size:3.175px;font-family:MiSans;-inkscape-font-specification:'MiSans Medium';stroke-width:0.4"><path
         d="M 112.17164,156.66281 Q 112.17164,156.71678 112.16846,156.78346 112.16529,156.85013 112.16211,156.91046 112.15259,157.00888 112.15259,157.08191 112.14306,157.21526 112.09861,157.28828 112.05734,157.36131 111.96209,157.38988 111.86684,157.42163 111.69856,157.42163 H 110.86354 Q 110.70161,157.42163 110.60636,157.38353 110.51111,157.34861 110.46666,157.25971 110.42221,157.17081 110.42221,157.00888 V 155.93891 L 110.19361,156.01193 110.12059,155.73571 110.42221,155.63728 V 154.87211 H 110.70479 V 155.54521 L 111.05086,155.43091 V 154.59588 H 111.33026 V 155.33883 L 112.00654,155.11658 111.97161,156.27863 Q 111.96209,156.41198 111.92716,156.48183 111.89541,156.55168 111.82239,156.58343 111.74936,156.61201 111.60966,156.61201 H 111.45409 L 111.39694,156.32626 H 111.50171 Q 111.59061,156.32626 111.62871,156.31356 111.66681,156.30086 111.67951,156.26911 111.69539,156.23418 111.69856,156.15481 111.70491,156.01193 111.71444,155.78651 111.72396,155.55791 111.72079,155.51981 L 111.33026,155.64681 V 156.88506 H 111.05086 V 155.73571 L 110.70479,155.84683 V 156.90093 Q 110.70479,157.00571 110.72066,157.05651 110.73654,157.10731 110.78416,157.12636 110.83179,157.14541 110.93656,157.14541 H 111.58744 Q 111.71761,157.14541 111.77476,157.12953 111.83191,157.11366 111.85096,157.06921 111.87319,157.02476 111.87636,156.92316 L 111.88589,156.59931 Z M 109.96819,156.73583 110.28886,156.64058 110.30474,156.76123 110.31426,156.91681 109.39669,157.19303 109.33636,156.92316 109.68561,156.81838 V 155.69761 H 109.38399 V 155.40868 H 109.68561 V 154.67208 H 109.96819 V 155.40868 H 110.22536 V 155.69761 H 109.96819 Z"
         id="path750" /><path
         d="M 112.65423,156.24371 112.60026,156.00241 Q 112.88918,155.77063 113.11461,155.41821 L 112.88283,155.42773 112.82568,155.18008 Q 113.07333,155.05626 113.29876,154.88798 113.52736,154.71971 113.70833,154.54826 L 113.98456,154.69113 Q 113.66388,154.97053 113.35591,155.16421 L 114.46398,155.12293 Q 114.38778,155.05943 114.29888,154.99276 L 114.16553,154.88481 114.34016,154.70701 Q 114.41636,154.76416 114.82911,155.08801 L 115.18471,155.36423 115.01643,155.56743 114.75291,155.35153 113.13366,155.41821 113.36861,155.51346 Q 113.27971,155.63728 113.16223,155.77063 113.04793,155.90398 112.96221,155.98653 L 113.54641,155.94843 113.41941,155.79603 113.37178,155.73888 113.55911,155.59283 113.67658,155.72936 Q 113.95281,156.06273 113.99091,156.11036 L 113.94963,155.98336 Q 114.09568,155.85953 114.20363,155.71666 114.31476,155.57378 114.42588,155.38963 L 114.65766,155.50076 Q 114.48938,155.77063 114.30523,155.97066 L 114.83228,155.93573 114.67036,155.73888 114.85768,155.59283 Q 114.96246,155.71031 115.10851,155.88493 115.25456,156.05956 115.34028,156.17386 L 115.14978,156.34213 115.01643,156.17068 114.03218,156.23418 113.99726,156.12941 113.81311,156.28498 113.73373,156.18021 Z M 115.10533,156.78981 H 114.09251 V 157.13906 H 115.32123 V 157.40893 H 112.55581 V 157.13906 H 113.78453 V 156.78981 H 112.77171 V 156.52628 H 113.78453 V 156.32626 H 114.09251 V 156.52628 H 115.10533 Z"
         id="path752" /></g><g
       aria-label="断层位移"
       id="text11445-0-8-7"
       style="font-weight:500;font-size:3.175px;font-family:MiSans;-inkscape-font-specification:'MiSans Medium';stroke-width:0.4"><path
         d="M 100.89412,189.5421 V 189.82785 H 99.620943 V 187.20848 H 99.903518 V 189.01823 Q 100.18292,188.76105 100.35754,188.3737 H 99.982893 V 188.09113 H 100.39882 V 187.11005 H 100.64647 V 188.09113 H 101.04017 V 188.3737 H 100.64647 V 188.53563 Q 100.94809,188.77693 101.09414,188.9071 L 100.95444,189.11983 Q 100.81792,188.9833 100.64647,188.83408 V 189.45003 H 100.39882 V 188.7674 Q 100.24007,189.0722 100.04322,189.2881 L 99.903518,189.02775 V 189.5421 Z M 102.34509,188.10065 V 188.3991 H 102.05934 V 189.95168 H 101.78312 V 188.3991 H 101.46562 Q 101.46562,188.80233 101.43069,189.0722 101.39894,189.34208 101.33227,189.54528 101.26559,189.74848 101.14494,189.97708 L 100.88142,189.85325 Q 101.00524,189.631 101.06557,189.44368 101.12907,189.25318 101.15447,189.00553 101.18304,188.7547 101.18304,188.35148 V 187.36088 Q 101.69104,187.29738 102.19269,187.13228 L 102.27842,187.42438 Q 102.09427,187.49105 101.87519,187.54503 101.65612,187.599 101.46562,187.6244 V 188.10065 Z M 101.12907,187.37675 Q 101.05604,187.55773 100.85919,187.9673 L 100.66234,187.8784 Q 100.71949,187.77045 100.79887,187.59583 100.88142,187.41803 100.93539,187.2942 Z M 100.18292,187.97048 Q 100.13847,187.85935 100.05909,187.6879 99.982893,187.51328 99.925743,187.39263 L 100.11624,187.30055 100.17339,187.42438 100.37342,187.87523 Z"
         id="path767" /><path
         d="M 105.37404,188.04668 H 103.26901 V 188.3102 Q 103.26901,188.73565 103.24044,189.00235 103.21504,189.26905 103.13884,189.49765 103.06581,189.72625 102.91341,189.98343 L 102.66894,189.78023 Q 102.79594,189.5675 102.85944,189.38653 102.92294,189.20238 102.94834,188.94203 102.97691,188.6785 102.97691,188.22448 V 187.21165 H 105.37404 Z M 105.07876,187.79903 V 187.46565 H 103.26901 V 187.79903 Z M 105.29149,188.31655 V 188.56738 H 103.49126 V 188.31655 Z M 104.25961,189.10713 Q 104.06911,189.3389 103.81194,189.58973 L 104.83429,189.54528 Q 104.67554,189.36113 104.61204,189.29128 L 104.82794,189.12618 Q 105.25656,189.59608 105.43436,189.81833 L 105.22799,190.01835 105.03749,189.78658 103.44046,189.87865 103.38014,189.62148 Q 103.66906,189.38335 103.91036,189.10713 H 103.32299 V 188.8563 H 105.47246 V 189.10713 Z"
         id="path769" /><path
         d="M 106.72976,187.56408 H 107.53621 Q 107.45366,187.2561 107.39016,187.08465 L 107.71401,187.0402 Q 107.81561,187.34818 107.87276,187.56408 H 108.61888 V 187.85618 H 106.72976 Z M 106.74881,187.1164 Q 106.62816,187.50693 106.50116,187.8022 V 189.94533 H 106.20906 V 188.37688 Q 106.07571,188.59595 105.92966,188.78328 L 105.81536,188.4245 Q 105.99951,188.17685 106.16461,187.8149 106.32971,187.45295 106.44718,187.04655 Z M 108.67603,189.55163 V 189.8342 H 106.66626 V 189.55163 H 107.66956 Q 107.77116,189.26588 107.91086,188.78328 108.05056,188.30068 108.12041,187.98953 L 108.41886,188.0816 Q 108.34266,188.37053 108.21248,188.80233 108.08231,189.23095 107.97118,189.55163 Z M 107.24411,189.34208 Q 107.18696,189.10713 107.07583,188.71343 106.96471,188.31973 106.89486,188.09748 L 107.17743,188.01493 Q 107.25046,188.234 107.35523,188.61183 107.46001,188.98965 107.52668,189.25953 Z"
         id="path771" /><path
         d="M 111.80658,188.53245 V 188.80233 Q 111.64148,189.07855 111.4224,189.2881 111.20333,189.49765 110.8636,189.67228 110.52705,189.8469 110.02858,189.98978 L 109.90475,189.74213 Q 110.35243,189.62148 110.6477,189.48495 110.94615,189.34525 111.13983,189.18333 111.3335,189.01823 111.4986,188.7928 H 110.80963 L 110.68263,188.92298 Q 110.78423,189.00553 110.79058,189.01188 L 110.98108,189.16428 110.79375,189.3516 Q 110.77153,189.32938 110.57785,189.1611 L 110.49848,189.09125 Q 110.3175,189.24048 110.127,189.3643 L 109.96825,189.13888 Q 110.52705,188.8055 110.8636,188.3229 110.56198,188.48483 110.1524,188.61183 L 110.0508,188.35465 Q 110.5207,188.22765 110.85725,188.04033 111.1938,187.84983 111.41923,187.58313 H 110.66993 L 110.59373,187.6625 110.87948,187.88475 110.6858,188.06573 Q 110.65723,188.04033 110.46355,187.8784 L 110.40958,187.83395 Q 110.30163,187.92603 110.20955,187.9927 L 110.04445,187.78315 Q 110.4953,187.47835 110.762,187.03703 L 111.01918,187.1164 Q 110.9779,187.18625 110.88265,187.32595 H 111.7399 V 187.58948 Q 111.58115,187.79903 111.39383,187.96413 111.2065,188.12923 110.97155,188.26575 L 111.1557,188.3356 Q 111.08903,188.44355 111.02235,188.53245 Z M 109.9619,188.96425 Q 109.79998,188.82455 109.71425,188.76105 V 189.96438 H 109.43485 V 188.7928 Q 109.26975,189.17698 109.08878,189.43098 L 109.00305,189.10395 Q 109.23165,188.77693 109.4285,188.234 H 109.04115 V 187.95778 H 109.43485 V 187.56725 Q 109.23483,187.60218 109.07608,187.62123 L 109.04433,187.35453 Q 109.29198,187.3196 109.57455,187.26563 109.8603,187.20848 110.06033,187.14815 L 110.11748,187.41803 Q 109.94285,187.46883 109.71425,187.51645 V 187.95778 H 110.06985 V 188.234 H 109.71425 V 188.45308 Q 110.0254,188.67215 110.11113,188.742 Z"
         id="path773" /></g><g
       aria-label="断层面"
       transform="rotate(-49.145597)"
       id="text11445-0-8-7-2"
       style="font-weight:500;font-size:3.175px;font-family:MiSans;-inkscape-font-specification:'MiSans Medium';stroke-width:0.4"
       inkscape:transform-center-x="-24.942378"
       inkscape:transform-center-y="36.790007"><path
         d="M -77.218163,162.09058 V 162.37633 H -78.491338 V 159.75695 H -78.208763 V 161.5667 Q -77.929363,161.30953 -77.754738,160.92218 H -78.129388 V 160.6396 H -77.713463 V 159.65853 H -77.465813 V 160.6396 H -77.072113 V 160.92218 H -77.465813 V 161.0841 Q -77.164188,161.3254 -77.018138,161.45558 L -77.157838,161.6683 Q -77.294363,161.53178 -77.465813,161.38255 V 161.9985 H -77.713463 V 161.31588 Q -77.872213,161.62068 -78.069063,161.83658 L -78.208763,161.57623 V 162.09058 Z M -75.767189,160.64913 V 160.94758 H -76.052939 V 162.50015 H -76.329164 V 160.94758 H -76.646663 Q -76.646663,161.3508 -76.681588,161.62068 -76.713338,161.89055 -76.780013,162.09375 -76.846688,162.29695 -76.967338,162.52555 L -77.230863,162.40173 Q -77.107038,162.17948 -77.046713,161.99215 -76.983213,161.80165 -76.957813,161.554 -76.929238,161.30318 -76.929238,160.89995 V 159.90935 Q -76.421238,159.84585 -75.919589,159.68075 L -75.833864,159.97285 Q -76.018014,160.03953 -76.237089,160.0935 -76.456163,160.14748 -76.646663,160.17288 V 160.64913 Z M -76.983213,159.92523 Q -77.056238,160.1062 -77.253088,160.51578 L -77.449938,160.42688 Q -77.392788,160.31893 -77.313413,160.1443 -77.230863,159.9665 -77.176888,159.84268 Z M -77.929363,160.51895 Q -77.973813,160.40783 -78.053188,160.23638 -78.129388,160.06175 -78.186538,159.9411 L -77.996038,159.84903 -77.938888,159.97285 -77.738863,160.4237 Z"
         id="path738" /><path
         d="M -72.738245,160.59515 H -74.843269 V 160.85868 Q -74.843269,161.28413 -74.871844,161.55083 -74.897244,161.81753 -74.973444,162.04613 -75.046469,162.27473 -75.198869,162.5319 L -75.443344,162.3287 Q -75.316344,162.11598 -75.252844,161.935 -75.189344,161.75085 -75.163944,161.4905 -75.135369,161.22698 -75.135369,160.77295 V 159.76013 H -72.738245 Z M -73.03352,160.3475 V 160.01413 H -74.843269 V 160.3475 Z M -72.820795,160.86503 V 161.11585 H -74.621019 V 160.86503 Z M -73.852669,161.6556 Q -74.043169,161.88738 -74.300344,162.1382 L -73.277995,162.09375 Q -73.436745,161.9096 -73.500245,161.83975 L -73.284345,161.67465 Q -72.85572,162.14455 -72.67792,162.3668 L -72.884295,162.56683 -73.074795,162.33505 -74.671819,162.42713 -74.732144,162.16995 Q -74.443219,161.93183 -74.201919,161.6556 H -74.789294 V 161.40478 H -72.63982 V 161.6556 Z"
         id="path740" /><path
         d="M -69.487051,160.00778 H -70.728476 L -70.852301,160.34115 H -69.633101 V 162.51603 H -69.925201 V 162.316 H -71.7921 V 162.51603 H -72.07785 V 160.34115 H -71.1825 Q -71.119001,160.1824 -71.061851,160.00778 H -72.233425 V 159.73473 H -69.487051 Z M -71.4238,160.6142 H -71.7921 V 162.05565 H -71.4238 Z M -71.147576,160.92853 H -70.572901 V 160.6142 H -71.147576 Z M -70.290326,162.05565 H -69.925201 V 160.6142 H -70.290326 Z M -71.147576,161.48415 H -70.572901 V 161.16983 H -71.147576 Z M -70.572901,161.72863 H -71.147576 V 162.05565 H -70.572901 Z"
         id="path742" /></g><g
       aria-label="断层面"
       transform="rotate(-49.145597)"
       id="text11445-0-8-7-2-6"
       style="font-weight:500;font-size:3.175px;font-family:MiSans;-inkscape-font-specification:'MiSans Medium';stroke-width:0.4"
       inkscape:transform-center-x="-24.942378"
       inkscape:transform-center-y="36.790007"><path
         d="M -47.263936,198.08296 V 198.36871 H -48.537111 V 195.74934 H -48.254536 V 197.55909 Q -47.975136,197.30191 -47.800511,196.91456 H -48.175161 V 196.63199 H -47.759236 V 195.65091 H -47.511586 V 196.63199 H -47.117886 V 196.91456 H -47.511586 V 197.07649 Q -47.209961,197.31779 -47.063911,197.44796 L -47.203611,197.66069 Q -47.340136,197.52416 -47.511586,197.37494 V 197.99089 H -47.759236 V 197.30826 Q -47.917986,197.61306 -48.114836,197.82896 L -48.254536,197.56861 V 198.08296 Z M -45.812961,196.64151 V 196.93996 H -46.098711 V 198.49254 H -46.374936 V 196.93996 H -46.692436 Q -46.692436,197.34319 -46.727361,197.61306 -46.759111,197.88294 -46.825786,198.08614 -46.892461,198.28934 -47.013111,198.51794 L -47.276636,198.39411 Q -47.152811,198.17186 -47.092486,197.98454 -47.028986,197.79404 -47.003586,197.54639 -46.975011,197.29556 -46.975011,196.89234 V 195.90174 Q -46.467011,195.83824 -45.965361,195.67314 L -45.879636,195.96524 Q -46.063786,196.03191 -46.282861,196.08589 -46.501936,196.13986 -46.692436,196.16526 V 196.64151 Z M -47.028986,195.91761 Q -47.102011,196.09859 -47.298861,196.50816 L -47.495711,196.41926 Q -47.438561,196.31131 -47.359186,196.13669 -47.276636,195.95889 -47.222661,195.83506 Z M -47.975136,196.51134 Q -48.019586,196.40021 -48.098961,196.22876 -48.175161,196.05414 -48.232311,195.93349 L -48.041811,195.84141 -47.984661,195.96524 -47.784636,196.41609 Z"
         id="path755" /><path
         d="M -42.784017,196.58754 H -44.889042 V 196.85106 Q -44.889042,197.27651 -44.917617,197.54321 -44.943017,197.80991 -45.019217,198.03851 -45.092242,198.26711 -45.244642,198.52429 L -45.489117,198.32109 Q -45.362117,198.10836 -45.298617,197.92739 -45.235117,197.74324 -45.209717,197.48289 -45.181142,197.21936 -45.181142,196.76534 V 195.75251 H -42.784017 Z M -43.079292,196.33989 V 196.00651 H -44.889042 V 196.33989 Z M -42.866567,196.85741 V 197.10824 H -44.666792 V 196.85741 Z M -43.898442,197.64799 Q -44.088942,197.87976 -44.346117,198.13059 L -43.323767,198.08614 Q -43.482517,197.90199 -43.546017,197.83214 L -43.330117,197.66704 Q -42.901492,198.13694 -42.723692,198.35919 L -42.930067,198.55921 -43.120567,198.32744 -44.717592,198.41951 -44.777917,198.16234 Q -44.488992,197.92421 -44.247692,197.64799 H -44.835067 V 197.39716 H -42.685592 V 197.64799 Z"
         id="path757" /><path
         d="M -39.532823,196.00016 H -40.774248 L -40.898073,196.33354 H -39.678873 V 198.50841 H -39.970973 V 198.30839 H -41.837873 V 198.50841 H -42.123623 V 196.33354 H -41.228273 Q -41.164773,196.17479 -41.107623,196.00016 H -42.279198 V 195.72711 H -39.532823 Z M -41.469573,196.60659 H -41.837873 V 198.04804 H -41.469573 Z M -41.193348,196.92091 H -40.618673 V 196.60659 H -41.193348 Z M -40.336098,198.04804 H -39.970973 V 196.60659 H -40.336098 Z M -41.193348,197.47654 H -40.618673 V 197.16221 H -41.193348 Z M -40.618673,197.72101 H -41.193348 V 198.04804 H -40.618673 Z"
         id="path759" /></g><path
       style="fill:none;fill-opacity:1;stroke:#000000;stroke-width:0.4;stroke-dasharray:none;stroke-opacity:1;marker-end:url(#TriangleStart)"
       d="M 72.164378,187.23321 75.278471,198.85516"
       id="path12342" /><path
       style="fill:none;fill-opacity:1;stroke:#000000;stroke-width:0.4;stroke-dasharray:none;stroke-opacity:1;marker-end:url(#marker12374)"
       d="M 92.17635,187.83963 89.075135,199.41352"
       id="path12370" /><g
       id="g12624"><path
         style="fill:none;fill-opacity:1;stroke:#000000;stroke-width:0.4;stroke-dasharray:none;stroke-opacity:1;marker-end:url(#TriangleStart-0)"
         d="M 120.52664,187.91161 123.64074,199.53356"
         id="path12342-7" /><path
         style="fill:none;fill-opacity:1;stroke:#000000;stroke-width:0.4;stroke-dasharray:none;stroke-opacity:1;marker-end:url(#marker12374-9)"
         d="M 140.53861,188.51803 137.4374,200.09192"
         id="path12370-5" /></g><path
       style="fill:none;fill-opacity:1;stroke:#000000;stroke-width:0.4;stroke-dasharray:none;stroke-opacity:1;marker-end:url(#TriangleStart-6)"
       d="M 115.67526,192.46743 112.56117,180.84548"
       id="path12342-4" /><path
       style="fill:none;fill-opacity:1;stroke:#000000;stroke-width:0.4;stroke-dasharray:none;stroke-opacity:1;marker-end:url(#TriangleStart-6-5)"
       d="M 68.821393,191.88505 65.707303,180.2631"
       id="path12342-4-5" /><path
       style="fill:none;fill-opacity:1;stroke:#000000;stroke-width:0.4;stroke-dasharray:none;stroke-opacity:1;marker-end:url(#marker12374-3)"
       d="M 95.663288,191.86101 98.764508,180.28712"
       id="path12370-8" /><path
       style="fill:none;fill-opacity:1;stroke:#000000;stroke-width:0.4;stroke-dasharray:none;stroke-opacity:1;marker-end:url(#marker12374-3-9)"
       d="M 145.10088,194.74153 148.2021,183.16764"
       id="path12370-8-4" /></g></svg>
