<?xml version="1.0" encoding="UTF-8" standalone="no"?>
<!-- Created with Inkscape (http://www.inkscape.org/) -->

<svg
   width="124.84965mm"
   height="37.165524mm"
   viewBox="0 0 124.84965 37.165524"
   version="1.1"
   id="svg5"
   xml:space="preserve"
   inkscape:version="1.2.1 (9c6d41e, 2022-07-14)"
   sodipodi:docname="褶曲作用.svg"
   xmlns:inkscape="http://www.inkscape.org/namespaces/inkscape"
   xmlns:sodipodi="http://sodipodi.sourceforge.net/DTD/sodipodi-0.dtd"
   xmlns="http://www.w3.org/2000/svg"
   xmlns:svg="http://www.w3.org/2000/svg"><sodipodi:namedview
     id="namedview7"
     pagecolor="#ffffff"
     bordercolor="#000000"
     borderopacity="0.25"
     inkscape:showpageshadow="2"
     inkscape:pageopacity="0"
     inkscape:pagecheckerboard="false"
     inkscape:deskcolor="#d1d1d1"
     inkscape:document-units="mm"
     showgrid="false"
     inkscape:zoom="1.6496142"
     inkscape:cx="296.43295"
     inkscape:cy="107.90402"
     inkscape:window-width="1440"
     inkscape:window-height="872"
     inkscape:window-x="0"
     inkscape:window-y="0"
     inkscape:window-maximized="0"
     inkscape:current-layer="layer1"
     showborder="false" /><defs
     id="defs2"><marker
       style="overflow:visible"
       id="marker9020"
       refX="0"
       refY="0"
       orient="auto-start-reverse"
       inkscape:stockid="TriangleStart"
       markerWidth="5.3244081"
       markerHeight="6.155385"
       viewBox="0 0 5.3244081 6.1553851"
       inkscape:isstock="true"
       inkscape:collect="always"
       preserveAspectRatio="xMidYMid"><path
         transform="scale(0.5)"
         style="fill:context-stroke;fill-rule:evenodd;stroke:context-stroke;stroke-width:1pt"
         d="M 5.77,0 -2.88,5 V -5 Z"
         id="path9018" /></marker><marker
       style="overflow:visible"
       id="marker7183"
       refX="0"
       refY="0"
       orient="auto-start-reverse"
       inkscape:stockid="TriangleStart"
       markerWidth="5.3244081"
       markerHeight="6.155385"
       viewBox="0 0 5.3244081 6.1553851"
       inkscape:isstock="true"
       inkscape:collect="always"
       preserveAspectRatio="xMidYMid"><path
         transform="scale(0.5)"
         style="fill:context-stroke;fill-rule:evenodd;stroke:context-stroke;stroke-width:1pt"
         d="M 5.77,0 -2.88,5 V -5 Z"
         id="path7181" /></marker><marker
       style="overflow:visible"
       id="marker6205"
       refX="0"
       refY="0"
       orient="auto-start-reverse"
       inkscape:stockid="TriangleStart"
       markerWidth="5.3244081"
       markerHeight="6.155385"
       viewBox="0 0 5.3244081 6.1553851"
       inkscape:isstock="true"
       inkscape:collect="always"
       preserveAspectRatio="xMidYMid"><path
         transform="scale(0.5)"
         style="fill:context-stroke;fill-rule:evenodd;stroke:context-stroke;stroke-width:1pt"
         d="M 5.77,0 -2.88,5 V -5 Z"
         id="path6203" /></marker><marker
       style="overflow:visible"
       id="marker6103"
       refX="0"
       refY="0"
       orient="auto-start-reverse"
       inkscape:stockid="TriangleStart"
       markerWidth="5.3244081"
       markerHeight="6.155385"
       viewBox="0 0 5.3244081 6.1553851"
       inkscape:isstock="true"
       inkscape:collect="always"
       preserveAspectRatio="xMidYMid"><path
         transform="scale(0.5)"
         style="fill:context-stroke;fill-rule:evenodd;stroke:context-stroke;stroke-width:1pt"
         d="M 5.77,0 -2.88,5 V -5 Z"
         id="path6101" /></marker><marker
       style="overflow:visible"
       id="marker4145"
       refX="0"
       refY="0"
       orient="auto-start-reverse"
       inkscape:stockid="TriangleStart"
       markerWidth="5.3244081"
       markerHeight="6.155385"
       viewBox="0 0 5.3244081 6.1553851"
       inkscape:isstock="true"
       inkscape:collect="always"
       preserveAspectRatio="xMidYMid"><path
         transform="scale(0.5)"
         style="fill:context-stroke;fill-rule:evenodd;stroke:context-stroke;stroke-width:1pt"
         d="M 5.77,0 -2.88,5 V -5 Z"
         id="path4143" /></marker><marker
       style="overflow:visible"
       id="TriangleStart"
       refX="0"
       refY="0"
       orient="auto-start-reverse"
       inkscape:stockid="TriangleStart"
       markerWidth="5.3244081"
       markerHeight="6.155385"
       viewBox="0 0 5.3244081 6.1553851"
       inkscape:isstock="true"
       inkscape:collect="always"
       preserveAspectRatio="xMidYMid"><path
         transform="scale(0.5)"
         style="fill:context-stroke;fill-rule:evenodd;stroke:context-stroke;stroke-width:1pt"
         d="M 5.77,0 -2.88,5 V -5 Z"
         id="path135" /></marker><linearGradient
       id="linearGradient914"
       inkscape:swatch="solid"><stop
         style="stop-color:#000000;stop-opacity:1;"
         offset="0"
         id="stop912" /></linearGradient><marker
       style="overflow:visible"
       id="TriangleStart-8"
       refX="0"
       refY="0"
       orient="auto-start-reverse"
       inkscape:stockid="TriangleStart"
       markerWidth="5.3244081"
       markerHeight="6.155385"
       viewBox="0 0 5.3244081 6.1553851"
       inkscape:isstock="true"
       inkscape:collect="always"
       preserveAspectRatio="xMidYMid"><path
         transform="scale(0.5)"
         style="fill:context-stroke;fill-rule:evenodd;stroke:context-stroke;stroke-width:1pt"
         d="M 5.77,0 -2.88,5 V -5 Z"
         id="path135-1" /></marker><marker
       style="overflow:visible"
       id="marker4145-5"
       refX="0"
       refY="0"
       orient="auto-start-reverse"
       inkscape:stockid="TriangleStart"
       markerWidth="5.3244081"
       markerHeight="6.155385"
       viewBox="0 0 5.3244081 6.1553851"
       inkscape:isstock="true"
       inkscape:collect="always"
       preserveAspectRatio="xMidYMid"><path
         transform="scale(0.5)"
         style="fill:context-stroke;fill-rule:evenodd;stroke:context-stroke;stroke-width:1pt"
         d="M 5.77,0 -2.88,5 V -5 Z"
         id="path4143-3" /></marker></defs><g
     inkscape:label="Layer 1"
     inkscape:groupmode="layer"
     id="layer1"
     transform="translate(-39.82784,-130.30671)"><path
       style="fill:none;fill-opacity:1;stroke:#000000;stroke-width:0.264583;stroke-opacity:1"
       d="m 58.613971,143.96218 c 0,0 2.908329,-2.79647 6.487808,0.22371 3.579479,3.02019 10.067284,1.9016 12.863753,-0.11185 2.796468,-2.01346 13.758621,-12.30446 20.246427,0.11185 6.487811,12.41632 20.470151,-4.02691 20.470151,-4.02691 0,0 5.92851,-4.25063 10.85029,-0.78301 4.92179,3.46762 16.10766,-2.46089 16.10766,-2.46089 l 0.11186,20.13457 -87.361665,0.11186 z"
       id="path233" /><path
       style="fill:none;stroke:#000000;stroke-width:0.264583;stroke-dasharray:1.05833, 1.05833;stroke-dashoffset:0;stroke-opacity:1"
       d="m 90.046274,136.35578 c 0.335574,27.40539 0.223716,27.29353 0.223716,27.29353"
       id="path1788" /><path
       style="fill:none;stroke:#000000;stroke-width:0.265;stroke-dasharray:1.06, 1.06;stroke-dashoffset:0;stroke-opacity:1"
       d="m 123.60389,136.24393 v 27.29353"
       id="path1790" /><text
       xml:space="preserve"
       style="font-size:3.175px;fill:none;stroke:#000000;stroke-width:0.264999;stroke-dasharray:1.05833, 1.05833;stroke-dashoffset:0;stroke-opacity:1"
       x="84.565193"
       y="170.13713"
       id="text3298"><tspan
         sodipodi:role="line"
         id="tspan3296"
         style="stroke-width:0.265"
         x="84.565193"
         y="170.13713" /></text><g
       aria-label="轴"
       id="text3352"
       style="font-size:3.175px;fill:none;stroke:#000000;stroke-width:0"><path
         d="M 90.064046,166.49116 90.076746,166.77056 89.797346,166.82771 V 167.47223 H 89.530646 V 166.88168 L 88.994071,166.98963 88.968671,166.70388 89.530646,166.59593 V 166.18318 H 89.028996 V 165.89426 Q 89.121071,165.67518 89.241721,165.24338 H 89.009946 V 164.96081 H 89.317921 Q 89.381421,164.70363 89.416346,164.54806 L 89.673521,164.59568 Q 89.619546,164.85286 89.590971,164.96081 H 90.070396 V 165.24338 H 89.517946 Q 89.416346,165.61486 89.305221,165.89426 H 89.556046 V 165.36403 H 89.797346 V 165.89426 H 90.054521 V 166.18318 H 89.797346 V 166.54196 Z M 91.054646,164.57981 V 165.08146 H 91.680121 V 167.46588 H 91.403896 V 167.26586 H 90.422821 V 167.46588 H 90.149771 V 165.08146 H 90.775246 V 164.57981 Z M 90.775246,166.02761 V 165.37356 H 90.422821 V 166.02761 Z M 91.403896,166.02761 V 165.37356 H 91.054646 V 166.02761 Z M 90.775246,166.31336 H 90.422821 V 166.98011 H 90.775246 Z M 91.054646,166.31336 V 166.98011 H 91.403896 V 166.31336 Z"
         style="font-weight:500;font-family:MiSans;-inkscape-font-specification:'MiSans Medium';fill:#000000;stroke:none"
         id="path12764" /></g><g
       aria-label="翼"
       id="text3352-5"
       style="font-size:3.175px;fill:none;stroke:#000000;stroke-width:0"><path
         d="M 79.000243,147.49835 78.031868,147.67932 78.009643,147.48247 78.568443,147.38087 78.212843,147.1999 78.320793,147.06655 H 78.035043 V 146.86017 H 79.282818 V 147.64122 H 79.000243 Z M 79.425693,147.64122 79.397118,147.44437 79.867018,147.36182 Q 79.622543,147.22847 79.533643,147.18402 L 79.622543,147.06655 H 79.406643 V 146.86017 H 80.613143 V 147.64122 H 80.333743 V 147.47612 Z M 78.384293,147.06655 78.752593,147.2507 78.673218,147.36182 79.000243,147.3015 V 147.06655 Z M 79.711443,147.06655 80.063868,147.2507 79.997193,147.3396 80.333743,147.27927 V 147.06655 Z M 80.781418,149.03187 V 149.2192 H 79.676518 Q 79.816218,149.25095 80.425818,149.40335 L 80.682993,149.47002 80.603618,149.68592 Q 80.057518,149.53352 79.581268,149.41922 L 79.663818,149.2192 H 79.089143 L 79.155818,149.41605 Q 78.968493,149.48272 78.666868,149.5621 78.368418,149.64147 78.130293,149.69227 L 78.069968,149.47002 Q 78.317618,149.4224 78.590668,149.35255 78.866893,149.2827 79.066918,149.2192 H 77.965193 V 149.03187 H 78.704968 V 148.84772 H 78.092193 V 148.66675 H 78.704968 V 148.51435 H 78.241418 V 147.70472 H 80.505193 V 148.51435 H 80.032118 V 148.66675 H 80.644893 V 148.84772 H 80.032118 V 149.03187 Z M 79.238368,148.02857 V 147.87617 H 78.523993 V 148.02857 Z M 79.508243,148.02857 H 80.222618 V 147.87617 H 79.508243 Z M 79.238368,148.18732 H 78.523993 V 148.33972 H 79.238368 Z M 79.508243,148.18732 V 148.33972 H 80.222618 V 148.18732 Z M 79.743193,148.51435 H 78.993893 V 148.66675 H 79.743193 Z M 79.743193,148.84772 H 78.993893 V 149.03187 H 79.743193 Z"
         style="font-weight:500;font-family:MiSans;-inkscape-font-specification:'MiSans Medium';fill:#000000;stroke:none"
         id="path12743" /></g><g
       aria-label="翼"
       id="text3352-5-7"
       style="font-size:3.175px;fill:none;stroke:#000000;stroke-width:0"><path
         d="M 97.38124,147.93023 96.412865,148.11121 96.39064,147.91436 96.94944,147.81276 96.59384,147.63178 96.70179,147.49843 H 96.41604 V 147.29206 H 97.663815 V 148.07311 H 97.38124 Z M 97.80669,148.07311 97.778115,147.87626 98.248015,147.79371 Q 98.00354,147.66036 97.91464,147.61591 L 98.00354,147.49843 H 97.78764 V 147.29206 H 98.994139 V 148.07311 H 98.71474 V 147.90801 Z M 96.76529,147.49843 97.13359,147.68258 97.054215,147.79371 97.38124,147.73338 V 147.49843 Z M 98.09244,147.49843 98.444865,147.68258 98.37819,147.77148 98.71474,147.71116 V 147.49843 Z M 99.162414,149.46376 V 149.65108 H 98.057515 Q 98.197215,149.68283 98.806814,149.83523 L 99.063989,149.90191 98.984614,150.11781 Q 98.438515,149.96541 97.962265,149.85111 L 98.044815,149.65108 H 97.47014 L 97.536815,149.84793 Q 97.34949,149.91461 97.047865,149.99398 96.749415,150.07336 96.51129,150.12416 L 96.450965,149.90191 Q 96.698615,149.85428 96.971665,149.78443 97.24789,149.71458 97.447915,149.65108 H 96.34619 V 149.46376 H 97.085965 V 149.27961 H 96.47319 V 149.09863 H 97.085965 V 148.94623 H 96.622415 V 148.13661 H 98.886189 V 148.94623 H 98.413115 V 149.09863 H 99.025889 V 149.27961 H 98.413115 V 149.46376 Z M 97.619365,148.46046 V 148.30806 H 96.90499 V 148.46046 Z M 97.88924,148.46046 H 98.603615 V 148.30806 H 97.88924 Z M 97.619365,148.61921 H 96.90499 V 148.77161 H 97.619365 Z M 97.88924,148.61921 V 148.77161 H 98.603615 V 148.61921 Z M 98.12419,148.94623 H 97.37489 V 149.09863 H 98.12419 Z M 98.12419,149.27961 H 97.37489 V 149.46376 H 98.12419 Z"
         style="font-weight:500;font-family:MiSans;-inkscape-font-specification:'MiSans Medium';fill:#000000;stroke:none"
         id="path12746" /></g><g
       aria-label="向斜"
       id="text3352-4"
       style="font-size:3.175px;fill:none;stroke:#000000;stroke-width:0"><path
         d="M 71.963331,134.28475 V 136.41517 Q 71.963331,136.55487 71.925231,136.6279 71.887131,136.7041 71.798231,136.73267 71.709331,136.76442 71.547406,136.76442 H 71.163231 L 71.109256,136.47232 H 71.461681 Q 71.553756,136.47232 71.591856,136.45962 71.633131,136.44375 71.645831,136.412 71.658531,136.37707 71.658531,136.30405 V 134.57685 H 69.791631 V 136.7676 H 69.490006 V 134.28475 H 70.318681 Q 70.432981,134.01805 70.483781,133.8593 L 70.836206,133.90375 Q 70.807631,133.99582 70.686981,134.28475 Z M 70.134531,134.95785 H 71.331506 V 136.19292 H 70.134531 Z M 70.429806,135.90082 H 71.039406 V 135.25312 H 70.429806 Z"
         style="font-weight:500;font-family:MiSans;-inkscape-font-specification:'MiSans Medium';fill:#000000;stroke:none"
         id="path12738" /><path
         d="M 73.963575,135.62142 H 73.436525 V 136.46597 Q 73.436525,136.6406 73.360325,136.70727 73.2873,136.77395 73.10315,136.77395 H 72.84915 L 72.795175,136.50725 H 72.9952 Q 73.0968,136.50725 73.125375,136.47867 73.15395,136.44692 73.15395,136.35485 V 135.62142 H 72.560225 V 135.3579 H 73.15395 V 135.0404 H 72.77295 V 134.88482 Q 72.665,134.99912 72.604675,135.05627 L 72.490375,134.74195 Q 72.680875,134.5832 72.858675,134.3546 73.036475,134.126 73.144425,133.91962 H 73.427 Q 73.57305,134.06885 73.7572,134.2657 73.94135,134.46255 74.05565,134.58955 L 73.881025,134.84037 Q 73.7064,134.6086 73.3127,134.16727 73.144425,134.46255 72.877725,134.77052 H 73.80165 V 135.0404 H 73.436525 V 135.3579 H 73.963575 Z M 75.31295,135.6373 75.335175,135.92622 75.024025,135.9675 V 136.80887 H 74.731925 V 136.0056 L 73.957225,136.11037 73.931825,135.82145 74.731925,135.7135 V 133.91962 H 75.024025 V 135.6754 Z M 74.443,134.75147 Q 74.357275,134.66257 74.22075,134.53557 74.0874,134.40857 73.995325,134.3292 L 74.179475,134.12282 Q 74.4811,134.38635 74.630325,134.5324 Z M 74.10645,134.90387 Q 74.22075,135.0023 74.5827,135.32932 L 74.39855,135.5484 Q 74.23345,135.38647 73.925475,135.10707 Z M 73.7191,135.73572 Q 73.874675,136.00877 74.008025,136.28182 L 73.792125,136.40882 Q 73.66195,136.12942 73.506375,135.84367 Z M 72.9952,135.81827 Q 72.87455,136.21197 72.693575,136.56122 L 72.464975,136.45645 Q 72.636425,136.158 72.76025,135.7516 Z"
         style="font-weight:500;font-family:MiSans;-inkscape-font-specification:'MiSans Medium';fill:#000000;stroke:none"
         id="path12740" /></g><g
       aria-label="挤压力"
       id="text3352-4-7"
       style="font-size:3.175px;fill:none;stroke:#000000;stroke-width:0"><path
         d="M 44.837829,146.88166 Q 45.123579,147.04359 45.596654,147.15154 L 45.491879,147.43729 Q 45.206129,147.35791 44.987054,147.26901 44.771154,147.18011 44.602879,147.06264 44.247279,147.29759 43.717054,147.44999 L 43.602754,147.17694 Q 44.063129,147.05946 44.377454,146.87849 44.129804,146.64036 43.929779,146.24984 H 43.720229 V 145.97044 H 44.475879 Q 44.444129,145.86884 44.396504,145.74184 L 44.374279,145.67834 44.679079,145.63389 44.796554,145.97044 H 45.529979 V 146.24984 H 45.307729 Q 45.126754,146.62449 44.837829,146.88166 Z M 43.707529,147.13249 43.396379,147.25314 V 148.18976 Q 43.396379,148.32311 43.361454,148.39614 43.329704,148.46916 43.250329,148.49774 43.174129,148.52949 43.028079,148.52949 H 42.805829 L 42.755029,148.24056 H 42.939179 Q 43.040779,148.24056 43.075704,148.21199 43.113804,148.18024 43.113804,148.08816 V 147.35474 L 42.793129,147.47539 42.735979,147.16106 Q 42.926479,147.10074 43.113804,147.03406 V 146.48161 H 42.774079 V 146.19269 H 43.113804 V 145.66881 H 43.396379 V 146.19269 H 43.653554 V 146.48161 H 43.396379 V 146.93246 L 43.659904,146.82769 43.682129,146.96739 Z M 44.234579,146.24984 Q 44.399679,146.54194 44.609229,146.71974 44.844179,146.52924 44.999754,146.24984 Z M 44.040904,147.36109 H 44.336179 Q 44.336179,147.48174 44.333004,147.51666 44.326654,147.75796 44.282204,147.93894 44.237754,148.11674 44.120279,148.27866 44.002804,148.43741 43.786904,148.58346 L 43.577354,148.36756 Q 43.767854,148.24056 43.866279,148.11991 43.967879,147.99609 44.002804,147.85956 44.040904,147.71986 44.040904,147.52619 Z M 45.133104,148.53901 H 44.837829 V 147.36744 H 45.133104 Z"
         style="font-weight:500;font-family:MiSans;-inkscape-font-specification:'MiSans Medium';fill:#000000;stroke:none"
         id="path12731" /><path
         d="M 46.530098,146.13871 V 146.70704 Q 46.530098,147.24679 46.501523,147.55794 46.472948,147.86909 46.399923,148.09769 46.326898,148.32629 46.174498,148.59934 L 45.923673,148.38344 Q 46.050673,148.15166 46.110998,147.97386 46.171323,147.79606 46.196723,147.52301 46.222123,147.24679 46.222123,146.73879 V 145.84344 H 48.711322 V 146.13871 Z M 47.749298,147.17376 V 148.11356 H 48.736722 V 148.41201 H 46.517398 V 148.11356 H 47.438148 V 147.17376 H 46.695198 V 146.87849 H 47.438148 V 146.26254 H 47.749298 V 146.87849 H 48.606547 V 147.17376 Z M 48.142998,147.32616 Q 48.235073,147.41506 48.371597,147.56111 48.511297,147.70716 48.616072,147.82781 L 48.400172,148.03101 Q 48.301747,147.91354 48.165223,147.76114 48.031873,147.60874 47.942973,147.51984 Z"
         style="font-weight:500;font-family:MiSans;-inkscape-font-specification:'MiSans Medium';fill:#000000;stroke:none"
         id="path12733" /><path
         d="M 51.708516,146.26571 51.635491,148.01514 Q 51.622791,148.19929 51.562466,148.30406 51.502141,148.40884 51.375141,148.45329 51.251316,148.50091 51.038591,148.50091 H 50.540117 L 50.479792,148.17706 H 50.933816 Q 51.092566,148.17706 51.171941,148.15484 51.254491,148.12944 51.289416,148.06594 51.324341,147.99926 51.330691,147.86591 L 51.346566,147.46586 Q 51.371966,146.90389 51.381491,146.58639 H 50.406767 Q 50.378192,147.12296 50.279767,147.44999 50.181342,147.77701 49.959092,148.03419 49.740017,148.29136 49.305042,148.59616 L 49.079617,148.33899 Q 49.479667,148.05959 49.679692,147.84369 49.879717,147.62779 49.968617,147.34839 50.060692,147.06581 50.089267,146.58639 H 49.212967 V 146.26571 H 50.101967 Q 50.114667,145.85296 50.124192,145.65611 H 50.438517 Q 50.441692,145.74184 50.419467,146.26571 Z"
         style="font-weight:500;font-family:MiSans;-inkscape-font-specification:'MiSans Medium';fill:#000000;stroke:none"
         id="path12735" /></g><g
       aria-label="背斜"
       id="text3352-4-9"
       style="font-size:3.175px;fill:none;stroke:#000000;stroke-width:0"><path
         d="M 121.69927,131.44971 H 121.40717 V 131.26556 L 120.5912,131.43701 120.55945,131.16713 121.40717,131.00203 V 130.80836 H 120.61977 V 130.55118 H 121.40717 V 130.30671 H 121.69927 Z M 123.29947,130.87821 Q 123.29947,130.99886 123.28995,131.12903 123.28042,131.26238 123.24232,131.32906 123.20422,131.39573 123.1185,131.42113 123.03595,131.44653 122.8772,131.44653 H 122.43905 Q 122.30252,131.44653 122.22632,131.41796 122.1533,131.38938 122.12155,131.31953 122.0898,131.24968 122.0898,131.11951 V 130.30671 H 122.37555 V 130.67183 Q 122.57557,130.61151 122.79465,130.53531 123.01372,130.45593 123.14707,130.39878 L 123.2328,130.64643 Q 122.9153,130.77026 122.37555,130.92583 V 131.02426 Q 122.37555,131.11633 122.41047,131.15126 122.44857,131.18618 122.55335,131.18618 H 122.81052 Q 122.93117,131.18618 122.97245,131.15126 123.01372,131.11633 123.02007,131.03061 L 123.02642,130.81788 Z M 120.88965,133.23723 V 131.59893 H 122.98832 V 132.79908 Q 122.98832,132.97053 122.94705,133.05943 122.90577,133.15151 122.81052,133.18961 122.71527,133.22771 122.54382,133.22771 H 122.0517 L 122.0009,132.95466 H 122.47397 Q 122.59462,132.95466 122.6359,132.91338 122.68035,132.87211 122.68035,132.75781 V 132.70383 H 121.19762 V 133.23723 Z M 122.68035,132.04978 V 131.84658 H 121.19762 V 132.04978 Z M 121.19762,132.26886 V 132.47523 H 122.68035 V 132.26886 Z"
         style="font-weight:500;font-family:MiSans;-inkscape-font-specification:'MiSans Medium';fill:#000000;stroke:none"
         id="path12749" /><path
         d="M 125.15684,132.04661 H 124.62979 V 132.89116 Q 124.62979,133.06578 124.55359,133.13246 124.48057,133.19913 124.29642,133.19913 H 124.04242 L 123.98844,132.93243 H 124.18847 Q 124.29007,132.93243 124.31864,132.90386 124.34722,132.87211 124.34722,132.78003 V 132.04661 H 123.75349 V 131.78308 H 124.34722 V 131.46558 H 123.96622 V 131.31001 Q 123.85827,131.42431 123.79794,131.48146 L 123.68364,131.16713 Q 123.87414,131.00838 124.05194,130.77978 124.22974,130.55118 124.33769,130.34481 H 124.62027 Q 124.76632,130.49403 124.95047,130.69088 125.13462,130.88773 125.24892,131.01473 L 125.07429,131.26556 Q 124.89967,131.03378 124.50597,130.59246 124.33769,130.88773 124.07099,131.19571 H 124.99492 V 131.46558 H 124.62979 V 131.78308 H 125.15684 Z M 126.50622,132.06248 126.52844,132.35141 126.21729,132.39268 V 133.23406 H 125.92519 V 132.43078 L 125.15049,132.53556 125.12509,132.24663 125.92519,132.13868 V 130.34481 H 126.21729 V 132.10058 Z M 125.63627,131.17666 Q 125.55054,131.08776 125.41402,130.96076 125.28067,130.83376 125.18859,130.75438 L 125.37274,130.54801 Q 125.67437,130.81153 125.82359,130.95758 Z M 125.29972,131.32906 Q 125.41402,131.42748 125.77597,131.75451 L 125.59182,131.97358 Q 125.42672,131.81166 125.11874,131.53226 Z M 124.91237,132.16091 Q 125.06794,132.43396 125.20129,132.70701 L 124.98539,132.83401 Q 124.85522,132.55461 124.69964,132.26886 Z M 124.18847,132.24346 Q 124.06782,132.63716 123.88684,132.98641 L 123.65824,132.88163 Q 123.82969,132.58318 123.95352,132.17678 Z"
         style="font-weight:500;font-family:MiSans;-inkscape-font-specification:'MiSans Medium';fill:#000000;stroke:none"
         id="path12751" /></g><g
       aria-label="轴"
       id="text3352-1"
       style="font-size:3.175px;fill:none;stroke:#000000;stroke-width:0"><path
         d="M 123.29175,166.24491 123.30445,166.52431 123.02505,166.58146 V 167.22599 H 122.75835 V 166.63544 L 122.22178,166.74339 122.19638,166.45764 122.75835,166.34969 V 165.93694 H 122.2567 V 165.64801 Q 122.34878,165.42894 122.46943,164.99714 H 122.23765 V 164.71456 H 122.54563 Q 122.60913,164.45739 122.64405,164.30181 L 122.90123,164.34944 Q 122.84725,164.60661 122.81868,164.71456 H 123.2981 V 164.99714 H 122.74565 Q 122.64405,165.36861 122.53293,165.64801 H 122.78375 V 165.11779 H 123.02505 V 165.64801 H 123.28223 V 165.93694 H 123.02505 V 166.29571 Z M 124.28235,164.33356 V 164.83521 H 124.90783 V 167.21964 H 124.6316 V 167.01961 H 123.65053 V 167.21964 H 123.37748 V 164.83521 H 124.00295 V 164.33356 Z M 124.00295,165.78136 V 165.12731 H 123.65053 V 165.78136 Z M 124.6316,165.78136 V 165.12731 H 124.28235 V 165.78136 Z M 124.00295,166.06711 H 123.65053 V 166.73386 H 124.00295 Z M 124.28235,166.06711 V 166.73386 H 124.6316 V 166.06711 Z"
         style="font-weight:500;font-family:MiSans;-inkscape-font-specification:'MiSans Medium';fill:#000000;stroke:none"
         id="path12761" /></g><path
       style="fill:none;fill-opacity:1;stroke:#000000;stroke-width:0.2;stroke-dasharray:none;stroke-dashoffset:0;stroke-opacity:1;marker-start:url(#TriangleStart);marker-end:url(#marker4145)"
       d="M 63.896018,138.30394 H 81.379081"
       id="path3924"
       sodipodi:nodetypes="cc" /><path
       style="fill:none;fill-opacity:1;stroke:#000000;stroke-width:0.2;stroke-dasharray:none;stroke-dashoffset:0;stroke-opacity:1;marker-start:url(#TriangleStart-8);marker-end:url(#marker4145-5)"
       d="m 114.53818,134.69452 h 17.48307"
       id="path3924-5"
       sodipodi:nodetypes="cc" /><path
       style="fill:none;fill-opacity:1;stroke:#000000;stroke-width:0.2;stroke-dasharray:none;stroke-dashoffset:0;stroke-opacity:1;marker-end:url(#marker6103)"
       d="m 88.331221,141.03231 -6.215575,4.37716"
       id="path6099" /><path
       style="fill:none;fill-opacity:1;stroke:#000000;stroke-width:0.2;stroke-dasharray:none;stroke-dashoffset:0;stroke-opacity:1;marker-end:url(#marker6205)"
       d="m 91.745413,141.55757 4.026992,4.11453"
       id="path6201" /><text
       xml:space="preserve"
       style="font-style:normal;font-variant:normal;font-weight:500;font-stretch:normal;font-size:3.175px;font-family:MiSans;-inkscape-font-specification:'MiSans Medium';fill:none;fill-opacity:1;stroke:#000000;stroke-width:0.2;stroke-dasharray:none;stroke-dashoffset:0;stroke-opacity:1"
       x="78.507347"
       y="149.3159"
       id="text6323"><tspan
         sodipodi:role="line"
         id="tspan6321"
         style="stroke-width:0.2"
         x="78.507347"
         y="149.3159" /></text><path
       style="fill:none;fill-opacity:1;stroke:#000000;stroke-width:0.2;stroke-dasharray:none;stroke-dashoffset:0;stroke-opacity:1;marker-end:url(#marker7183)"
       d="M 39.82784,150.23009 H 53.96867"
       id="path7179" /><g
       aria-label="挤压力"
       id="text3352-4-7-4"
       style="font-size:3.175px;fill:none;stroke:#000000;stroke-width:0"><path
         d="M 154.48834,146.88166 Q 154.77409,147.04359 155.24716,147.15154 L 155.14239,147.43729 Q 154.85664,147.35791 154.63756,147.26901 154.42166,147.18011 154.25339,147.06264 153.89779,147.29759 153.36756,147.44999 L 153.25326,147.17694 Q 153.71364,147.05946 154.02796,146.87849 153.78031,146.64036 153.58029,146.24984 H 153.37074 V 145.97044 H 154.12639 Q 154.09464,145.86884 154.04701,145.74184 L 154.02479,145.67834 154.32959,145.63389 154.44706,145.97044 H 155.18049 V 146.24984 H 154.95824 Q 154.77726,146.62449 154.48834,146.88166 Z M 153.35804,147.13249 153.04689,147.25314 V 148.18976 Q 153.04689,148.32311 153.01196,148.39614 152.98021,148.46916 152.90084,148.49774 152.82464,148.52949 152.67859,148.52949 H 152.45634 L 152.40554,148.24056 H 152.58969 Q 152.69129,148.24056 152.72621,148.21199 152.76431,148.18024 152.76431,148.08816 V 147.35474 L 152.44364,147.47539 152.38649,147.16106 Q 152.57699,147.10074 152.76431,147.03406 V 146.48161 H 152.42459 V 146.19269 H 152.76431 V 145.66881 H 153.04689 V 146.19269 H 153.30406 V 146.48161 H 153.04689 V 146.93246 L 153.31041,146.82769 153.33264,146.96739 Z M 153.88509,146.24984 Q 154.05019,146.54194 154.25974,146.71974 154.49469,146.52924 154.65026,146.24984 Z M 153.69141,147.36109 H 153.98669 Q 153.98669,147.48174 153.98351,147.51666 153.97716,147.75796 153.93271,147.93894 153.88826,148.11674 153.77079,148.27866 153.65331,148.43741 153.43741,148.58346 L 153.22786,148.36756 Q 153.41836,148.24056 153.51679,148.11991 153.61839,147.99609 153.65331,147.85956 153.69141,147.71986 153.69141,147.52619 Z M 154.78361,148.53901 H 154.48834 V 147.36744 H 154.78361 Z"
         style="font-weight:500;font-family:MiSans;-inkscape-font-specification:'MiSans Medium';fill:#000000;stroke:none"
         id="path12754" /><path
         d="M 156.18061,146.13871 V 146.70704 Q 156.18061,147.24679 156.15203,147.55794 156.12346,147.86909 156.05043,148.09769 155.97741,148.32629 155.82501,148.59934 L 155.57418,148.38344 Q 155.70118,148.15166 155.76151,147.97386 155.82183,147.79606 155.84723,147.52301 155.87263,147.24679 155.87263,146.73879 V 145.84344 H 158.36183 V 146.13871 Z M 157.39981,147.17376 V 148.11356 H 158.38723 V 148.41201 H 156.16791 V 148.11356 H 157.08866 V 147.17376 H 156.34571 V 146.87849 H 157.08866 V 146.26254 H 157.39981 V 146.87849 H 158.25706 V 147.17376 Z M 157.79351,147.32616 Q 157.88558,147.41506 158.02211,147.56111 158.16181,147.70716 158.26658,147.82781 L 158.05068,148.03101 Q 157.95226,147.91354 157.81573,147.76114 157.68238,147.60874 157.59348,147.51984 Z"
         style="font-weight:500;font-family:MiSans;-inkscape-font-specification:'MiSans Medium';fill:#000000;stroke:none"
         id="path12756" /><path
         d="M 161.35903,146.26571 161.286,148.01514 Q 161.2733,148.19929 161.21298,148.30406 161.15265,148.40884 161.02565,148.45329 160.90183,148.50091 160.6891,148.50091 H 160.19063 L 160.1303,148.17706 H 160.58433 Q 160.74308,148.17706 160.82245,148.15484 160.905,148.12944 160.93993,148.06594 160.97485,147.99926 160.9812,147.86591 L 160.99708,147.46586 Q 161.02248,146.90389 161.032,146.58639 H 160.05728 Q 160.0287,147.12296 159.93028,147.44999 159.83185,147.77701 159.6096,148.03419 159.39053,148.29136 158.95555,148.59616 L 158.73013,148.33899 Q 159.13018,148.05959 159.3302,147.84369 159.53023,147.62779 159.61913,147.34839 159.7112,147.06581 159.73978,146.58639 H 158.86348 V 146.26571 H 159.75248 Q 159.76518,145.85296 159.7747,145.65611 H 160.08903 Q 160.0922,145.74184 160.06998,146.26571 Z"
         style="font-weight:500;font-family:MiSans;-inkscape-font-specification:'MiSans Medium';fill:#000000;stroke:none"
         id="path12758" /></g><path
       style="fill:none;fill-opacity:1;stroke:#000000;stroke-width:0.2;stroke-dasharray:none;stroke-dashoffset:0;stroke-opacity:1;marker-start:url(#marker9020)"
       d="m 150.53666,150.23009 h 14.14083"
       id="path7179-8" /></g></svg>
