<?xml version="1.0" encoding="UTF-8" standalone="no"?>
<!-- Created with Inkscape (http://www.inkscape.org/) -->

<svg
   width="162.19405mm"
   height="90.509308mm"
   viewBox="0 0 162.19405 90.509308"
   version="1.1"
   id="svg16368"
   xml:space="preserve"
   inkscape:version="1.2.1 (9c6d41e, 2022-07-14)"
   sodipodi:docname="不连续面.svg"
   xmlns:inkscape="http://www.inkscape.org/namespaces/inkscape"
   xmlns:sodipodi="http://sodipodi.sourceforge.net/DTD/sodipodi-0.dtd"
   xmlns="http://www.w3.org/2000/svg"
   xmlns:svg="http://www.w3.org/2000/svg"><sodipodi:namedview
     id="namedview16370"
     pagecolor="#ffffff"
     bordercolor="#000000"
     borderopacity="0.25"
     inkscape:showpageshadow="2"
     inkscape:pageopacity="0.0"
     inkscape:pagecheckerboard="0"
     inkscape:deskcolor="#d1d1d1"
     inkscape:document-units="mm"
     showgrid="false"
     inkscape:zoom="1.0045115"
     inkscape:cx="231.45579"
     inkscape:cy="160.27691"
     inkscape:window-width="1440"
     inkscape:window-height="872"
     inkscape:window-x="0"
     inkscape:window-y="0"
     inkscape:window-maximized="0"
     inkscape:current-layer="layer1"
     showborder="false" /><defs
     id="defs16365" /><g
     inkscape:label="Layer 1"
     inkscape:groupmode="layer"
     id="layer1"
     transform="translate(-30.035615,-116.53695)"><path
       style="fill:none;stroke:#000000;stroke-width:0.5;stroke-dasharray:none;stroke-opacity:1"
       d="M 30.941137,117.00979 107.85818,117.22768 C 107.85818,117.22768 147.73303,114.83083 179.98153,161.02464 179.98153,161.02464 190.44051,178.02048 191.96578,206.12897 L 30.287449,206.78266 Z"
       id="path16771" /><path
       style="fill:none;stroke:#000000;stroke-width:0.499999;stroke-dasharray:none;stroke-opacity:1"
       d="M 30.618054,131.31743 100.18908,131.65763 C 100.18908,131.65763 132.50813,128.42573 158.70358,156.83248 158.70358,156.83248 178.57911,178.74116 177.75481,206.16156"
       id="path18035" /><path
       style="fill:none;stroke:#000000;stroke-width:0.499999;stroke-dasharray:none;stroke-opacity:1"
       d="M 30.314019,159.34291 H 100.1399 C 100.1399,159.34291 123.66489,158.29106 139.51232,178.44385 139.51232,178.44385 149.1307,190.81034 149.1307,206.29135"
       id="path18037" /><path
       style="fill:none;stroke:#000000;stroke-width:0.499999;stroke-dasharray:none;stroke-opacity:1"
       d="M 30.32769,191.86254 100.08138,192.18178 C 100.08138,192.18178 114.12788,189.94711 116.20294,206.70715"
       id="path18039" /><path
       style="fill:none;stroke:#000000;stroke-width:0.499999;stroke-dasharray:none;stroke-opacity:1"
       d="M 99.921757,117.16065 100.08138,206.70715"
       id="path18041" /><path
       style="fill:none;stroke:#000000;stroke-width:1;stroke-dasharray:none;stroke-dashoffset:0;stroke-opacity:1"
       d="M 69.913306,117.32027 C 69.913306,117.32027 69.753685,121.15114 83.161718,131.36678 96.569748,141.58242 93.21774,159.30018 93.21774,159.30018 L 68.795971,159.4598 C 68.795971,159.4598 66.720918,160.09828 72.626836,166.32343 78.532754,172.54859 76.298083,178.77375 76.298083,178.77375 76.298083,178.77375 75.499986,185.797 76.617321,187.87206 77.734656,189.94711 83.640574,196.97036 83.640574,196.97036 83.640574,196.97036 85.396389,202.71666 83.800195,206.86677"
       id="path18047" /><path
       style="fill:none;stroke:#000000;stroke-width:0.5;stroke-dasharray:none;stroke-dashoffset:0;stroke-opacity:1"
       d="M 30.646928,120.19342 H 99.762137 C 99.762137,120.19342 143.33824,114.12788 174.78326,160.2579 174.78326,160.2579 184.52005,173.18707 188.51053,205.90905"
       id="path19501" /><path
       style="fill:none;stroke:#000000;stroke-width:0.546639;stroke-dasharray:none;stroke-dashoffset:0;stroke-opacity:1"
       d="M 141.12005,129.11562 149.06805,121.00801"
       id="path19503" /><path
       style="fill:none;stroke:#000000;stroke-width:0.546639;stroke-dasharray:none;stroke-dashoffset:0;stroke-opacity:1"
       d="M 174.00165,152.8191 181.94965,144.71149"
       id="path19503-7" /><g
       aria-label="莫霍面"
       id="text19507"
       style="font-weight:500;font-size:3.175px;font-family:MiSans;-inkscape-font-specification:'MiSans Medium';fill:none;stroke:#000000;stroke-width:0.499999"><path
         d="M 146.66107,117.20688 H 146.37215 V 117.04495 H 145.6419 V 116.79095 H 146.37215 V 116.53695 H 146.66107 V 116.79095 H 147.3437 V 116.53695 H 147.63262 V 116.79095 H 148.3597 V 117.04495 H 147.63262 V 117.20688 H 147.3437 V 117.04495 H 146.66107 Z M 147.2294,118.79438 Q 147.38497,118.9436 147.66437,119.0452 147.94695,119.14363 148.3978,119.19125 L 148.33747,119.4643 Q 147.84217,119.39445 147.52467,119.26745 147.20717,119.14363 147.01667,118.94043 146.87062,119.12775 146.5436,119.2611 146.21975,119.39763 145.6546,119.48018 L 145.58157,119.20078 Q 146.09592,119.14045 146.37215,119.04838 146.64837,118.95313 146.75632,118.79438 H 145.6419 V 118.55943 H 146.84205 V 118.54673 Q 146.8484,118.48958 146.8484,118.35305 H 145.93082 V 117.29895 H 148.07395 V 118.35305 H 147.1532 V 118.54673 118.55943 H 148.36605 V 118.79438 Z M 147.78502,117.71805 V 117.52755 H 146.22292 V 117.71805 Z M 147.78502,117.9276 H 146.22292 V 118.12445 H 147.78502 Z"
         style="fill:#000000;stroke:none;stroke-width:0.5"
         id="path1812" /><path
         d="M 150.03609,117.22275 H 149.15344 V 117.61963 H 148.86769 V 117.0259 H 150.03609 V 116.8862 H 149.01374 V 116.66078 H 151.34737 V 116.8862 H 150.32502 V 117.0259 H 151.49342 V 117.61645 H 151.20767 V 117.22275 H 150.32502 V 117.69265 H 150.03609 Z M 149.89322,117.33705 V 117.49898 H 149.29314 V 117.33705 Z M 150.47107,117.33705 H 151.07114 V 117.49898 H 150.47107 Z M 151.54422,119.1087 V 119.32143 H 149.42967 V 119.45795 H 149.13122 V 118.49275 Q 148.99787,118.62928 148.86769,118.7531 L 148.73752,118.48958 Q 148.92802,118.32448 149.06137,118.15938 149.19789,117.9911 149.30902,117.78155 H 149.29314 V 117.60375 H 149.89322 V 117.78155 H 149.35347 L 149.56619,117.88315 149.50269,117.99745 H 150.18214 L 150.11229,117.8133 150.40122,117.75298 150.48059,117.99745 H 151.46167 V 118.207 H 150.50917 V 118.37528 H 151.38547 V 118.57213 H 150.50917 V 118.73723 H 151.38547 V 118.93725 H 150.50917 V 119.1087 Z M 151.07114,117.7752 H 150.47107 V 117.60375 H 151.07114 Z M 149.42967,118.37528 H 150.21389 V 118.207 H 149.42967 Z M 149.42967,118.73723 H 150.21389 V 118.57213 H 149.42967 Z M 150.21389,118.93725 H 149.42967 V 119.1087 H 150.21389 Z"
         style="fill:#000000;stroke:none;stroke-width:0.5"
         id="path1814" /><path
         d="M 154.71286,116.9497 H 153.47144 L 153.34761,117.28308 H 154.56681 V 119.45795 H 154.27471 V 119.25793 H 152.40781 V 119.45795 H 152.12206 V 117.28308 H 153.01741 Q 153.08091,117.12433 153.13806,116.9497 H 151.96649 V 116.67665 H 154.71286 Z M 152.77611,117.55613 H 152.40781 V 118.99758 H 152.77611 Z M 153.05234,117.87045 H 153.62701 V 117.55613 H 153.05234 Z M 153.90959,118.99758 H 154.27471 V 117.55613 H 153.90959 Z M 153.05234,118.42608 H 153.62701 V 118.11175 H 153.05234 Z M 153.62701,118.67055 H 153.05234 V 118.99758 H 153.62701 Z"
         style="fill:#000000;stroke:none;stroke-width:0.5"
         id="path1816" /></g><g
       aria-label="地壳"
       id="text19507-4"
       style="font-weight:500;font-size:3.175px;font-family:MiSans;-inkscape-font-specification:'MiSans Medium';fill:none;stroke:#000000;stroke-width:0.499999"><path
         d="M 182.30448,142.66295 Q 182.30448,142.71692 182.30131,142.7836 182.29813,142.85027 182.29496,142.9106 182.28543,143.00902 182.28543,143.08205 182.27591,143.2154 182.23146,143.28842 182.19018,143.36145 182.09493,143.39002 181.99968,143.42177 181.83141,143.42177 H 180.99638 Q 180.83446,143.42177 180.73921,143.38367 180.64396,143.34875 180.59951,143.25985 180.55506,143.17095 180.55506,143.00902 V 141.93905 L 180.32646,142.01207 180.25343,141.73585 180.55506,141.63742 V 140.87225 H 180.83763 V 141.54535 L 181.18371,141.43105 V 140.59602 H 181.46311 V 141.33897 L 182.13938,141.11672 182.10446,142.27877 Q 182.09493,142.41212 182.06001,142.48197 182.02826,142.55182 181.95523,142.58357 181.88221,142.61215 181.74251,142.61215 H 181.58693 L 181.52978,142.3264 H 181.63456 Q 181.72346,142.3264 181.76156,142.3137 181.79966,142.301 181.81236,142.26925 181.82823,142.23432 181.83141,142.15495 181.83776,142.01207 181.84728,141.78665 181.85681,141.55805 181.85363,141.51995 L 181.46311,141.64695 V 142.8852 H 181.18371 V 141.73585 L 180.83763,141.84697 V 142.90107 Q 180.83763,143.00585 180.85351,143.05665 180.86938,143.10745 180.91701,143.1265 180.96463,143.14555 181.06941,143.14555 H 181.72028 Q 181.85046,143.14555 181.90761,143.12967 181.96476,143.1138 181.98381,143.06935 182.00603,143.0249 182.00921,142.9233 L 182.01873,142.59945 Z M 180.10103,142.73597 180.42171,142.64072 180.43758,142.76137 180.44711,142.91695 179.52953,143.19317 179.46921,142.9233 179.81846,142.81852 V 141.69775 H 179.51683 V 141.40882 H 179.81846 V 140.67222 H 180.10103 V 141.40882 H 180.35821 V 141.69775 H 180.10103 Z"
         style="fill:#000000;stroke:none;stroke-width:0.5"
         id="path1819" /><path
         d="M 182.98075,141.38025 H 183.92055 V 141.12307 H 182.7458 V 140.8659 H 183.92055 V 140.58015 H 184.22535 V 140.8659 H 185.40963 V 141.12307 H 184.22535 V 141.38025 H 185.17468 V 141.63742 H 182.98075 Z M 185.35883,141.86285 V 142.49785 H 185.0572 V 142.11685 H 183.08235 V 142.52007 H 182.78073 V 141.86285 Z M 185.4382,142.77407 Q 185.4382,142.85662 185.43185,142.9614 185.42868,143.063 185.41915,143.14555 185.40328,143.26937 185.362,143.33287 185.32073,143.39637 185.23183,143.42177 185.14293,143.45035 184.981,143.45035 H 184.7143 Q 184.51745,143.45035 184.43808,143.37732 184.36188,143.3043 184.36188,143.1011 V 142.63437 H 183.71735 V 142.7455 Q 183.71735,142.9487 183.63798,143.08522 183.56178,143.21857 183.37445,143.32335 183.18713,143.4313 182.84105,143.53607 L 182.68548,143.27572 Q 183.02203,143.17412 183.17443,143.09157 183.33,143.00902 183.37445,142.9106 183.42208,142.809 183.42208,142.62167 V 142.3645 H 184.65715 V 143.0249 Q 184.65715,143.12332 184.69208,143.15507 184.727,143.18682 184.81908,143.18682 H 184.92385 Q 185.04768,143.18682 185.08895,143.15825 185.13023,143.12967 185.13658,143.04395 185.14293,142.97727 185.1461,142.88202 185.15245,142.7836 185.15245,142.70422 Z"
         style="fill:#000000;stroke:none;stroke-width:0.5"
         id="path1821" /></g><g
       aria-label="上地幔"
       id="text23224"
       style="font-weight:500;font-size:3.175px;font-family:MiSans;-inkscape-font-specification:'MiSans Medium';stroke-width:0.499999"><path
         d="M 148.83597,143.12929 V 144.36436 H 150.14725 V 144.68504 H 147.36912 V 144.36436 H 148.49307 V 141.91644 H 148.83597 V 142.82449 H 149.99802 V 143.12929 Z"
         style="stroke-width:0.5"
         id="path1824" /><path
         d="M 153.34129,143.98971 Q 153.34129,144.04369 153.33812,144.11036 153.33494,144.17704 153.33177,144.23736 153.32224,144.33579 153.32224,144.40881 153.31272,144.54216 153.26827,144.61519 153.22699,144.68821 153.13174,144.71679 153.03649,144.74854 152.86822,144.74854 H 152.03319 Q 151.87127,144.74854 151.77602,144.71044 151.68077,144.67551 151.63632,144.58661 151.59187,144.49771 151.59187,144.33579 V 143.26581 L 151.36327,143.33884 151.29024,143.06261 151.59187,142.96419 V 142.19901 H 151.87444 V 142.87211 L 152.22052,142.75781 V 141.92279 H 152.49992 V 142.66574 L 153.17619,142.44349 153.14127,143.60554 Q 153.13174,143.73889 153.09682,143.80874 153.06507,143.87859 152.99204,143.91034 152.91902,143.93891 152.77932,143.93891 H 152.62374 L 152.56659,143.65316 H 152.67137 Q 152.76027,143.65316 152.79837,143.64046 152.83647,143.62776 152.84917,143.59601 152.86504,143.56109 152.86822,143.48171 152.87457,143.33884 152.88409,143.11341 152.89362,142.88481 152.89044,142.84671 L 152.49992,142.97371 V 144.21196 H 152.22052 V 143.06261 L 151.87444,143.17374 V 144.22784 Q 151.87444,144.33261 151.89032,144.38341 151.90619,144.43421 151.95382,144.45326 152.00144,144.47231 152.10622,144.47231 H 152.75709 Q 152.88727,144.47231 152.94442,144.45644 153.00157,144.44056 153.02062,144.39611 153.04284,144.35166 153.04602,144.25006 L 153.05554,143.92621 Z M 151.13784,144.06274 151.45852,143.96749 151.47439,144.08814 151.48392,144.24371 150.56634,144.51994 150.50602,144.25006 150.85527,144.14529 V 143.02451 H 150.55364 V 142.73559 H 150.85527 V 141.99899 H 151.13784 V 142.73559 H 151.39502 V 143.02451 H 151.13784 Z"
         style="stroke-width:0.5"
         id="path1826" /><path
         d="M 154.72241,144.00559 Q 154.72241,144.14211 154.68114,144.19291 154.63986,144.24054 154.52874,144.24054 H 154.42079 L 154.37634,143.98336 H 154.46206 Q 154.49699,143.98336 154.50969,143.96114 154.52556,143.93574 154.52556,143.86589 V 142.69749 H 154.35729 V 144.82791 H 154.15409 V 142.69749 H 153.99534 V 144.23419 H 153.79531 V 142.41809 H 154.14139 V 141.91326 H 154.36999 V 142.41809 H 154.72241 Z M 154.94466,142.03391 H 156.30674 V 142.90704 H 154.94466 Z M 156.04956,142.38634 V 142.22759 H 155.19231 V 142.38634 Z M 155.19231,142.55461 V 142.71971 H 156.04956 V 142.55461 Z M 154.83354,143.05944 H 156.43374 V 143.66586 H 154.83354 Z M 155.30979,143.23724 H 155.05896 V 143.48806 H 155.30979 Z M 155.76064,143.48806 V 143.23724 H 155.50664 V 143.48806 Z M 155.96066,143.48806 H 156.20514 V 143.23724 H 155.96066 Z M 156.44961,144.83426 Q 155.95431,144.74536 155.61776,144.58026 155.28756,144.73266 154.73829,144.85331 L 154.66209,144.60566 Q 155.07166,144.52946 155.35424,144.43104 155.11611,144.26594 154.93831,144.03734 V 143.83414 H 156.30991 V 144.04051 Q 156.12576,144.26911 155.89081,144.42786 156.15116,144.52629 156.51311,144.58344 Z M 155.25899,144.03734 Q 155.42409,144.19926 155.63046,144.31356 155.84001,144.20244 156.01464,144.03734 Z"
         style="stroke-width:0.5"
         id="path1828" /></g><g
       aria-label="下地幔"
       id="text23224-9"
       style="font-weight:500;font-size:3.175px;font-family:MiSans;-inkscape-font-specification:'MiSans Medium';stroke-width:0.499999"><path
         d="M 133.82121,158.67327 V 158.37482 H 136.59299 V 158.67327 H 135.28171 V 161.05769 H 134.94516 V 158.67327 Z M 135.47539,159.10189 Q 135.69764,159.26064 136.00561,159.49559 136.31676,159.72737 136.45964,159.84802 L 136.26596,160.11472 Q 136.08499,159.95914 135.79924,159.73689 135.51666,159.51147 135.30076,159.35272 Z"
         style="stroke-width:0.5"
         id="path1831" /><path
         d="M 139.79021,160.22584 Q 139.79021,160.27982 139.78703,160.34649 139.78386,160.41317 139.78068,160.47349 139.77116,160.57192 139.77116,160.64494 139.76163,160.77829 139.71718,160.85132 139.67591,160.92434 139.58066,160.95292 139.48541,160.98467 139.31713,160.98467 H 138.48211 Q 138.32018,160.98467 138.22493,160.94657 138.12968,160.91164 138.08523,160.82274 138.04078,160.73384 138.04078,160.57192 V 159.50194 L 137.81218,159.57497 137.73916,159.29874 138.04078,159.20032 V 158.43514 H 138.32336 V 159.10824 L 138.66943,158.99394 V 158.15892 H 138.94883 V 158.90187 L 139.62511,158.67962 139.59018,159.84167 Q 139.58066,159.97502 139.54573,160.04487 139.51398,160.11472 139.44096,160.14647 139.36793,160.17504 139.22823,160.17504 H 139.07266 L 139.01551,159.88929 H 139.12028 Q 139.20918,159.88929 139.24728,159.87659 139.28538,159.86389 139.29808,159.83214 139.31396,159.79722 139.31713,159.71784 139.32348,159.57497 139.33301,159.34954 139.34253,159.12094 139.33936,159.08284 L 138.94883,159.20984 V 160.44809 H 138.66943 V 159.29874 L 138.32336,159.40987 V 160.46397 Q 138.32336,160.56874 138.33923,160.61954 138.35511,160.67034 138.40273,160.68939 138.45036,160.70844 138.55513,160.70844 H 139.20601 Q 139.33618,160.70844 139.39333,160.69257 139.45048,160.67669 139.46953,160.63224 139.49176,160.58779 139.49493,160.48619 L 139.50446,160.16234 Z M 137.58676,160.29887 137.90743,160.20362 137.92331,160.32427 137.93283,160.47984 137.01526,160.75607 136.95493,160.48619 137.30418,160.38142 V 159.26064 H 137.00256 V 158.97172 H 137.30418 V 158.23512 H 137.58676 V 158.97172 H 137.84393 V 159.26064 H 137.58676 Z"
         style="stroke-width:0.5"
         id="path1833" /><path
         d="M 141.17132,160.24172 Q 141.17132,160.37824 141.13005,160.42904 141.08877,160.47667 140.97765,160.47667 H 140.8697 L 140.82525,160.21949 H 140.91097 Q 140.9459,160.21949 140.9586,160.19727 140.97447,160.17187 140.97447,160.10202 V 158.93362 H 140.8062 V 161.06404 H 140.603 V 158.93362 H 140.44425 V 160.47032 H 140.24422 V 158.65422 H 140.5903 V 158.14939 H 140.8189 V 158.65422 H 141.17132 Z M 141.39357,158.27004 H 142.75565 V 159.14317 H 141.39357 Z M 142.49847,158.62247 V 158.46372 H 141.64122 V 158.62247 Z M 141.64122,158.79074 V 158.95584 H 142.49847 V 158.79074 Z M 141.28245,159.29557 H 142.88265 V 159.90199 H 141.28245 Z M 141.7587,159.47337 H 141.50787 V 159.72419 H 141.7587 Z M 142.20955,159.72419 V 159.47337 H 141.95555 V 159.72419 Z M 142.40957,159.72419 H 142.65405 V 159.47337 H 142.40957 Z M 142.89852,161.07039 Q 142.40322,160.98149 142.06667,160.81639 141.73647,160.96879 141.1872,161.08944 L 141.111,160.84179 Q 141.52057,160.76559 141.80315,160.66717 141.56502,160.50207 141.38722,160.27347 V 160.07027 H 142.75882 V 160.27664 Q 142.57467,160.50524 142.33972,160.66399 142.60007,160.76242 142.96202,160.81957 Z M 141.7079,160.27347 Q 141.873,160.43539 142.07937,160.54969 142.28892,160.43857 142.46355,160.27347 Z"
         style="stroke-width:0.5"
         id="path1835" /></g><g
       aria-label="外核"
       id="text23224-9-8"
       style="font-weight:500;font-size:3.175px;font-family:MiSans;-inkscape-font-specification:'MiSans Medium';stroke-width:0.499999"><path
         d="M 120.1801,184.39683 Q 120.11342,184.64765 120.04992,184.82545 H 120.777 V 185.12708 Q 120.7008,185.58745 120.55157,185.94623 120.40235,186.305 120.15152,186.61933 119.90387,186.93365 119.51652,187.25433 L 119.30062,187.00033 Q 119.67527,186.70505 119.90387,186.42565 120.13247,186.14625 120.26265,185.84145 120.39282,185.53665 120.47855,185.12708 H 119.93562 Q 119.86895,185.29218 119.77687,185.4795 L 120.0785,185.68588 120.19597,185.76843 120.02135,186.04783 Q 119.888,185.9367 119.63082,185.75255 119.54827,185.90178 119.43715,186.05418 L 119.23395,185.8097 Q 119.44032,185.5049 119.6086,185.11755 119.77687,184.7302 119.8753,184.33333 Z M 121.91682,186.11133 Q 121.77395,185.9748 121.30405,185.5684 V 187.24798 H 121.0056 V 184.34603 H 121.30405 V 185.1874 Q 121.50725,185.34615 121.74855,185.54618 121.98985,185.7462 122.09462,185.85098 Z"
         style="stroke-width:0.5"
         id="path1838" /><path
         d="M 125.25374,184.72068 V 185.00325 H 124.32029 Q 124.23139,185.14295 124.12027,185.29218 124.00914,185.43823 123.92024,185.53665 L 124.43777,185.5049 Q 124.57747,185.32075 124.69812,185.11438 L 124.93942,185.25725 Q 124.68224,185.7081 124.32347,186.04783 123.96469,186.38755 123.49797,186.63203 L 123.34239,186.3812 Q 123.61544,186.2415 123.82182,186.09863 124.02819,185.95575 124.19329,185.78748 L 123.57734,185.82558 123.49797,185.57475 Q 123.73927,185.3652 123.97422,185.00325 H 123.48209 V 184.72068 H 124.19964 Q 124.13297,184.5016 124.08852,184.37778 L 124.39967,184.3111 Q 124.46952,184.5016 124.53619,184.72068 Z M 123.34239,186.05735 Q 123.22809,185.95258 123.11697,185.8605 V 187.2575 H 122.82804 V 185.87955 Q 122.65342,186.29548 122.49467,186.53043 L 122.37719,186.1907 Q 122.49149,186.01608 122.61532,185.74938 122.73914,185.48268 122.82487,185.22233 H 122.49149 V 184.93658 H 122.82804 V 184.37778 H 123.11697 V 184.93658 H 123.41224 V 185.22233 H 123.11697 V 185.51443 Q 123.32017,185.67318 123.50114,185.8224 Z M 125.18707,185.87955 Q 124.94259,186.26373 124.67907,186.5209 125.03149,186.81935 125.25374,187.0162 L 125.06007,187.25115 Q 124.92672,187.12733 124.45999,186.71775 124.10439,187.00668 123.54877,187.26385 L 123.36144,187.0035 Q 123.93294,186.75903 124.28854,186.47328 124.64732,186.18753 124.94259,185.72398 Z"
         style="stroke-width:0.5"
         id="path1840" /></g><g
       aria-label="内核"
       id="text23224-9-8-5"
       style="font-weight:500;font-size:3.175px;font-family:MiSans;-inkscape-font-specification:'MiSans Medium';stroke-width:0.499999"><path
         d="M 105.95646,200.30219 V 202.29609 Q 105.95646,202.46436 105.91836,202.54691 105.88026,202.63264 105.78819,202.66439 105.69929,202.69614 105.51831,202.69614 H 105.11509 L 105.05794,202.39769 H 105.42306 Q 105.52466,202.39769 105.57229,202.38181 105.62309,202.36594 105.63896,202.32466 105.65484,202.28021 105.65484,202.19131 V 200.60064 H 104.90871 Q 104.90554,200.81336 104.85474,201.01021 105.00079,201.14991 105.43894,201.57854 L 105.60721,201.74681 105.40401,201.99129 Q 105.16906,201.74364 104.74361,201.31184 104.64836,201.50234 104.48644,201.68331 104.32769,201.86111 104.08956,202.04844 L 103.88954,201.79126 Q 104.15941,201.58806 104.31181,201.41026 104.46421,201.23246 104.52771,201.04196 104.59439,200.85146 104.60391,200.60064 H 103.84826 V 202.72154 H 103.54346 V 200.30219 H 104.60391 V 199.83546 H 104.90871 V 200.30219 Z"
         style="stroke-width:0.5"
         id="path1843" /><path
         d="M 109.32513,200.21329 V 200.49586 H 108.39168 Q 108.30278,200.63556 108.19165,200.78479 108.08053,200.93084 107.99163,201.02926 L 108.50915,200.99751 Q 108.64885,200.81336 108.7695,200.60699 L 109.0108,200.74986 Q 108.75363,201.20071 108.39485,201.54044 108.03608,201.88016 107.56935,202.12464 L 107.41378,201.87381 Q 107.68683,201.73411 107.8932,201.59124 108.09958,201.44836 108.26468,201.28009 L 107.64873,201.31819 107.56935,201.06736 Q 107.81065,200.85781 108.0456,200.49586 H 107.55348 V 200.21329 H 108.27103 Q 108.20435,199.99421 108.1599,199.87039 L 108.47105,199.80371 Q 108.5409,199.99421 108.60758,200.21329 Z M 107.41378,201.54996 Q 107.29948,201.44519 107.18835,201.35311 V 202.75011 H 106.89943 V 201.37216 Q 106.7248,201.78809 106.56605,202.02304 L 106.44858,201.68331 Q 106.56288,201.50869 106.6867,201.24199 106.81053,200.97529 106.89625,200.71494 H 106.56288 V 200.42919 H 106.89943 V 199.87039 H 107.18835 V 200.42919 H 107.48363 V 200.71494 H 107.18835 V 201.00704 Q 107.39155,201.16579 107.57253,201.31501 Z M 109.25845,201.37216 Q 109.01398,201.75634 108.75045,202.01351 109.10288,202.31196 109.32513,202.50881 L 109.13145,202.74376 Q 108.9981,202.61994 108.53138,202.21036 108.17578,202.49929 107.62015,202.75646 L 107.43283,202.49611 Q 108.00433,202.25164 108.35993,201.96589 108.7187,201.68014 109.01398,201.21659 Z"
         style="stroke-width:0.5"
         id="path1845" /></g><path
       style="fill:none;fill-opacity:1;stroke:#000000;stroke-width:1;stroke-dasharray:3, 3;stroke-dashoffset:0;stroke-opacity:1"
       d="M 48.265124,116.9445 C 48.265124,116.9445 47.390229,122.3397 51.035632,124.52694 54.681032,126.71418 59.055515,128.60979 59.492964,131.52611 59.930413,134.44243 64.450711,159.23117 64.450711,159.23117 L 30.62138,159.5228"
       id="path25523" /><g
       aria-label="纵坡（P波）"
       id="text26979"
       style="font-weight:500;font-size:3.175px;font-family:MiSans;-inkscape-font-specification:'MiSans Medium';stroke-dasharray:3, 3"><path
         d="M 75.048133,154.84802 74.987808,154.54957 Q 75.105283,154.41622 75.254508,154.14634 75.406908,153.87647 75.530733,153.60342 L 75.784733,153.71772 Q 75.679958,153.93679 75.552958,154.16857 75.425958,154.39717 75.327533,154.54639 L 75.641858,154.51147 Q 75.702183,154.40352 75.822833,154.18127 L 76.067308,154.32732 Q 75.813308,154.80992 75.413258,155.34014 L 75.914908,155.25759 75.924433,155.53382 75.098933,155.66717 75.041783,155.39094 Q 75.260858,155.12742 75.467233,154.79722 Z M 77.610357,156.52759 Q 77.448432,156.27677 77.334132,156.00689 77.219832,155.73702 77.146807,155.41952 77.070607,155.72432 76.940432,155.99737 76.810258,156.27042 76.607058,156.54982 L 76.381633,156.33709 Q 76.626108,156.01959 76.759458,155.70527 76.892808,155.39094 76.946782,154.99724 77.000757,154.60354 76.997582,154.01934 V 153.63199 H 77.286507 L 77.283332,154.01617 Q 77.283332,154.14634 77.276982,154.38129 77.308732,154.99724 77.438907,155.44809 77.572257,155.89894 77.823082,156.27677 Z M 76.692783,155.45127 Q 76.603883,155.30204 76.521333,155.17504 L 76.470533,155.09249 Q 76.426083,155.52112 76.308608,155.83227 76.194308,156.14024 75.933958,156.54347 L 75.679958,156.32439 Q 75.695833,156.30217 75.791083,156.17517 L 75.003683,156.30534 74.962408,156.00054 75.892683,155.84497 75.905383,155.99419 Q 76.029208,155.77512 76.092708,155.53064 76.159383,155.28299 76.187958,154.95597 76.216533,154.62894 76.229233,154.09237 L 76.235583,153.63834 H 76.527683 L 76.518158,154.09872 Q 76.514983,154.32414 76.502283,154.63847 L 76.883283,155.20044 Z"
         id="path1799" /><path
         d="M 80.829801,156.52442 Q 80.388476,156.30534 80.134476,156.08309 79.851901,156.32439 79.423277,156.54664 L 79.270877,156.28629 Q 79.674101,156.09897 79.934451,155.88307 79.670926,155.57509 79.505827,155.10837 H 79.467727 Q 79.461377,155.41634 79.426452,155.63224 79.391527,155.84497 79.302627,156.05769 79.216902,156.26724 79.045452,156.54664 L 78.785102,156.39107 Q 78.962902,156.13072 79.045452,155.92752 79.128002,155.72114 79.153402,155.48302 79.181977,155.24489 79.181977,154.82897 V 154.01617 H 79.931276 V 153.60977 H 80.220201 V 154.01617 H 80.921876 V 154.29239 L 80.794876,154.67974 80.528176,154.60989 80.626601,154.29874 H 80.220201 V 154.83214 H 80.769476 V 155.09884 Q 80.680576,155.33697 80.578976,155.52429 80.480551,155.71162 80.337676,155.87989 80.578976,156.06722 80.979026,156.23232 Z M 79.074027,155.78464 Q 78.908927,155.84497 78.632702,155.94022 78.359652,156.03547 78.185027,156.09262 L 78.121527,155.79099 Q 78.175502,155.77829 78.477127,155.67987 V 154.70514 H 78.165977 V 154.40669 H 78.477127 V 153.65104 H 78.759702 V 154.40669 H 79.067677 V 154.70514 H 78.759702 V 155.58144 Q 78.924802,155.52747 79.032752,155.48619 Z M 79.931276,154.83214 V 154.29874 H 79.470902 V 154.83214 Z M 79.804276,155.10837 Q 79.931276,155.46079 80.131301,155.68939 80.239251,155.56239 80.315451,155.42269 80.394826,155.28299 80.464676,155.10837 Z"
         id="path1801" /><path
         d="M 83.642845,156.50537 Q 83.458695,156.19739 83.357095,155.81639 83.25867,155.43539 83.25867,155.07662 83.25867,154.71467 83.357095,154.33684 83.458695,153.95584 83.642845,153.64787 H 83.979395 Q 83.795245,153.96854 83.693645,154.34954 83.59522,154.72737 83.59522,155.07662 83.59522,155.42269 83.693645,155.80369 83.795245,156.18469 83.979395,156.50537 Z"
         id="path1803" /><path
         d="M 85.347815,153.87647 Q 85.792315,153.87647 86.03679,154.08284 86.281265,154.28604 86.281265,154.65752 86.281265,155.02582 86.04314,155.23219 85.80819,155.43539 85.37639,155.43539 H 84.92554 V 156.33074 H 84.566765 V 153.87647 Z M 85.30654,155.10202 Q 85.595465,155.10202 85.754215,154.98772 85.912965,154.87024 85.912965,154.65752 85.912965,154.44162 85.754215,154.32732 85.595465,154.20984 85.30654,154.20984 H 84.92554 V 155.10202 Z"
         id="path1805" /><path
         d="M 89.237188,156.52759 Q 88.745063,156.30217 88.472013,156.07992 88.176738,156.31169 87.690963,156.54664 L 87.538563,156.27042 Q 87.989413,156.07357 88.252938,155.87989 88.113238,155.72749 88.008463,155.54017 87.903688,155.35284 87.821138,155.10837 H 87.738588 Q 87.732238,155.41952 87.697313,155.63542 87.665563,155.84814 87.579838,156.05769 87.497288,156.26724 87.332188,156.54347 L 87.087713,156.37202 Q 87.249638,156.11484 87.325838,155.91482 87.405213,155.71162 87.430613,155.46714 87.459188,155.22267 87.459188,154.80992 V 154.00664 H 88.275163 V 153.62882 H 88.567263 V 154.00664 H 89.313388 V 154.28287 L 89.160988,154.66069 88.884763,154.58767 89.011763,154.29239 H 88.567263 V 154.82897 H 89.151463 V 155.11154 Q 89.065738,155.34649 88.957788,155.53382 88.853013,155.71797 88.691088,155.88307 88.932388,156.06087 89.383238,156.23867 Z M 87.208363,154.34954 Q 86.986113,154.15904 86.687663,153.92409 L 86.852763,153.69232 Q 87.148038,153.91457 87.376638,154.10507 Z M 88.275163,154.82897 V 154.29239 H 87.741763 V 154.82897 Z M 87.097238,155.08614 Q 86.903563,154.92739 86.554313,154.65752 L 86.709888,154.41304 Q 86.970238,154.60037 87.265513,154.82579 Z M 88.125938,155.10837 Q 88.249763,155.46079 88.472013,155.69574 88.602188,155.56557 88.687913,155.42269 88.773638,155.27982 88.830788,155.10837 Z M 87.224238,155.38142 Q 87.202013,155.47032 87.075013,155.87354 86.948013,156.27677 86.881338,156.48632 L 86.595588,156.39424 Q 86.640038,156.27042 86.776563,155.83544 86.916263,155.39729 86.941663,155.29252 Z"
         id="path1807" /><path
         d="M 89.916633,156.50537 Q 90.100783,156.18469 90.199208,155.80369 90.300808,155.42269 90.300808,155.07662 90.300808,154.72737 90.199208,154.34954 90.100783,153.96854 89.916633,153.64787 H 90.253183 Q 90.437333,153.95584 90.535758,154.33684 90.637358,154.71467 90.637358,155.07662 90.637358,155.43539 90.535758,155.81639 90.437333,156.19739 90.253183,156.50537 Z"
         id="path1809" /></g><g
       aria-label="横坡（S波）"
       id="text26979-0"
       style="font-weight:500;font-size:3.175px;font-family:MiSans;-inkscape-font-specification:'MiSans Medium';stroke-dasharray:3, 3"><path
         d="M 45.802021,155.25333 Q 45.744871,155.193 45.595646,155.05013 V 156.45983 H 45.322596 V 155.09775 Q 45.167021,155.47558 45.011446,155.73275 L 44.928896,155.32635 Q 45.033671,155.15808 45.135271,154.91995 45.240046,154.68183 45.322596,154.41513 V 154.3929 H 45.008271 V 154.1135 H 45.322596 V 153.56423 H 45.595646 V 154.1135 H 45.843296 V 154.3929 H 45.595646 V 154.70088 Q 45.779796,154.84693 45.935371,155.0025 Z M 46.002046,154.76755 H 46.678321 V 154.55165 H 45.897271 V 154.3167 H 46.290971 V 154.05953 H 45.967121 V 153.8214 H 46.290971 V 153.5674 H 46.567196 V 153.8214 H 47.059321 V 153.5674 H 47.329196 V 153.8214 H 47.694321 V 154.05953 H 47.329196 V 154.3167 H 47.773696 V 154.55165 H 46.945021 V 154.76755 H 47.621296 V 155.86928 H 46.002046 Z M 47.059321,154.05953 H 46.567196 V 154.3167 H 47.059321 Z M 46.678321,155.22158 V 154.99298 H 46.271921 V 155.22158 Z M 47.351421,155.22158 V 154.99298 H 46.945021 V 155.22158 Z M 46.678321,155.41843 H 46.271921 V 155.6502 H 46.678321 Z M 46.945021,155.41843 V 155.6502 H 47.351421 V 155.41843 Z M 45.770271,156.2344 Q 45.951246,156.1709 46.186196,156.0693 46.424321,155.9677 46.579896,155.88515 L 46.694196,156.11375 Q 46.227471,156.3487 45.868696,156.48523 Z M 47.052971,155.88833 Q 47.551446,156.0947 47.818146,156.23123 L 47.710196,156.4757 Q 47.567321,156.3995 47.345071,156.29473 47.122821,156.19313 46.954546,156.1201 Z"
         id="path1786" /><path
         d="M 50.81534,156.4503 Q 50.374015,156.23123 50.120015,156.00898 49.83744,156.25028 49.408815,156.47253 L 49.256415,156.21218 Q 49.65964,156.02485 49.91999,155.80895 49.656465,155.50098 49.491365,155.03425 H 49.453265 Q 49.446915,155.34223 49.41199,155.55813 49.377065,155.77085 49.288165,155.98358 49.20244,156.19313 49.03099,156.47253 L 48.77064,156.31695 Q 48.94844,156.0566 49.03099,155.8534 49.11354,155.64703 49.13894,155.4089 49.167515,155.17078 49.167515,154.75485 V 153.94205 H 49.916815 V 153.53565 H 50.20574 V 153.94205 H 50.907415 V 154.21828 L 50.780415,154.60563 50.513715,154.53578 50.61214,154.22463 H 50.20574 V 154.75803 H 50.755015 V 155.02473 Q 50.666115,155.26285 50.564515,155.45018 50.46609,155.6375 50.323215,155.80578 50.564515,155.9931 50.964565,156.1582 Z M 49.059565,155.71053 Q 48.894465,155.77085 48.61824,155.8661 48.34519,155.96135 48.170565,156.0185 L 48.107065,155.71688 Q 48.16104,155.70418 48.462665,155.60575 V 154.63103 H 48.151515 V 154.33258 H 48.462665 V 153.57693 H 48.74524 V 154.33258 H 49.053215 V 154.63103 H 48.74524 V 155.50733 Q 48.91034,155.45335 49.01829,155.41208 Z M 49.916815,154.75803 V 154.22463 H 49.45644 V 154.75803 Z M 49.789815,155.03425 Q 49.916815,155.38668 50.11684,155.61528 50.22479,155.48828 50.30099,155.34858 50.380365,155.20888 50.450215,155.03425 Z"
         id="path1788" /><path
         d="M 53.628384,156.43125 Q 53.444234,156.12328 53.342634,155.74228 53.244209,155.36128 53.244209,155.0025 53.244209,154.64055 53.342634,154.26273 53.444234,153.88173 53.628384,153.57375 H 53.964934 Q 53.780784,153.89443 53.679184,154.27543 53.580759,154.65325 53.580759,155.0025 53.580759,155.34858 53.679184,155.72958 53.780784,156.11058 53.964934,156.43125 Z"
         id="path1790" /><path
         d="M 55.304778,156.30108 Q 55.003153,156.30108 54.765028,156.16138 54.526903,156.02168 54.393553,155.77403 L 54.704703,155.60575 Q 54.796778,155.78355 54.952353,155.87563 55.107928,155.9677 55.307953,155.9677 55.527028,155.9677 55.666728,155.86928 55.806428,155.76768 55.806428,155.60893 55.806428,155.50415 55.749278,155.43113 55.695303,155.35493 55.574653,155.29778 55.457178,155.24063 55.244453,155.1803 54.999978,155.11045 54.841228,155.0406 54.685653,154.97075 54.574528,154.83105 54.463403,154.69135 54.463403,154.46275 54.463403,154.25955 54.571353,154.1008 54.682478,153.93888 54.876153,153.84998 55.073003,153.7579 55.320653,153.7579 55.888978,153.7579 56.162028,154.23733 L 55.866753,154.41513 Q 55.768328,154.25955 55.625453,154.177 55.485753,154.09128 55.314303,154.09128 55.180953,154.09128 55.069828,154.1389 54.958703,154.18335 54.892028,154.26273 54.828528,154.3421 54.828528,154.43735 54.828528,154.56435 54.898378,154.64373 54.968228,154.7231 55.082528,154.77073 55.196828,154.81518 55.396853,154.86915 55.631803,154.93265 55.793728,155.00885 55.955653,155.08505 56.063603,155.22793 56.174728,155.3708 56.174728,155.59305 56.174728,155.80895 56.066778,155.97088 55.958828,156.12963 55.761978,156.21535 55.565128,156.30108 55.304778,156.30108 Z"
         id="path1792" /><path
         d="M 59.152873,156.45348 Q 58.660748,156.22805 58.387698,156.0058 58.092423,156.23758 57.606648,156.47253 L 57.454248,156.1963 Q 57.905098,155.99945 58.168623,155.80578 58.028923,155.65338 57.924148,155.46605 57.819373,155.27873 57.736823,155.03425 H 57.654273 Q 57.647923,155.3454 57.612998,155.5613 57.581248,155.77403 57.495523,155.98358 57.412973,156.19313 57.247873,156.46935 L 57.003398,156.2979 Q 57.165323,156.04073 57.241523,155.8407 57.320898,155.6375 57.346298,155.39303 57.374873,155.14855 57.374873,154.7358 V 153.93253 H 58.190848 V 153.5547 H 58.482948 V 153.93253 H 59.229073 V 154.20875 L 59.076673,154.58658 58.800448,154.51355 58.927448,154.21828 H 58.482948 V 154.75485 H 59.067148 V 155.03743 Q 58.981423,155.27238 58.873473,155.4597 58.768698,155.64385 58.606773,155.80895 58.848073,155.98675 59.298923,156.16455 Z M 57.124048,154.27543 Q 56.901798,154.08493 56.603348,153.84998 L 56.768448,153.6182 Q 57.063723,153.84045 57.292323,154.03095 Z M 58.190848,154.75485 V 154.21828 H 57.657448 V 154.75485 Z M 57.012923,155.01203 Q 56.819248,154.85328 56.469998,154.5834 L 56.625573,154.33893 Q 56.885923,154.52625 57.181198,154.75168 Z M 58.041623,155.03425 Q 58.165448,155.38668 58.387698,155.62163 58.517873,155.49145 58.603598,155.34858 58.689323,155.2057 58.746473,155.03425 Z M 57.139923,155.3073 Q 57.117698,155.3962 56.990698,155.79943 56.863698,156.20265 56.797023,156.4122 L 56.511273,156.32013 Q 56.555723,156.1963 56.692248,155.76133 56.831948,155.32318 56.857348,155.2184 Z"
         id="path1794" /><path
         d="M 59.832317,156.43125 Q 60.016467,156.11058 60.114892,155.72958 60.216492,155.34858 60.216492,155.0025 60.216492,154.65325 60.114892,154.27543 60.016467,153.89443 59.832317,153.57375 H 60.168867 Q 60.353017,153.88173 60.451442,154.26273 60.553042,154.64055 60.553042,155.0025 60.553042,155.36128 60.451442,155.74228 60.353017,156.12328 60.168867,156.43125 Z"
         id="path1796" /></g></g></svg>
