<?xml version="1.0" encoding="UTF-8" standalone="no"?>
<!-- Created with Inkscape (http://www.inkscape.org/) -->

<svg
   width="140.95085mm"
   height="66.936043mm"
   viewBox="0 0 140.95085 66.936043"
   version="1.1"
   id="svg5"
   xml:space="preserve"
   inkscape:version="1.2.1 (9c6d41e, 2022-07-14)"
   sodipodi:docname="地下溶蚀地形.svg"
   xmlns:inkscape="http://www.inkscape.org/namespaces/inkscape"
   xmlns:sodipodi="http://sodipodi.sourceforge.net/DTD/sodipodi-0.dtd"
   xmlns="http://www.w3.org/2000/svg"
   xmlns:svg="http://www.w3.org/2000/svg"><sodipodi:namedview
     id="namedview7"
     pagecolor="#ffffff"
     bordercolor="#000000"
     borderopacity="0.25"
     inkscape:showpageshadow="2"
     inkscape:pageopacity="0.0"
     inkscape:pagecheckerboard="0"
     inkscape:deskcolor="#d1d1d1"
     inkscape:document-units="mm"
     showgrid="false"
     inkscape:zoom="1.6588419"
     inkscape:cx="284.83728"
     inkscape:cy="150.10472"
     inkscape:window-width="1440"
     inkscape:window-height="900"
     inkscape:window-x="0"
     inkscape:window-y="0"
     inkscape:window-maximized="0"
     inkscape:current-layer="layer1"
     borderlayer="false"
     showborder="false" /><defs
     id="defs2"><marker
       style="overflow:visible"
       id="TriangleStart"
       refX="0"
       refY="0"
       orient="auto-start-reverse"
       inkscape:stockid="TriangleStart"
       markerWidth="5.3244081"
       markerHeight="6.155385"
       viewBox="0 0 5.3244081 6.1553851"
       inkscape:isstock="true"
       inkscape:collect="always"
       preserveAspectRatio="xMidYMid"><path
         transform="scale(0.5)"
         style="fill:context-stroke;fill-rule:evenodd;stroke:context-stroke;stroke-width:1pt"
         d="M 5.77,0 -2.88,5 V -5 Z"
         id="path135" /></marker><inkscape:path-effect
       effect="bspline"
       id="path-effect1402"
       is_visible="true"
       lpeversion="1"
       weight="33.333333"
       steps="2"
       helper_size="0"
       apply_no_weight="true"
       apply_with_weight="true"
       only_selected="false" /><inkscape:path-effect
       effect="bspline"
       id="path-effect1237"
       is_visible="true"
       lpeversion="1"
       weight="33.333333"
       steps="2"
       helper_size="0"
       apply_no_weight="true"
       apply_with_weight="true"
       only_selected="false" /><inkscape:path-effect
       effect="bspline"
       id="path-effect1237-8"
       is_visible="true"
       lpeversion="1"
       weight="33.333333"
       steps="2"
       helper_size="0"
       apply_no_weight="true"
       apply_with_weight="true"
       only_selected="false" /></defs><g
     inkscape:label="Layer 1"
     inkscape:groupmode="layer"
     id="layer1"
     transform="translate(-36.798218,-119.89003)"><rect
       style="fill:none;stroke:#000000;stroke-width:1"
       id="rect354"
       width="139.95085"
       height="57.597694"
       x="37.298218"
       y="128.72838" /><path
       style="fill:none;stroke:#000000;stroke-width:0.51;stroke-dasharray:none"
       d="M 50.666168,128.89341 C 50.666168,128.89341 53.594103,130.09803 54.090344,132.49653 54.586586,134.89503 56.406139,138.20331 57.315914,138.53414 58.225692,138.86497 60.260268,139.45177 61.037729,133.07548 61.631467,128.20598 70.477365,128.81451 70.477365,128.81451"
       id="path410"
       sodipodi:nodetypes="csssc" /><path
       style="fill:none;stroke:#000000;stroke-width:0.51;stroke-dasharray:none"
       d="M 78.406187,128.94013 C 78.406187,128.94013 83.45131,131.83488 84.361088,138.0379 85.270863,144.24092 88.248314,141.84242 89.654331,136.13564 91.060351,130.42886 93.045318,128.6093 98.338561,128.85742"
       id="path412"
       sodipodi:nodetypes="cssc" /><path
       style="fill:none;stroke:#000000;stroke-width:0.51;stroke-dasharray:none"
       d="M 112.93028,128.85448 C 112.93028,128.85448 116.33913,130.16932 116.72871,134.06515 117.1183,137.96097 119.69928,135.57478 121.25761,131.92244 122.81594,128.2701 125.98131,128.80578 125.98131,128.80578"
       id="path510"
       sodipodi:nodetypes="cssc" /><path
       style="fill:none;stroke:#000000;stroke-width:0.51;stroke-dasharray:none"
       d="M 127.39354,128.85448 C 127.39354,128.85448 130.26671,129.68234 130.5102,133.38338 130.75369,137.08441 134.60082,134.45473 135.52608,131.33807 136.45134,128.22141 139.5193,130.36411 139.5193,130.36411 139.5193,130.36411 140.93154,131.97114 141.17503,133.96775 141.41852,135.96436 144.1456,135.33129 145.60653,131.53286 147.06747,127.73443 149.01538,132.11723 148.96668,133.38338 148.91798,134.64952 153.41391,166.70978 149.43651,180.11929 149.43651,180.11929 148.16919,185.08488 144.64635,186.33492"
       id="path512"
       sodipodi:nodetypes="csscssscc" /><path
       style="fill:none;stroke:#000000;stroke-width:0.51;stroke-dasharray:none"
       d="M 176.61638,129.02553 C 176.61638,129.02553 173.60513,131.90586 173.40875,134.39341 173.21236,136.88097 170.65934,141.33238 169.8738,140.74322 169.08826,140.15407 167.84448,142.5107 165.68423,135.76812 163.52399,129.02553 159.85812,130.4657 159.13804,134.45887 158.41796,138.45206 155.53763,154.22839 156.19225,162.86937 156.84687,171.51035 156.32317,179.10394 159.92358,183.68627 163.52399,188.26861 164.83323,180.21679 164.96415,179.03848 165.09508,177.86016 166.99347,169.80834 169.3501,172.81959 171.70673,175.83084 171.51035,180.80595 171.51035,180.80595 171.51035,180.80595 171.83766,184.40636 175.8963,186.30475"
       id="path514" /><path
       style="fill:none;stroke:#000000;stroke-width:0.51;stroke-dasharray:none"
       d="M 37.43044,172.87787 C 37.43044,172.87787 59.317731,175.97064 68.833944,169.5472 78.350157,163.12376 76.288309,175.41553 76.288309,175.41553 76.288309,175.41553 75.574593,180.09434 93.179589,177.08087 93.179589,177.08087 98.254903,172.87787 99.840938,173.67089 101.42697,174.46391 103.72672,177.08087 102.6958,180.41154 101.66488,183.74222 120.14219,183.66292 120.14219,183.66292 120.14219,183.66292 124.42449,185.32825 128.31028,181.04596 132.19606,176.76366 135.44744,186.27987 135.44744,186.27987"
       id="path543" /><path
       style="fill:none;stroke:#000000;stroke-width:0.51;stroke-dasharray:none"
       d="M 37.509741,169.30929 68.437434,169.6265"
       id="path545" /><path
       style="fill:none;stroke:#000000;stroke-width:0.51;stroke-dasharray:none"
       d="M 76.446755,174.06739 97.699948,173.98811"
       id="path549" /><path
       style="fill:none;stroke:#000000;stroke-width:0.51;stroke-dasharray:none"
       d="M 102.8544,180.80805 128.38958,181.04596"
       id="path551" /><g
       id="g1267"
       transform="matrix(1.1693118,0,0,0.99597331,-10.723411,2.6160075)"><path
         style="fill:none;stroke:#000000;stroke-width:0.6;stroke-dasharray:none;stroke-opacity:1"
         d="M 44.063155,161.47695 C 44.063155,159.93808 44.063155,158.39895 44.898834,157.62925 45.734512,156.85956 47.405535,156.85956 50.967581,156.85956 54.529627,156.85956 59.982443,156.85956 65.12759,156.85956 70.272737,156.85956 75.109913,156.85956 77.880227,156.50775 80.650541,156.15594 81.354128,155.45235 82.057731,154.74874"
         id="path1235"
         inkscape:path-effect="#path-effect1237"
         inkscape:original-d="M 44.063155,161.47695 C 44.063419,159.93808 44.063419,158.39895 44.063155,156.85956 45.734512,156.85982 47.405535,156.85982 49.076329,156.85956 54.529627,156.85982 59.982443,156.85982 65.435103,156.85956 70.272737,156.85982 75.109913,156.85982 79.946922,156.85956 80.650804,156.1562 81.354392,155.45261 82.057731,154.74874" /><path
         style="fill:none;stroke:#000000;stroke-width:0.6;stroke-dasharray:none;stroke-opacity:1"
         d="M 120.00837,161.91283 C 120.00837,160.37396 120.00837,158.83483 119.1727,158.06513 118.33702,157.29544 116.66599,157.29544 113.10395,157.29544 109.5419,157.29544 104.08909,157.29544 98.943939,157.29544 93.798792,157.29544 88.961616,157.29544 86.191302,156.94363 83.420988,156.59182 82.717401,155.88823 82.013798,155.18462"
         id="path1235-8" /></g><g
       aria-label="石灰华阶地"
       id="text1290"
       style="font-weight:500;font-size:3.09925px;font-family:MiSans;-inkscape-font-specification:'MiSans Medium';fill:none;stroke:#000000;stroke-width:36.6053"><path
         d="M 81.096162,152.78283 H 79.74179 Q 79.583728,153.13615 79.332689,153.48636 H 80.842024 V 155.11037 H 80.538297 V 154.90582 H 79.221116 V 155.11037 H 78.91429 V 153.97605 Q 78.70974,154.1837 78.467998,154.37585 L 78.350227,154.04733 Q 78.684946,153.80559 78.954581,153.47707 79.224215,153.14545 79.382277,152.78283 H 78.471097 V 152.49151 H 81.096162 Z M 79.221116,154.61759 H 80.538297 V 153.78079 H 79.221116 Z"
         style="fill:#000000;stroke:none"
         id="path1768" /><path
         d="M 82.571399,154.08762 Q 82.5683,154.08142 82.376147,153.71881 L 82.267673,153.52046 Q 82.193291,153.94505 82.041428,154.29527 81.892664,154.64548 81.626128,155.04219 L 81.437074,154.76945 Q 81.994939,154.00704 82.044527,152.9099 H 81.514555 V 152.61857 H 82.056924 Q 82.066222,152.39543 82.075519,152.27146 L 82.366849,152.27456 Q 82.373047,152.33964 82.354452,152.61857 H 84.189208 V 152.9099 H 82.335856 Q 82.317261,153.18884 82.286268,153.39959 L 82.450529,153.29731 Q 82.782148,153.87377 82.822439,153.94505 Z M 83.256334,153.70951 Q 83.343113,154.07832 83.578656,154.34796 83.814199,154.61759 84.2202,154.81904 L 84.046642,155.09488 Q 83.386502,154.73226 83.138562,154.1713 83.020791,154.45333 82.779049,154.68887 82.540407,154.92132 82.162298,155.13517 L 81.982542,154.87483 Q 82.357551,154.67958 82.5683,154.48432 82.782148,154.28907 82.875126,154.05043 82.968103,153.81179 82.968103,153.48017 V 153.06487 H 83.268731 V 153.48017 Q 83.268731,153.61033 83.256334,153.70951 Z M 83.417495,153.93266 Q 83.494976,153.82108 83.656137,153.57314 83.817298,153.3252 83.84829,153.26942 L 84.086933,153.41508 Q 84.040444,153.49876 83.637541,154.08762 Z"
         style="fill:#000000;stroke:none"
         id="path1770" /><path
         d="M 85.029099,153.15474 Q 84.905129,153.27871 84.675784,153.47087 L 84.558013,153.20123 Q 85.025999,152.81383 85.348322,152.25906 L 85.605559,152.37683 Q 85.462994,152.63717 85.317329,152.82622 V 153.90476 H 85.029099 Z M 85.422704,153.21673 Q 85.717132,153.12375 85.968172,153.01838 V 152.29625 H 86.259501 V 152.89131 Q 86.671701,152.69606 87.040512,152.44192 L 87.179978,152.69296 Q 86.752282,152.98739 86.259501,153.20433 V 153.38719 Q 86.259501,153.49256 86.299791,153.53285 86.343181,153.57004 86.442357,153.57004 H 86.777076 Q 86.897947,153.57004 86.941336,153.53285 86.987825,153.49256 86.994023,153.38409 87.003321,153.30351 87.003321,153.12065 L 87.269857,153.17954 Q 87.260559,153.41198 87.25436,153.48017 87.241963,153.62583 87.198574,153.70331 87.158284,153.77769 87.071505,153.80869 86.987825,153.83658 86.829763,153.83658 H 86.318387 Q 86.132432,153.83658 86.048752,153.7591 85.968172,153.67852 85.968172,153.47397 V 153.3283 Q 85.772919,153.40578 85.51878,153.48946 Z M 86.092142,154.1806 H 87.300849 V 154.47503 H 86.092142 V 155.13826 H 85.785316 V 154.47503 H 84.57041 V 154.1806 H 85.785316 V 153.86757 H 86.092142 Z"
         style="fill:#000000;stroke:none"
         id="path1772" /><path
         d="M 88.611826,153.37169 Q 88.887659,153.14545 89.070515,152.89131 89.25647,152.63717 89.383539,152.29315 H 89.619082 Q 89.882518,152.99668 90.446582,153.3531 L 90.310215,153.62273 Q 90.028183,153.43678 89.829831,153.19813 89.631479,152.95639 89.50441,152.64647 89.386638,152.9254 89.209981,153.15474 89.036423,153.38409 88.751292,153.63203 Z M 88.707903,152.44192 V 152.72705 L 88.46926,153.40268 Q 88.602528,153.59174 88.661414,153.756 88.723399,153.92026 88.723399,154.08452 88.723399,154.32936 88.611826,154.44093 88.503352,154.54941 88.274008,154.54941 H 88.137641 L 88.081854,154.27357 H 88.205824 Q 88.351489,154.27357 88.404176,154.21779 88.456863,154.162 88.456863,154.03183 88.456863,153.79009 88.202725,153.44298 L 88.432069,152.71155 H 88.053961 V 155.11657 H 87.784326 V 152.44192 Z M 88.590131,154.95541 Q 88.757491,154.78185 88.84427,154.63929 88.931049,154.49672 88.96824,154.32316 89.005431,154.1496 89.005431,153.88307 V 153.47087 H 89.284363 V 153.87377 Q 89.284363,154.1868 89.244073,154.39135 89.203783,154.5928 89.110805,154.76326 89.017828,154.93062 88.834972,155.15376 Z M 89.733754,153.47397 H 90.012687 V 155.09797 H 89.733754 Z"
         style="fill:#000000;stroke:none"
         id="path1774" /><path
         d="M 93.508635,154.29837 Q 93.508635,154.35106 93.505536,154.41614 93.502437,154.48122 93.499337,154.54011 93.49004,154.63619 93.49004,154.70747 93.480742,154.83764 93.437352,154.90892 93.397062,154.9802 93.304085,155.0081 93.211107,155.03909 93.046847,155.03909 H 92.231744 Q 92.073682,155.03909 91.980705,155.0019 91.887727,154.96781 91.844338,154.88103 91.800948,154.79425 91.800948,154.63619 V 153.59174 L 91.577802,153.66302 91.506519,153.39339 91.800948,153.29731 V 152.55039 H 92.076782 V 153.20743 L 92.4146,153.09586 V 152.28076 H 92.687334 V 153.00598 L 93.347474,152.78903 93.313382,153.92336 Q 93.304085,154.05353 93.269993,154.12171 93.239,154.18989 93.167718,154.22089 93.096435,154.24878 92.960068,154.24878 H 92.808205 L 92.752418,153.96985 H 92.854693 Q 92.941472,153.96985 92.978663,153.95745 93.015854,153.94505 93.028251,153.91406 93.043748,153.87997 93.046847,153.80249 93.053045,153.66302 93.062343,153.44298 93.071641,153.21983 93.068542,153.18264 L 92.687334,153.30661 V 154.51532 H 92.4146 V 153.39339 L 92.076782,153.50186 V 154.53081 Q 92.076782,154.63309 92.092278,154.68268 92.107774,154.73226 92.154263,154.75086 92.200752,154.76945 92.303027,154.76945 H 92.938373 Q 93.065442,154.76945 93.121229,154.75396 93.177015,154.73846 93.195611,154.69507 93.217306,154.65168 93.220405,154.55251 L 93.229703,154.23638 Z M 91.357755,154.36965 91.67078,154.27667 91.686276,154.39444 91.695574,154.54631 90.79989,154.81594 90.741005,154.55251 91.081922,154.45023 V 153.3562 H 90.787493 V 153.07416 H 91.081922 V 152.35514 H 91.357755 V 153.07416 H 91.608795 V 153.3562 H 91.357755 Z"
         style="fill:#000000;stroke:none"
         id="path1776" /></g><g
       aria-label="钟乳石"
       id="text1290-0"
       style="font-weight:500;font-size:3.09925px;font-family:MiSans;-inkscape-font-specification:'MiSans Medium';fill:none;stroke:#000000;stroke-width:36.6053"><path
         d="M 73.00306,140.53497 73.359473,140.32113 73.418359,140.59076 72.739623,140.97507 72.621852,140.72093 Q 72.683837,140.68064 72.705532,140.64655 72.727226,140.60936 72.727226,140.54737 V 139.98951 H 72.395607 V 139.71057 H 72.727226 V 139.36656 H 72.528874 V 139.27358 L 72.513378,139.29837 72.33982,139.05973 Q 72.473088,138.84278 72.550569,138.63823 72.63115,138.43058 72.708631,138.13925 L 72.981365,138.19194 Q 72.931777,138.39649 72.882189,138.53286 H 73.396664 V 138.7963 H 72.779914 Q 72.717929,138.93576 72.63115,139.10002 H 73.316084 V 139.36656 H 73.00306 V 139.71057 H 73.365672 V 139.98951 H 73.00306 Z M 74.40702,138.16095 V 138.70022 H 75.051664 V 140.08248 H 74.40702 V 140.98747 H 74.131187 V 140.08248 H 73.486543 V 138.70022 H 74.131187 V 138.16095 Z M 73.756177,138.96985 V 139.80355 H 74.131187 V 138.96985 Z M 74.40702,138.96985 V 139.80355 H 74.785128 V 138.96985 Z"
         style="fill:#000000;stroke:none"
         id="path1761" /><path
         d="M 78.22529,140.0298 Q 78.22529,140.13517 78.219092,140.29943 78.212893,140.46059 78.206695,140.56907 78.197397,140.77362 78.113717,140.848 78.033137,140.92548 77.837884,140.92548 H 77.574447 Q 77.3575,140.92548 77.27382,140.8356 77.19014,140.74882 77.19014,140.52568 V 138.18884 H 77.469073 V 140.48229 Q 77.469073,140.57836 77.500065,140.61246 77.534157,140.64345 77.630234,140.64345 H 77.775899 Q 77.85338,140.64345 77.887472,140.63105 77.924663,140.61556 77.93396,140.58146 77.946357,140.54737 77.949457,140.47299 77.952556,140.37691 77.955655,140.22815 77.958754,140.07939 77.958754,139.97401 Z M 75.516545,138.35 Q 75.900852,138.33451 76.297556,138.30042 76.69736,138.26322 76.988689,138.21054 L 77.028979,138.47397 Q 76.740749,138.52356 76.319251,138.56385 75.900852,138.60104 75.535141,138.61964 Z M 76.991788,138.68782 Q 76.889513,138.92646 76.73765,139.22089 L 76.520702,139.11862 Q 76.669466,138.84278 76.781039,138.59175 Z M 76.285159,138.60104 Q 76.32545,138.69712 76.381236,138.83349 76.437023,138.96675 76.458717,139.02874 L 76.238671,139.11242 Q 76.173586,138.94506 76.068212,138.69092 Z M 75.752088,139.1806 Q 75.603324,138.83659 75.556836,138.74671 L 75.773783,138.64753 Q 75.820272,138.74361 75.872959,138.86448 75.928746,138.98535 75.969036,139.07833 Z M 77.007285,139.96471 77.010384,140.10728 76.427725,140.18166 V 140.59696 Q 76.427725,140.77982 76.340946,140.8573 76.254167,140.93478 76.040319,140.93478 H 75.752088 L 75.699401,140.66204 H 75.962837 Q 76.071311,140.66204 76.108502,140.63415 76.145693,140.60316 76.145693,140.51328 V 140.21575 L 75.485553,140.29323 75.470057,140.0143 Q 75.671508,139.9988 76.145693,139.94302 V 139.79425 L 76.539298,139.49053 H 75.587828 V 139.23329 H 76.9453 V 139.48123 L 76.427725,139.90583 V 139.90893 L 77.004185,139.83145 Z"
         style="fill:#000000;stroke:none"
         id="path1763" /><path
         d="M 81.312137,138.65373 H 79.957765 Q 79.799703,139.00704 79.548664,139.35726 H 81.057999 V 140.98127 H 80.754272 V 140.77672 H 79.437091 V 140.98127 H 79.130265 V 139.84694 Q 78.925715,140.05459 78.683973,140.24674 L 78.566202,139.91822 Q 78.900921,139.67648 79.170555,139.34796 79.44019,139.01634 79.598252,138.65373 H 78.687072 V 138.3624 H 81.312137 Z M 79.437091,140.48849 H 80.754272 V 139.65169 H 79.437091 Z"
         style="fill:#000000;stroke:none"
         id="path1765" /></g><g
       aria-label="石柱"
       id="text1290-0-0"
       style="font-weight:500;font-size:3.09925px;font-family:MiSans;-inkscape-font-specification:'MiSans Medium';fill:none;stroke:#000000;stroke-width:36.6053"><path
         d="M 145.12087,156.3457 H 143.7665 Q 143.60844,156.69902 143.3574,157.04923 H 144.86674 V 158.67324 H 144.56301 V 158.46869 H 143.24583 V 158.67324 H 142.939 V 157.53891 Q 142.73445,157.74656 142.49271,157.93872 L 142.37494,157.61019 Q 142.70966,157.36845 142.97929,157.03993 143.24893,156.70831 143.40699,156.3457 H 142.49581 V 156.05437 H 145.12087 Z M 143.24583,158.18046 H 144.56301 V 157.34366 H 143.24583 Z"
         style="fill:#000000;stroke:none"
         id="path1784" /><path
         d="M 147.4887,157.56371 V 158.26104 H 148.23561 V 158.54617 H 146.38226 V 158.26104 H 147.18187 V 157.56371 H 146.57442 V 157.27238 H 147.18187 V 156.65253 H 146.53103 V 156.3643 H 147.27175 L 147.0641,155.9242 147.34613,155.80953 147.56928,156.27132 147.31824,156.3643 H 148.17673 V 156.65253 H 147.4887 V 157.27238 H 148.10235 V 157.56371 Z M 146.38846,157.54201 Q 146.26139,157.42114 146.14052,157.31267 V 158.68563 H 145.86159 V 157.36535 Q 145.71592,157.71557 145.55166,157.96971 L 145.45559,157.6071 Q 145.56716,157.42424 145.67563,157.1825 145.78721,156.93766 145.86159,156.69902 V 156.68972 H 145.51137 V 156.41079 H 145.86159 V 155.86222 H 146.14052 V 156.41079 H 146.46284 V 156.68972 H 146.14052 V 156.96555 Q 146.44425,157.21349 146.53723,157.29717 Z"
         style="fill:#000000;stroke:none"
         id="path1786" /></g><g
       aria-label="石笋"
       id="text1290-0-0-3"
       style="font-weight:500;font-size:3.09925px;font-family:MiSans;-inkscape-font-specification:'MiSans Medium';fill:none;stroke:#000000;stroke-width:36.6053"><path
         d="M 167.2292,168.22676 H 165.87482 Q 165.71676,168.58007 165.46572,168.93029 H 166.97506 V 170.5543 H 166.67133 V 170.34974 H 165.35415 V 170.5543 H 165.04732 V 169.41997 Q 164.84277,169.62762 164.60103,169.81977 L 164.48326,169.49125 Q 164.81798,169.24951 165.08761,168.92099 165.35725,168.58937 165.51531,168.22676 H 164.60413 V 167.93543 H 167.2292 Z M 165.35415,170.06151 H 166.67133 V 169.22472 H 165.35415 Z"
         style="fill:#000000;stroke:none"
         id="path1789" /><path
         d="M 168.8532,168.4778 Q 169.10734,168.12758 169.28709,167.69679 L 169.56602,167.75257 Q 169.52883,167.84865 169.46685,167.97572 H 170.33154 V 168.22366 H 169.82326 Q 169.92864,168.35383 169.97203,168.41271 L 169.75198,168.55838 Q 169.64351,168.39412 169.50714,168.22366 H 169.34288 Q 169.21891,168.44061 169.10734,168.60177 Z M 170.34084,169.13484 V 169.38588 H 170.02471 V 169.91895 H 168.72613 Q 168.64865,170.15139 168.46889,170.30945 168.29223,170.46752 167.94512,170.62558 L 167.75916,170.37764 Q 168.04119,170.25677 168.18686,170.15449 168.33562,170.05222 168.41,169.91895 H 167.74367 V 169.67101 H 168.48749 Q 168.50608,169.56563 168.51228,169.38588 H 167.6166 V 169.13484 H 168.51228 V 168.8714 H 167.81495 V 168.62966 L 167.78396,168.66685 167.57631,168.4809 Q 167.73127,168.31044 167.87073,168.09349 168.0133,167.87344 168.08458,167.69989 L 168.36661,167.75567 Q 168.32632,167.86105 168.26124,167.97572 H 169.00196 V 168.22366 H 168.53707 Q 168.65175,168.38792 168.68584,168.44371 L 168.4472,168.56148 Q 168.4255,168.52739 168.40381,168.49329 168.38211,168.4561 168.36352,168.42511 L 168.23645,168.22366 H 168.11558 Q 167.97611,168.43751 167.82115,168.62346 H 170.02471 V 169.13484 Z M 169.73958,168.8714 H 168.80361 V 169.13484 H 169.73958 Z M 169.73958,169.67101 V 169.38588 H 168.80361 Q 168.79741,169.55324 168.78191,169.67101 Z"
         style="fill:#000000;stroke:none"
         id="path1791" /></g><path
       style="fill:none;fill-opacity:1;stroke:#000000;stroke-width:0.573;stroke-dasharray:none;stroke-opacity:1;marker-start:url(#TriangleStart)"
       d="M 103.21872,172.38939 C 106.07723,170.1115 108.93576,167.83359 111.79429,165.55569"
       id="path1400"
       inkscape:path-effect="#path-effect1402"
       inkscape:original-d="M 103.21872,172.38939 C 106.07762,170.11198 108.93614,167.83407 111.79429,165.55569" /><g
       aria-label="缘石"
       id="text1406"
       style="font-weight:500;font-size:3.29037px;font-family:MiSans;-inkscape-font-specification:'MiSans Medium';fill:none;stroke:#000000;stroke-width:0.237062"><path
         d="M 113.0908,165.3439 113.02828,165.05764 Q 113.16647,164.87996 113.28822,164.63647 113.40996,164.3897 113.55145,164.05079 L 113.80481,164.15608 Q 113.4988,164.80757 113.35732,165.02803 L 113.67977,164.99183 Q 113.72584,164.90628 113.83113,164.68583 L 114.0812,164.81415 Q 113.95945,165.06093 113.77848,165.36365 113.6008,165.66307 113.46261,165.85391 L 113.90681,165.77823 113.91339,166.06778 113.15989,166.19611 113.0908,165.91643 Q 113.32112,165.63017 113.52183,165.2781 Z M 115.80864,166.90354 Q 115.63754,166.7127 115.52567,166.49553 115.4138,166.27837 115.32496,166.00198 115.25915,166.04804 115.21308,166.07107 115.25586,166.28495 115.25586,166.56792 115.25586,166.74889 115.21308,166.85418 115.1736,166.95618 115.07489,167.00225 114.97947,167.04831 114.80837,167.04831 H 114.52869 L 114.47604,166.79167 H 114.72611 Q 114.83469,166.79167 114.89063,166.76534 114.94656,166.73902 114.9696,166.67321 114.99263,166.60741 114.99263,166.48237 114.99263,166.38037 114.98934,166.33101 114.79192,166.50869 114.53856,166.67321 114.2852,166.83444 114.0121,166.96277 L 113.92655,166.73244 113.07763,166.87393 113.03486,166.56792 113.92655,166.41656 113.94629,166.69295 Q 114.20294,166.58437 114.46288,166.41656 114.72611,166.24875 114.94656,166.05462 114.92024,165.96907 114.90379,165.9263 114.4892,166.22572 114.045,166.40998 L 113.94958,166.18295 Q 114.16675,166.09082 114.39707,165.96907 114.63069,165.84404 114.80837,165.71901 114.78534,165.67294 114.73927,165.60384 114.36417,165.81443 114.07133,165.9263 L 113.98578,165.6861 Q 114.17333,165.62029 114.37404,165.53145 114.57475,165.43932 114.73269,165.3439 H 114.01868 V 165.11358 H 115.23941 L 115.2756,164.91615 H 114.19965 L 114.39707,164.07053 114.66359,164.09027 114.62082,164.26795 H 115.65728 L 115.5158,165.11358 H 115.93039 V 165.3439 H 115.15715 Q 115.04199,165.42287 114.94986,165.47881 115.06831,165.64662 115.13083,165.81114 115.28218,165.72559 115.44012,165.617 115.59806,165.50513 115.70993,165.413 L 115.86458,165.62687 Q 115.74942,165.7223 115.54541,165.86049 115.62767,166.12043 115.71651,166.29153 115.80864,166.45934 115.96329,166.62386 Z M 114.56488,164.49499 114.51553,164.6957 H 115.31838 L 115.35457,164.49499 Z"
         style="fill:#000000;stroke:none"
         id="path1779" /><path
         d="M 119.23391,164.60357 H 117.79602 Q 117.62821,164.97867 117.36169,165.35048 H 118.9641 V 167.07464 H 118.64164 V 166.85747 H 117.24324 V 167.07464 H 116.91749 V 165.87036 Q 116.70033,166.09082 116.44368,166.29482 L 116.31864,165.94604 Q 116.674,165.68939 116.96027,165.34061 117.24653,164.98854 117.41434,164.60357 H 116.44697 V 164.29427 H 119.23391 Z M 117.24324,166.55147 H 118.64164 V 165.66307 H 117.24324 Z"
         style="fill:#000000;stroke:none"
         id="path1781" /></g><g
       aria-label="溶洞"
       id="text1754"
       style="font-weight:500;font-size:6.0474px;font-family:MiSans;-inkscape-font-specification:'MiSans Medium';stroke-width:0.409271"><path
         d="M 105.47475,121.00275 H 102.82599 V 121.53493 H 102.28777 V 120.49477 H 103.848 L 103.69681,119.98679 104.3076,119.89003 104.45274,120.49477 H 106.01901 V 121.54097 H 105.47475 Z M 101.86445,121.27489 Q 101.40485,120.85762 100.94525,120.47058 L 101.29599,120.04122 101.64674,120.33149 Q 102.00354,120.62177 102.22729,120.81528 Z M 104.6644,121.19627 Q 104.97281,121.40188 105.3538,121.66192 105.73479,121.92196 106.04925,122.14571 L 105.76502,122.56903 Q 105.49894,122.36947 105.07562,122.07314 104.65835,121.77077 104.38622,121.5954 Z M 102.22125,122.15781 Q 102.572,121.97639 102.94693,121.72239 103.32187,121.4684 103.57586,121.2386 L 103.87823,121.61959 Q 103.59401,121.87963 103.22512,122.14571 102.85622,122.40575 102.48129,122.61136 Z M 101.74955,122.76859 Q 101.12667,122.182 100.73359,121.83125 L 101.09038,121.39584 Q 101.61651,121.84334 102.13054,122.30899 Z M 105.98878,123.94179 Q 105.67431,123.77851 105.57151,123.71199 V 125.47178 H 105.0091 V 125.23593 H 103.2493 V 125.47178 H 102.6869 V 123.71804 Q 102.48733,123.84503 102.26963,123.95389 L 102.05192,123.46405 Q 102.70504,123.13749 103.16464,122.77464 103.62424,122.40575 103.92661,121.95824 H 104.35598 Q 104.68254,122.43599 105.13005,122.79278 105.5836,123.14353 106.20044,123.42171 Z M 105.19052,123.46405 Q 104.5374,123.00444 104.13827,122.47832 103.74519,122.9863 103.07393,123.46405 Z M 101.45927,125.45364 100.90291,125.29641 101.51975,123.05887 102.03378,123.21006 Z M 103.2493,123.98412 V 124.72795 H 105.0091 V 123.98412 Z"
         id="path1756" /><path
         d="M 107.24058,120.01098 Q 107.87555,120.48268 108.21421,120.75481 L 107.88765,121.22651 Q 107.68204,121.04509 107.39176,120.81528 107.10753,120.58548 106.92611,120.45244 Z M 108.3412,120.22869 H 111.99383 V 124.65538 Q 111.99383,124.95775 111.92127,125.11499 111.8487,125.27222 111.67937,125.33269 111.51609,125.39921 111.21372,125.39921 H 110.56665 L 110.45175,124.861 H 111.0323 Q 111.28024,124.861 111.35886,124.78843 111.44352,124.70981 111.44352,124.4921 V 120.76691 H 108.89152 V 125.4355 H 108.3412 Z M 109.1697,121.81311 V 121.30512 H 111.17139 V 121.81311 Z M 107.0773,121.45026 108.08117,122.25457 107.72437,122.72626 Q 107.13172,122.182 106.74469,121.88567 Z M 109.35112,124.39535 V 122.39366 H 110.97787 V 124.39535 Z M 110.53036,122.88954 H 109.79258 V 123.89341 H 110.53036 Z M 106.89588,125.26617 Q 106.9624,125.0908 107.21034,124.20183 107.45828,123.30681 107.50062,123.1012 L 107.80903,123.15563 108.03883,123.2161 Q 107.92393,123.62128 107.70623,124.42558 107.49457,125.22989 107.45224,125.41131 Z"
         id="path1758" /></g></g></svg>
