<?xml version="1.0" encoding="UTF-8" standalone="no"?>
<!-- Created with Inkscape (http://www.inkscape.org/) -->

<svg
   width="148.27931mm"
   height="54.331661mm"
   viewBox="0 0 148.27931 54.331661"
   version="1.1"
   id="svg5"
   xml:space="preserve"
   inkscape:version="1.2.1 (9c6d41e, 2022-07-14)"
   sodipodi:docname="地形倒置.svg"
   xmlns:inkscape="http://www.inkscape.org/namespaces/inkscape"
   xmlns:sodipodi="http://sodipodi.sourceforge.net/DTD/sodipodi-0.dtd"
   xmlns="http://www.w3.org/2000/svg"
   xmlns:svg="http://www.w3.org/2000/svg"><sodipodi:namedview
     id="namedview7"
     pagecolor="#ffffff"
     bordercolor="#000000"
     borderopacity="0.25"
     inkscape:showpageshadow="2"
     inkscape:pageopacity="0.0"
     inkscape:pagecheckerboard="0"
     inkscape:deskcolor="#d1d1d1"
     inkscape:document-units="mm"
     showgrid="false"
     showborder="false"
     inkscape:zoom="0.96933942"
     inkscape:cx="303.29933"
     inkscape:cy="72.214127"
     inkscape:window-width="1440"
     inkscape:window-height="900"
     inkscape:window-x="0"
     inkscape:window-y="0"
     inkscape:window-maximized="0"
     inkscape:current-layer="layer1" /><defs
     id="defs2" /><g
     inkscape:label="Layer 1"
     inkscape:groupmode="layer"
     id="layer1"
     transform="translate(-27.389142,-121.2004)"><path
       style="fill:none;stroke:#150000;stroke-width:0.5;stroke-dasharray:none;stroke-dashoffset:0;stroke-opacity:1"
       d="M 27.488922,151.29241 C 27.488922,151.29241 45.05703,158.9397 57.871415,171.34072 57.871415,171.34072 61.240225,180.09244 71.685146,171.51661 82.130068,162.94078 81.568146,165.6388 83.191391,162.45994 84.814639,159.28108 100.23548,142.91334 105.78157,140.81665 111.32767,138.71996 120.39079,139.80212 124.11074,144.60422 124.11074,144.60422 129.92737,147.10673 136.08218,147.71545 142.23699,148.32416 145.82166,147.98599 148.45943,145.61875 151.09721,143.25152 158.67236,145.82166 160.16034,146.76855 161.64832,147.71545 164.55663,146.15983 167.53258,143.45443 170.50854,140.74901 174.22847,137.77306 175.51355,138.78759"
       id="path356" /><path
       style="fill:none;stroke:#150000;stroke-width:0.5;stroke-dasharray:1.5, 1.5;stroke-dashoffset:0;stroke-opacity:1"
       d="M 28.224567,151.18308 C 28.224567,151.18308 48.624503,127.98863 59.336796,127.70918 70.04909,127.42973 69.397038,125.47357 78.898379,134.32286 88.399717,143.17214 93.80244,150.62418 93.80244,150.62418"
       id="path1506" /><g
       aria-label="曾经的背斜"
       id="text1562"
       style="font-weight:500;font-size:3.82948px;font-family:MiSans;-inkscape-font-specification:'MiSans Medium';fill:none;stroke:#ff0808;stroke-width:0.22615;stroke-dasharray:0.678452, 0.678452"><path
         d="M 57.984966,121.67909 V 122.9926 H 54.93287 V 121.67909 H 55.725573 L 55.503463,121.35358 55.863434,121.23487 56.169792,121.67909 H 56.755703 Q 56.931859,121.44932 57.062061,121.23104 L 57.414373,121.35741 Q 57.356931,121.45315 57.261194,121.58718 L 57.199923,121.67909 Z M 56.288506,121.98162 H 55.292842 V 122.70922 H 56.288506 Z M 56.636989,122.70922 H 57.628824 V 121.98162 H 56.636989 Z M 55.706425,122.01225 56.100862,122.44881 55.859605,122.64412 55.537928,122.27649 55.468998,122.1999 Z M 56.809316,122.45647 Q 56.901223,122.36456 57.019937,122.23436 57.14248,122.10416 57.222899,122.01225 L 57.460327,122.18458 Q 57.395226,122.26883 57.272683,122.40669 57.150139,122.54455 57.058232,122.64029 Z M 55.560905,124.78479 H 55.212422 V 123.23386 H 57.713073 V 124.78479 H 57.36459 V 124.62013 H 55.560905 Z M 57.36459,123.79679 V 123.53255 H 55.560905 V 123.79679 Z M 55.560905,124.06485 V 124.33292 H 57.36459 V 124.06485 Z"
         style="fill:#000000;stroke:none;stroke-width:0.226151"
         id="path3421" /><path
         d="M 58.689583,122.759 58.616823,122.43732 Q 58.777661,122.23053 58.953817,121.90503 59.133803,121.57952 59.283152,121.24636 L 59.59334,121.37273 Q 59.455479,121.65994 59.3023,121.94715 59.14912,122.23436 59.034236,122.39903 L 59.428673,122.3569 Q 59.578022,122.10799 59.639294,121.98927 L 59.934164,122.15011 Q 59.780985,122.43732 59.566534,122.76283 59.355912,123.08834 59.14912,123.36406 L 59.74269,123.26449 59.750349,123.59766 58.758514,123.74701 58.685753,123.40618 Q 58.946158,123.10365 59.218051,122.69007 Z M 59.727372,122.76666 Q 60.144785,122.62497 60.562199,122.36456 60.983441,122.10033 61.209381,121.82461 H 59.976288 V 121.48378 H 61.680407 V 121.80546 Q 61.485103,122.06969 61.182574,122.3301 61.772314,122.64795 62.032719,122.80878 L 61.833586,123.11897 Q 61.377878,122.83176 60.895363,122.55987 60.428167,122.89686 59.911187,123.08451 Z M 61.795291,123.57085 H 61.06386 V 124.28313 H 61.994424 V 124.62396 H 59.761837 V 124.35206 L 58.624482,124.53971 58.578528,124.18357 59.773326,123.9806 59.788644,124.28313 H 60.69623 V 123.57085 H 59.949482 V 123.2262 H 61.795291 Z"
         style="fill:#000000;stroke:none;stroke-width:0.226151"
         id="path3423" /><path
         d="M 65.705183,121.8361 Q 65.693694,122.25734 65.666888,123.02706 65.643911,123.79679 65.628593,124.21037 65.620934,124.40185 65.559662,124.50907 65.50222,124.6163 65.375847,124.66225 65.253304,124.71203 65.038853,124.71203 H 64.54868 L 64.47592,124.34058 H 64.923969 Q 65.069489,124.34058 65.142249,124.3176 65.215009,124.29462 65.245645,124.22952 65.276281,124.16442 65.28011,124.03039 65.291599,123.70871 65.310746,123.1228 65.329894,122.53689 65.337553,122.20373 H 64.541021 Q 64.410819,122.4986 64.272957,122.72836 L 63.95511,122.52923 V 124.52056 H 62.92881 V 124.7465 H 62.572668 V 121.83227 H 62.982422 Q 63.070501,121.54123 63.127943,121.22721 L 63.503232,121.29231 Q 63.468766,121.46847 63.3692,121.83227 H 63.95511 V 122.51391 Q 64.131266,122.24585 64.276787,121.88205 64.426136,121.51442 64.498897,121.2004 L 64.862697,121.28465 Q 64.809084,121.51059 64.690371,121.8361 Z M 63.598969,122.98494 V 122.1999 H 62.92881 V 122.98494 Z M 64.751642,123.70488 Q 64.636758,123.5249 64.483579,123.31045 64.334229,123.09216 64.211686,122.93516 L 64.487408,122.72453 Q 64.743983,123.04238 65.06566,123.49426 Z M 62.92881,123.3564 V 124.15293 H 63.598969 V 123.3564 Z"
         style="fill:#000000;stroke:none;stroke-width:0.226151"
         id="path3425" /><path
         d="M 67.66204,122.62497 H 67.309727 V 122.40286 L 66.325551,122.60965 66.287256,122.28414 67.309727,122.08501 V 121.85141 H 66.360016 V 121.54123 H 67.309727 V 121.24636 H 67.66204 Z M 69.592097,121.93566 Q 69.592097,122.08118 69.580609,122.23819 69.569121,122.39903 69.523167,122.47945 69.477213,122.55987 69.373817,122.5905 69.274251,122.62114 69.082777,122.62114 H 68.554308 Q 68.389641,122.62114 68.297733,122.58667 68.209655,122.55221 68.17136,122.46796 68.133066,122.38371 68.133066,122.2267 V 121.24636 H 68.477719 V 121.68675 Q 68.718976,121.61399 68.98321,121.52208 69.247444,121.42634 69.408282,121.35741 L 69.511678,121.65611 Q 69.12873,121.80546 68.477719,121.9931 V 122.11182 Q 68.477719,122.22287 68.519843,122.265 68.565797,122.30712 68.69217,122.30712 H 69.002358 Q 69.147878,122.30712 69.197661,122.265 69.247444,122.22287 69.255103,122.11948 L 69.262762,121.8629 Z M 66.685522,124.78097 V 122.80495 H 69.216808 V 124.2525 Q 69.216808,124.45929 69.167025,124.56651 69.117242,124.67757 69.002358,124.72352 68.887473,124.76948 68.680681,124.76948 H 68.087112 L 68.02584,124.44014 H 68.596433 Q 68.741953,124.44014 68.791736,124.39036 68.845349,124.34058 68.845349,124.20271 V 124.13761 H 67.056982 V 124.78097 Z M 68.845349,123.34874 V 123.10365 H 67.056982 V 123.34874 Z M 67.056982,123.61297 V 123.86189 H 68.845349 V 123.61297 Z"
         style="fill:#000000;stroke:none;stroke-width:0.226151"
         id="path3427" /><path
         d="M 71.832336,123.34491 H 71.196642 V 124.36355 Q 71.196642,124.57417 71.104735,124.65459 71.016657,124.73501 70.794547,124.73501 H 70.488188 L 70.423087,124.41334 H 70.664344 Q 70.786888,124.41334 70.821353,124.37887 70.855818,124.34058 70.855818,124.22952 V 123.34491 H 70.139706 V 123.02706 H 70.855818 V 122.64412 H 70.396281 V 122.45647 Q 70.266079,122.59433 70.193318,122.66326 L 70.055457,122.28414 Q 70.285226,122.09267 70.499677,121.81695 70.714128,121.54123 70.84433,121.29231 H 71.185154 Q 71.36131,121.47229 71.58342,121.70972 71.805529,121.94715 71.943391,122.10033 L 71.732769,122.40286 Q 71.522148,122.12331 71.047292,121.59101 70.84433,121.94715 70.522654,122.31861 H 71.637032 V 122.64412 H 71.196642 V 123.02706 H 71.832336 Z M 73.459865,123.36406 73.486671,123.71254 73.111382,123.76232 V 124.77714 H 72.75907 V 123.80828 L 71.824677,123.93465 71.794041,123.58617 72.75907,123.45597 V 121.29231 H 73.111382 V 123.41001 Z M 72.410587,122.29563 Q 72.307191,122.18841 72.142524,122.03523 71.981686,121.88205 71.870631,121.78631 L 72.09274,121.5374 Q 72.456541,121.85524 72.636527,122.0314 Z M 72.004662,122.47945 Q 72.142524,122.59816 72.579084,122.9926 L 72.356975,123.25683 Q 72.157842,123.06153 71.786382,122.72453 Z M 71.537466,123.48277 Q 71.72511,123.81211 71.885949,124.14144 L 71.625544,124.29462 Q 71.468535,123.95763 71.280891,123.61297 Z M 70.664344,123.58234 Q 70.518824,124.05719 70.300544,124.47844 L 70.024821,124.35206 Q 70.231613,123.99209 70.380963,123.50192 Z"
         style="fill:#000000;stroke:none;stroke-width:0.226151"
         id="path3429" /></g><g
       aria-label="向斜"
       id="text1562-1"
       style="font-weight:500;font-size:3.82948px;font-family:MiSans;-inkscape-font-specification:'MiSans Medium';fill:none;stroke:#ff0808;stroke-width:0.22615;stroke-dasharray:0.678452, 0.678452"><path
         d="M 111.57964,134.14526 V 136.71484 Q 111.57964,136.88334 111.53369,136.97142 111.48773,137.06332 111.38051,137.09779 111.27328,137.13608 111.07798,137.13608 H 110.61461 L 110.54951,136.78377 H 110.97458 Q 111.08564,136.78377 111.13159,136.76845 111.18138,136.74931 111.19669,136.71101 111.21201,136.66889 111.21201,136.58081 V 134.49757 H 108.96028 V 137.13991 H 108.59648 V 134.14526 H 109.59597 Q 109.73383,133.82358 109.7951,133.63211 L 110.22018,133.68572 Q 110.18571,133.79678 110.04019,134.14526 Z M 109.37386,134.95711 H 110.81758 V 136.44678 H 109.37386 Z M 109.73,136.09446 H 110.46526 V 135.31325 H 109.73 Z"
         style="fill:#000000;stroke:none;stroke-width:0.226151"
         id="path3432" /><path
         d="M 113.99221,135.75747 H 113.35651 V 136.77611 Q 113.35651,136.98673 113.26461,137.06715 113.17653,137.14757 112.95442,137.14757 H 112.64806 L 112.58296,136.82589 H 112.82422 Q 112.94676,136.82589 112.98122,136.79143 113.01569,136.75313 113.01569,136.64208 V 135.75747 H 112.29958 V 135.43962 H 113.01569 V 135.05668 H 112.55615 V 134.86903 Q 112.42595,135.00689 112.35319,135.07582 L 112.21533,134.6967 Q 112.4451,134.50523 112.65955,134.22951 112.874,133.95378 113.0042,133.70487 H 113.34502 Q 113.52118,133.88485 113.74329,134.12228 113.9654,134.35971 114.10326,134.51289 L 113.89264,134.81542 Q 113.68202,134.53587 113.20716,134.00357 113.0042,134.35971 112.68252,134.73117 H 113.7969 V 135.05668 H 113.35651 V 135.43962 H 113.99221 Z M 115.61974,135.77662 115.64654,136.1251 115.27125,136.17488 V 137.1897 H 114.91894 V 136.22084 L 113.98455,136.34721 113.95391,135.99873 114.91894,135.86852 V 133.70487 H 115.27125 V 135.82257 Z M 114.57046,134.70819 Q 114.46706,134.60097 114.30239,134.44779 114.14156,134.29461 114.0305,134.19887 L 114.25261,133.94996 Q 114.61641,134.2678 114.7964,134.44396 Z M 114.16453,134.89201 Q 114.30239,135.01072 114.73896,135.40516 L 114.51685,135.66939 Q 114.31771,135.47409 113.94625,135.13709 Z M 113.69734,135.89533 Q 113.88498,136.22467 114.04582,136.554 L 113.78542,136.70718 Q 113.62841,136.37019 113.44076,136.02553 Z M 112.82422,135.9949 Q 112.6787,136.46975 112.46041,136.891 L 112.18469,136.76462 Q 112.39148,136.40465 112.54083,135.91448 Z"
         style="fill:#000000;stroke:none;stroke-width:0.226151"
         id="path3434" /></g></g></svg>
