<?xml version="1.0" encoding="UTF-8" standalone="no"?>
<!-- Created with Inkscape (http://www.inkscape.org/) -->

<svg
   width="195.09476mm"
   height="45.476749mm"
   viewBox="0 0 195.09476 45.476749"
   version="1.1"
   id="svg1900"
   xml:space="preserve"
   inkscape:version="1.2.1 (9c6d41e, 2022-07-14)"
   sodipodi:docname="断层种类.svg"
   xmlns:inkscape="http://www.inkscape.org/namespaces/inkscape"
   xmlns:sodipodi="http://sodipodi.sourceforge.net/DTD/sodipodi-0.dtd"
   xmlns="http://www.w3.org/2000/svg"
   xmlns:svg="http://www.w3.org/2000/svg"><sodipodi:namedview
     id="namedview1902"
     pagecolor="#ffffff"
     bordercolor="#000000"
     borderopacity="0.25"
     inkscape:showpageshadow="2"
     inkscape:pageopacity="0.0"
     inkscape:pagecheckerboard="0"
     inkscape:deskcolor="#d1d1d1"
     inkscape:document-units="mm"
     showgrid="false"
     inkscape:zoom="1.0104502"
     inkscape:cx="359.74063"
     inkscape:cy="124.69689"
     inkscape:window-width="1440"
     inkscape:window-height="900"
     inkscape:window-x="0"
     inkscape:window-y="0"
     inkscape:window-maximized="0"
     inkscape:current-layer="layer1"
     showborder="false" /><defs
     id="defs1897"><marker
       style="overflow:visible"
       id="Arrow1L"
       refX="0"
       refY="0"
       orient="auto-start-reverse"
       inkscape:stockid="Arrow1L"
       markerWidth="8.75"
       markerHeight="5"
       viewBox="0 0 8.75 5"
       inkscape:isstock="true"
       inkscape:collect="always"
       preserveAspectRatio="xMidYMid"><path
         style="fill:context-stroke;fill-rule:evenodd;stroke:none"
         d="M 0,0 5,-5 -12.5,0 5,5 Z"
         id="arrow1L"
         transform="scale(-0.5)" /></marker><marker
       style="overflow:visible"
       id="Arrow1L-9"
       refX="0"
       refY="0"
       orient="auto-start-reverse"
       inkscape:stockid="Arrow1L"
       markerWidth="8.75"
       markerHeight="5"
       viewBox="0 0 8.75 5"
       inkscape:isstock="true"
       inkscape:collect="always"
       preserveAspectRatio="xMidYMid"><path
         style="fill:context-stroke;fill-rule:evenodd;stroke:none"
         d="M 0,0 5,-5 -12.5,0 5,5 Z"
         id="arrow1L-1"
         transform="scale(-0.5)" /></marker><marker
       style="overflow:visible"
       id="Arrow1L-4"
       refX="0"
       refY="0"
       orient="auto-start-reverse"
       inkscape:stockid="Arrow1L"
       markerWidth="8.75"
       markerHeight="5"
       viewBox="0 0 8.75 5"
       inkscape:isstock="true"
       inkscape:collect="always"
       preserveAspectRatio="xMidYMid"><path
         style="fill:context-stroke;fill-rule:evenodd;stroke:none"
         d="M 0,0 5,-5 -12.5,0 5,5 Z"
         id="arrow1L-18"
         transform="scale(-0.5)" /></marker><marker
       style="overflow:visible"
       id="Arrow1L-4-3"
       refX="0"
       refY="0"
       orient="auto-start-reverse"
       inkscape:stockid="Arrow1L"
       markerWidth="8.75"
       markerHeight="5"
       viewBox="0 0 8.75 5"
       inkscape:isstock="true"
       inkscape:collect="always"
       preserveAspectRatio="xMidYMid"><path
         style="fill:context-stroke;fill-rule:evenodd;stroke:none"
         d="M 0,0 5,-5 -12.5,0 5,5 Z"
         id="arrow1L-18-5"
         transform="scale(-0.5)" /></marker><marker
       style="overflow:visible"
       id="Arrow1L-4-3-2"
       refX="0"
       refY="0"
       orient="auto-start-reverse"
       inkscape:stockid="Arrow1L"
       markerWidth="8.75"
       markerHeight="5"
       viewBox="0 0 8.75 5"
       inkscape:isstock="true"
       inkscape:collect="always"
       preserveAspectRatio="xMidYMid"><path
         style="fill:context-stroke;fill-rule:evenodd;stroke:none"
         d="M 0,0 5,-5 -12.5,0 5,5 Z"
         id="arrow1L-18-5-6"
         transform="scale(-0.5)" /></marker><marker
       style="overflow:visible"
       id="Arrow1L-4-3-2-7"
       refX="0"
       refY="0"
       orient="auto-start-reverse"
       inkscape:stockid="Arrow1L"
       markerWidth="8.75"
       markerHeight="5"
       viewBox="0 0 8.75 5"
       inkscape:isstock="true"
       inkscape:collect="always"
       preserveAspectRatio="xMidYMid"><path
         style="fill:context-stroke;fill-rule:evenodd;stroke:none"
         d="M 0,0 5,-5 -12.5,0 5,5 Z"
         id="arrow1L-18-5-6-8"
         transform="scale(-0.5)" /></marker></defs><g
     inkscape:label="Layer 1"
     inkscape:groupmode="layer"
     id="layer1"
     transform="translate(-6.8961471,-150.91783)"><g
       id="g3579"
       transform="translate(67.327794,3.3774841)"><path
         style="fill:none;fill-opacity:0.4;stroke:#150000;stroke-width:0.5;stroke-dasharray:none;stroke-dashoffset:0"
         d="M 9.5022394,174.97227 V 186.93199 L 33.421669,190.37245 27.782404,177.00724 Z"
         id="path2087"
         sodipodi:nodetypes="ccccc" /><path
         style="fill:none;fill-opacity:0.4;stroke:#150000;stroke-width:0.499999;stroke-dasharray:none;stroke-dashoffset:0"
         d="M 9.5108039,174.90088 25.315522,167.20832 35.049122,167.76752"
         id="path2747"
         sodipodi:nodetypes="ccc" /><path
         style="fill:none;fill-opacity:0.4;stroke:#150000;stroke-width:0.499999;stroke-dasharray:none;stroke-dashoffset:0"
         d="M 25.874981,172.80291 41.050307,164.3411 62.239818,166.57893 50.001654,175.60021 Z"
         id="path2749" /><path
         style="fill:none;fill-opacity:0.4;stroke:#150000;stroke-width:0.499999;stroke-dasharray:none;stroke-dashoffset:0"
         d="M 50.071586,175.60021 49.949325,188.35285 62.799279,178.04784 62.589481,166.43907"
         id="path2751"
         sodipodi:nodetypes="cccc" /><path
         style="fill:none;fill-opacity:0.4;stroke:#150000;stroke-width:0.499999;stroke-dasharray:none;stroke-dashoffset:0"
         d="M 49.791855,188.60763 31.959097,186.92926"
         id="path2753" /><path
         style="fill:none;fill-opacity:0.4;stroke:#150000;stroke-width:0.499999;stroke-dasharray:none;stroke-dashoffset:0"
         d="M 25.735116,172.94278 27.972954,177.34852"
         id="path2755" /><path
         style="fill:none;fill-opacity:0.4;stroke:#150000;stroke-width:0.499999;stroke-dasharray:none;stroke-dashoffset:0"
         d="M 33.567731,190.51748 37.236774,187.33688"
         id="path2757"
         sodipodi:nodetypes="cc" /></g><g
       id="g3587"
       transform="translate(-65.864981,2.877122)"><path
         style="fill:none;fill-opacity:0.4;stroke:#150000;stroke-width:0.499999;stroke-dasharray:none;stroke-dashoffset:0"
         d="M 73.775323,170.15771 90.149166,162.52899 107.17424,164.11055 91.730728,172.66961 Z"
         id="path2822" /><path
         style="fill:none;fill-opacity:0.4;stroke:#150000;stroke-width:0.499999;stroke-dasharray:none;stroke-dashoffset:0"
         d="M 73.214693,170.27902 73.014701,183.07206 97.352936,185.42737 91.714462,172.79432"
         id="path2824"
         sodipodi:nodetypes="cccc" /><path
         style="fill:none;fill-opacity:0.4;stroke:#150000;stroke-width:0.499999;stroke-dasharray:none;stroke-dashoffset:0"
         d="M 109.83581,168.54391 94.171838,176.99067 117.9084,179.64615 130.54144,170.58176 Z"
         id="path2826"
         sodipodi:nodetypes="ccccc" /><path
         style="fill:none;fill-opacity:0.4;stroke:#150000;stroke-width:0.499999;stroke-dasharray:none;stroke-dashoffset:0"
         d="M 109.84323,168.51194 107.6193,164.03733"
         id="path2828"
         sodipodi:nodetypes="cc" /><path
         style="fill:none;fill-opacity:0.4;stroke:#150000;stroke-width:0.499999;stroke-dasharray:none;stroke-dashoffset:0"
         d="M 130.96968,170.43901 V 182.35832 L 118.12252,192.99292 117.9084,179.64615"
         id="path2830" /><path
         style="fill:none;fill-opacity:0.4;stroke:#150000;stroke-width:0.499999;stroke-dasharray:none;stroke-dashoffset:0"
         d="M 118.19389,193.06429 99.565504,190.99447 97.281565,185.28462"
         id="path2832" /></g><g
       id="g3595"
       transform="translate(0,3.8676303)"><path
         style="fill:none;fill-opacity:0.4;stroke:#150000;stroke-width:0.499999;stroke-dasharray:none;stroke-dashoffset:0"
         d="M 141.98609,167.01832 141.8493,178.09815 154.70738,188.69924 154.5022,176.18312 Z"
         id="path2834" /><path
         style="fill:none;fill-opacity:0.4;stroke:#150000;stroke-width:0.499999;stroke-dasharray:none;stroke-dashoffset:0"
         d="M 141.8493,166.81313 163.25664,164.8297 178.50852,173.37896 154.43381,176.11473"
         id="path2836" /><path
         style="fill:none;fill-opacity:0.4;stroke:#150000;stroke-width:0.499999;stroke-dasharray:none;stroke-dashoffset:0"
         d="M 178.64531,173.31057 178.91888,185.34793 154.80127,188.88297"
         id="path2838"
         sodipodi:nodetypes="ccc" /><path
         style="fill:none;fill-opacity:0.4;stroke:#150000;stroke-width:0.499999;stroke-dasharray:none;stroke-dashoffset:0"
         d="M 168.18102,167.49708 185.27953,165.85562 201.13481,173.49431 183.02253,175.97794 178.64531,173.51575"
         id="path2840"
         sodipodi:nodetypes="ccccc" /><path
         style="fill:none;fill-opacity:0.4;stroke:#150000;stroke-width:0.499999;stroke-dasharray:none;stroke-dashoffset:0"
         d="M 178.91888,185.41632 183.09092,188.08369 201.48893,186.64741 201.69411,173.58415"
         id="path2842" /><path
         style="fill:none;fill-opacity:0.4;stroke:#150000;stroke-width:0.499999;stroke-dasharray:none;stroke-dashoffset:0"
         d="M 183.09092,176.04633 183.15932,188.08369"
         id="path2844" /></g><path
       style="fill:none;fill-opacity:0.4;stroke:#150000;stroke-width:0.3;stroke-dasharray:none;stroke-dashoffset:0;marker-end:url(#Arrow1L)"
       d="M 30.619516,181.80815 33.902905,189.52029"
       id="path3653" /><path
       style="fill:none;fill-opacity:0.4;stroke:#150000;stroke-width:0.3;stroke-dasharray:none;stroke-dashoffset:0;marker-end:url(#Arrow1L-4)"
       d="M 94.42374,182.54029 97.70713,190.25243"
       id="path3653-8" /><path
       style="fill:none;fill-opacity:0.4;stroke:#150000;stroke-width:0.3;stroke-dasharray:none;stroke-dashoffset:0;marker-end:url(#Arrow1L-4-3)"
       d="M 100.74704,189.2463 97.463653,181.53416"
       id="path3653-8-2" /><path
       style="fill:none;fill-opacity:0.4;stroke:#150000;stroke-width:0.3;stroke-dasharray:none;stroke-dashoffset:0;marker-end:url(#Arrow1L-4-3-2)"
       d="M 173.34803,176.35956 166.01252,172.30395"
       id="path3653-8-2-6" /><path
       style="fill:none;fill-opacity:0.4;stroke:#150000;stroke-width:0.3;stroke-dasharray:none;stroke-dashoffset:0;marker-end:url(#Arrow1L-4-3-2-7)"
       d="M 172.54569,172.21473 179.8812,176.27034"
       id="path3653-8-2-6-4" /><path
       style="fill:none;fill-opacity:0.4;stroke:#150000;stroke-width:0.3;stroke-dasharray:none;stroke-dashoffset:0;marker-end:url(#Arrow1L-9)"
       d="M 28.755485,186.80238 25.472095,179.09025"
       id="path3653-7" /><g
       aria-label="正断层"
       id="text6036"
       style="font-weight:500;font-size:5.37249px;font-family:MiSans;-inkscape-font-specification:'MiSans Medium';stroke-width:0.190364"><path
         d="M 34.381591,153.65243 V 155.11912 H 36.19212 V 155.64563 H 31.512681 V 155.11912 H 32.24334 V 152.53495 H 32.775216 V 155.11912 H 33.838969 V 151.87951 H 31.759816 V 151.34226 H 36.030945 V 151.87951 H 34.381591 V 153.12056 H 35.896633 V 153.65243 Z"
         id="path7338" /><path
         d="M 39.189959,155.19971 V 155.68323 H 37.035591 V 151.25093 H 37.513742 V 154.31325 Q 37.986522,153.87808 38.282008,153.22263 H 37.648055 V 152.74448 H 38.351851 V 151.08438 H 38.770905 V 152.74448 H 39.437094 V 153.22263 H 38.770905 V 153.49663 Q 39.281292,153.90494 39.528426,154.12521 L 39.292037,154.48517 Q 39.061019,154.25415 38.770905,154.00164 V 155.04391 H 38.351851 V 153.88882 Q 38.083226,154.40458 37.750132,154.76991 L 37.513742,154.32937 V 155.19971 Z M 41.645187,152.7606 V 153.26561 H 41.161663 V 155.89276 H 40.694256 V 153.26561 H 40.157007 Q 40.157007,153.94792 40.09791,154.40458 40.044185,154.86124 39.931363,155.20508 39.818541,155.54892 39.614386,155.93574 L 39.168469,155.72621 Q 39.377996,155.35014 39.480074,155.03316 39.587524,154.71081 39.630503,154.29176 39.678856,153.86733 39.678856,153.18503 V 151.50881 Q 40.538454,151.40136 41.387308,151.12199 L 41.532365,151.61626 Q 41.22076,151.72908 40.850059,151.82041 40.479357,151.91175 40.157007,151.95473 V 152.7606 Z M 39.587524,151.53567 Q 39.463956,151.8419 39.130862,152.53495 L 38.797767,152.38452 Q 38.894472,152.20186 39.028785,151.90637 39.168469,151.60551 39.259802,151.39599 Z M 37.986522,152.54033 Q 37.911307,152.35229 37.776994,152.06218 37.648055,151.76669 37.55135,151.56253 L 37.873699,151.40673 37.970404,151.61626 38.308871,152.37915 Z"
         id="path7340" /><path
         d="M 46.770533,152.66927 H 43.208572 V 153.11518 Q 43.208572,153.8351 43.160219,154.28639 43.117239,154.73768 42.9883,155.12449 42.864732,155.51131 42.606853,155.94649 L 42.193171,155.60265 Q 42.408071,155.24269 42.515521,154.93646 42.62297,154.62485 42.66595,154.18431 42.714303,153.73839 42.714303,152.97013 V 151.2563 H 46.770533 Z M 46.270891,152.25021 V 151.6861 H 43.208572 V 152.25021 Z M 46.630848,153.12593 V 153.55035 H 43.584646 V 153.12593 Z M 44.884789,154.46368 Q 44.562439,154.85587 44.127267,155.2803 L 45.857209,155.20508 Q 45.588585,154.89348 45.481135,154.77528 L 45.846464,154.49591 Q 46.57175,155.29104 46.87261,155.66712 L 46.523398,156.00558 46.201049,155.61339 43.498686,155.76919 43.396609,155.33402 Q 43.885505,154.93108 44.293815,154.46368 H 43.299904 V 154.03925 H 46.93708 V 154.46368 Z"
         id="path7342" /></g><g
       aria-label="逆断层"
       id="text6036-2"
       style="font-weight:500;font-size:5.37249px;font-family:MiSans;-inkscape-font-specification:'MiSans Medium';stroke-width:0.190364"><path
         d="M 100.60812,155.28567 100.50604,155.79606 H 98.206617 Q 97.615644,155.79606 97.255687,155.651 96.901102,155.50594 96.632478,155.17285 L 96.052249,155.84978 95.79437,155.32865 96.417578,154.6947 V 153.29785 H 95.858839 V 152.78209 H 96.91722 V 154.72693 Q 97.08914,155.0063 97.379254,155.14061 97.674741,155.27492 98.158265,155.28567 L 97.846661,154.96332 Q 98.195873,154.72156 98.346302,154.53352 98.502104,154.34548 98.561202,154.03388 H 97.470586 V 152.59405 H 97.932621 V 153.56647 H 98.604182 Q 98.609554,153.46439 98.609554,153.23875 V 152.25021 H 97.287922 V 151.77743 H 98.072305 Q 97.99709,151.63775 97.878896,151.46046 97.766073,151.27779 97.674741,151.14348 L 98.099168,150.91783 Q 98.099168,150.92321 98.25497,151.16497 98.496732,151.54104 98.561202,151.65387 L 98.324812,151.77743 H 99.071588 Q 99.37782,151.3154 99.57123,150.96081 L 100.02789,151.12736 Q 99.855972,151.43897 99.61421,151.77743 H 100.44695 V 152.25021 H 99.109196 V 153.30859 Q 99.109196,153.48588 99.103823,153.56647 H 99.780757 V 152.58868 H 100.24279 V 154.03388 H 99.071588 Q 99.012491,154.44219 98.829826,154.72693 98.647162,155.0063 98.260342,155.28567 Z M 96.65934,152.37378 Q 96.320874,151.84728 95.966289,151.33152 L 96.374598,151.05215 Q 96.573381,151.30465 97.083767,152.07292 Z"
         id="path7351" /><path
         d="M 103.56835,155.19971 V 155.68323 H 101.41398 V 151.25093 H 101.89214 V 154.31325 Q 102.36491,153.87808 102.6604,153.22263 H 102.02645 V 152.74448 H 102.73024 V 151.08438 H 103.1493 V 152.74448 H 103.81549 V 153.22263 H 103.1493 V 153.49663 Q 103.65968,153.90494 103.90682,154.12521 L 103.67043,154.48517 Q 103.43941,154.25415 103.1493,154.00164 V 155.04391 H 102.73024 V 153.88882 Q 102.46162,154.40458 102.12853,154.76991 L 101.89214,154.32937 V 155.19971 Z M 106.02358,152.7606 V 153.26561 H 105.54006 V 155.89276 H 105.07265 V 153.26561 H 104.5354 Q 104.5354,153.94792 104.4763,154.40458 104.42258,154.86124 104.30976,155.20508 104.19693,155.54892 103.99278,155.93574 L 103.54686,155.72621 Q 103.75639,155.35014 103.85847,155.03316 103.96592,154.71081 104.0089,154.29176 104.05725,153.86733 104.05725,153.18503 V 151.50881 Q 104.91685,151.40136 105.7657,151.12199 L 105.91076,151.61626 Q 105.59915,151.72908 105.22845,151.82041 104.85775,151.91175 104.5354,151.95473 V 152.7606 Z M 103.96592,151.53567 Q 103.84235,151.8419 103.50926,152.53495 L 103.17616,152.38452 Q 103.27287,152.20186 103.40718,151.90637 103.54686,151.60551 103.63819,151.39599 Z M 102.36491,152.54033 Q 102.2897,152.35229 102.15539,152.06218 102.02645,151.76669 101.92974,151.56253 L 102.25209,151.40673 102.3488,151.61626 102.68726,152.37915 Z"
         id="path7353" /><path
         d="M 111.14893,152.66927 H 107.58696 V 153.11518 Q 107.58696,153.8351 107.53861,154.28639 107.49563,154.73768 107.36669,155.12449 107.24313,155.51131 106.98525,155.94649 L 106.57156,155.60265 Q 106.78646,155.24269 106.89391,154.93646 107.00136,154.62485 107.04434,154.18431 107.0927,153.73839 107.0927,152.97013 V 151.2563 H 111.14893 Z M 110.64928,152.25021 V 151.6861 H 107.58696 V 152.25021 Z M 111.00924,153.12593 V 153.55035 H 107.96304 V 153.12593 Z M 109.26318,154.46368 Q 108.94083,154.85587 108.50566,155.2803 L 110.2356,155.20508 Q 109.96698,154.89348 109.85953,154.77528 L 110.22486,154.49591 Q 110.95014,155.29104 111.251,155.66712 L 110.90179,156.00558 110.57944,155.61339 107.87708,155.76919 107.775,155.33402 Q 108.2639,154.93108 108.67221,154.46368 H 107.6783 V 154.03925 H 111.31547 V 154.46368 Z"
         id="path7355" /></g><g
       aria-label="平移断层"
       id="text6036-2-8"
       style="font-weight:500;font-size:5.37249px;font-family:MiSans;-inkscape-font-specification:'MiSans Medium';stroke-width:0.190364"><path
         d="M 162.66732,153.7169 H 164.74647 V 154.22729 H 162.66732 V 155.89813 H 162.14081 V 154.22729 H 160.05629 V 153.7169 H 162.14081 V 151.7452 H 160.28193 V 151.23481 H 164.5262 V 151.7452 H 162.66732 Z M 163.09174,153.15279 Q 163.28515,152.94864 163.5484,152.59942 163.81703,152.25021 163.98358,152.00308 L 164.39189,152.29856 Q 164.20385,152.56182 163.92985,152.91103 163.66123,153.26024 163.47319,153.46439 Z M 160.79769,152.00845 Q 161.25435,152.56182 161.6949,153.15279 L 161.28659,153.46439 Q 161.09855,153.20114 160.84604,152.86805 160.59354,152.53495 160.41624,152.31468 Z"
         id="path7364" /><path
         d="M 170.09209,153.49126 V 153.94792 Q 169.81272,154.41533 169.44202,154.76991 169.07131,155.12449 168.49646,155.41998 167.92697,155.71547 167.08349,155.95723 L 166.87397,155.53818 Q 167.63149,155.33402 168.13113,155.103 168.63614,154.86661 168.96386,154.59262 169.29159,154.31325 169.57096,153.9318 H 168.40513 L 168.19023,154.15207 Q 168.36215,154.29176 168.37289,154.3025 L 168.69524,154.56038 168.37826,154.87736 Q 168.34066,154.83975 168.01293,154.55501 L 167.87862,154.43682 Q 167.57239,154.68932 167.25004,154.89885 L 166.98142,154.5174 Q 167.92697,153.95329 168.49646,153.13667 167.98607,153.41067 167.29302,153.62557 L 167.1211,153.1904 Q 167.91623,152.9755 168.48571,152.65852 169.0552,152.33617 169.43664,151.88488 H 168.16874 L 168.0398,152.0192 168.52332,152.39527 168.1956,152.7015 Q 168.14725,152.65852 167.81952,152.38452 L 167.72819,152.30931 Q 167.54553,152.46511 167.38972,152.57793 L 167.11036,152.22335 Q 167.87325,151.70759 168.32454,150.96081 L 168.75971,151.09513 Q 168.68987,151.21332 168.52869,151.44971 H 169.97926 V 151.89563 Q 169.71064,152.25021 169.39366,152.52958 169.07669,152.80895 168.67912,153.03997 L 168.99073,153.15816 Q 168.8779,153.34083 168.76508,153.49126 Z M 166.97067,154.22192 Q 166.69667,153.98553 166.55162,153.87808 V 155.91425 H 166.07884 V 153.9318 Q 165.79947,154.58187 165.49324,155.01167 L 165.34818,154.45831 Q 165.735,153.90494 166.06809,152.98624 H 165.41265 V 152.51884 H 166.07884 V 151.85802 Q 165.74037,151.91712 165.47175,151.94935 L 165.41802,151.49806 Q 165.83708,151.43897 166.31523,151.34763 166.79875,151.25093 167.13722,151.14885 L 167.23392,151.60551 Q 166.93844,151.69147 166.55162,151.77206 V 152.51884 H 167.15334 V 152.98624 H 166.55162 V 153.35695 Q 167.07812,153.72765 167.22318,153.84584 Z"
         id="path7366" /><path
         d="M 173.11679,155.19971 V 155.68323 H 170.96242 V 151.25093 H 171.44057 V 154.31325 Q 171.91335,153.87808 172.20884,153.22263 H 171.57488 V 152.74448 H 172.27868 V 151.08438 H 172.69773 V 152.74448 H 173.36392 V 153.22263 H 172.69773 V 153.49663 Q 173.20812,153.90494 173.45526,154.12521 L 173.21887,154.48517 Q 172.98785,154.25415 172.69773,154.00164 V 155.04391 H 172.27868 V 153.88882 Q 172.01006,154.40458 171.67696,154.76991 L 171.44057,154.32937 V 155.19971 Z M 175.57202,152.7606 V 153.26561 H 175.08849 V 155.89276 H 174.62109 V 153.26561 H 174.08384 Q 174.08384,153.94792 174.02474,154.40458 173.97101,154.86124 173.85819,155.20508 173.74537,155.54892 173.54122,155.93574 L 173.0953,155.72621 Q 173.30483,155.35014 173.4069,155.03316 173.51435,154.71081 173.55733,154.29176 173.60569,153.86733 173.60569,153.18503 V 151.50881 Q 174.46528,151.40136 175.31414,151.12199 L 175.45919,151.61626 Q 175.14759,151.72908 174.77689,151.82041 174.40619,151.91175 174.08384,151.95473 V 152.7606 Z M 173.51435,151.53567 Q 173.39079,151.8419 173.05769,152.53495 L 172.7246,152.38452 Q 172.8213,152.20186 172.95561,151.90637 173.0953,151.60551 173.18663,151.39599 Z M 171.91335,152.54033 Q 171.83814,152.35229 171.70382,152.06218 171.57488,151.76669 171.47818,151.56253 L 171.80053,151.40673 171.89723,151.61626 172.2357,152.37915 Z"
         id="path7368" /><path
         d="M 180.69736,152.66927 H 177.1354 V 153.11518 Q 177.1354,153.8351 177.08705,154.28639 177.04407,154.73768 176.91513,155.12449 176.79156,155.51131 176.53368,155.94649 L 176.12,155.60265 Q 176.3349,155.24269 176.44235,154.93646 176.5498,154.62485 176.59278,154.18431 176.64113,153.73839 176.64113,152.97013 V 151.2563 H 180.69736 Z M 180.19772,152.25021 V 151.6861 H 177.1354 V 152.25021 Z M 180.55768,153.12593 V 153.55035 H 177.51148 V 153.12593 Z M 178.81162,154.46368 Q 178.48927,154.85587 178.0541,155.2803 L 179.78404,155.20508 Q 179.51541,154.89348 179.40796,154.77528 L 179.77329,154.49591 Q 180.49858,155.29104 180.79944,155.66712 L 180.45023,156.00558 180.12788,155.61339 177.42552,155.76919 177.32344,155.33402 Q 177.81233,154.93108 178.22064,154.46368 H 177.22673 V 154.03925 H 180.86391 V 154.46368 Z"
         id="path7370" /></g></g></svg>
