<?xml version="1.0" encoding="UTF-8" standalone="no"?>
<!-- Created with Inkscape (http://www.inkscape.org/) -->

<svg
   width="233.77403mm"
   height="123.90686mm"
   viewBox="0 0 233.77403 123.90686"
   version="1.1"
   id="svg5"
   xml:space="preserve"
   sodipodi:docname="沙丘.svg"
   inkscape:version="1.2.1 (9c6d41e, 2022-07-14)"
   xmlns:inkscape="http://www.inkscape.org/namespaces/inkscape"
   xmlns:sodipodi="http://sodipodi.sourceforge.net/DTD/sodipodi-0.dtd"
   xmlns="http://www.w3.org/2000/svg"
   xmlns:svg="http://www.w3.org/2000/svg"><sodipodi:namedview
     id="namedview7"
     pagecolor="#ffffff"
     bordercolor="#000000"
     borderopacity="0.25"
     inkscape:showpageshadow="2"
     inkscape:pageopacity="0.0"
     inkscape:pagecheckerboard="false"
     inkscape:deskcolor="#d1d1d1"
     inkscape:document-units="mm"
     showgrid="false"
     inkscape:zoom="0.80193707"
     inkscape:cx="448.28954"
     inkscape:cy="263.11292"
     inkscape:window-width="1440"
     inkscape:window-height="900"
     inkscape:window-x="0"
     inkscape:window-y="0"
     inkscape:window-maximized="0"
     inkscape:current-layer="layer1"
     showborder="false" /><defs
     id="defs2"><marker
       style="overflow:visible"
       id="marker5228"
       refX="0"
       refY="0"
       orient="auto-start-reverse"
       inkscape:stockid="TriangleStart"
       markerWidth="5.3244081"
       markerHeight="6.155385"
       viewBox="0 0 5.3244081 6.1553851"
       inkscape:isstock="true"
       inkscape:collect="always"
       preserveAspectRatio="xMidYMid"><path
         transform="scale(0.5)"
         style="fill:context-stroke;fill-rule:evenodd;stroke:context-stroke;stroke-width:1pt"
         d="M 5.77,0 -2.88,5 V -5 Z"
         id="path5226" /></marker><marker
       style="overflow:visible"
       id="marker5182"
       refX="0"
       refY="0"
       orient="auto-start-reverse"
       inkscape:stockid="TriangleStart"
       markerWidth="5.3244081"
       markerHeight="6.155385"
       viewBox="0 0 5.3244081 6.1553851"
       inkscape:isstock="true"
       inkscape:collect="always"
       preserveAspectRatio="xMidYMid"><path
         transform="scale(0.5)"
         style="fill:context-stroke;fill-rule:evenodd;stroke:context-stroke;stroke-width:1pt"
         d="M 5.77,0 -2.88,5 V -5 Z"
         id="path5180" /></marker><marker
       style="overflow:visible"
       id="TriangleStart"
       refX="0"
       refY="0"
       orient="auto-start-reverse"
       inkscape:stockid="TriangleStart"
       markerWidth="5.3244081"
       markerHeight="6.155385"
       viewBox="0 0 5.3244081 6.1553851"
       inkscape:isstock="true"
       inkscape:collect="always"
       preserveAspectRatio="xMidYMid"><path
         transform="scale(0.5)"
         style="fill:context-stroke;fill-rule:evenodd;stroke:context-stroke;stroke-width:1pt"
         d="M 5.77,0 -2.88,5 V -5 Z"
         id="path135" /></marker></defs><g
     inkscape:label="Layer 1"
     inkscape:groupmode="layer"
     id="layer1"
     transform="translate(-8.5334723,-90.025602)"><path
       style="fill:none;stroke:#000000;stroke-width:1;stroke-dasharray:none;stroke-opacity:1"
       d="M 174.7162,213.08982 C 174.7162,213.08982 64.246725,221.81109 58.141832,151.16876 52.03694,80.526437 240.41648,81.107856 166.28564,105.23672 92.154802,129.36558 96.51544,175.00691 152.62231,197.97294 152.62231,197.97294 202.62429,207.85705 174.7162,213.08982 Z"
       id="path356" /><path
       style="fill:none;stroke:#000000;stroke-width:1;stroke-dasharray:none;stroke-opacity:1"
       d="M 170.85341,103.83121 C 170.85341,103.83121 89.150162,152.12975 170.21511,202.34321"
       id="path912" /><path
       style="fill:none;stroke:#000000;stroke-width:1;stroke-dasharray:none;stroke-opacity:1"
       d="M 155.58313,108.61786 158.14487,112.03351"
       id="path914" /><path
       style="fill:none;stroke:#000000;stroke-width:1;stroke-dasharray:none;stroke-opacity:1"
       d="M 150.45964,111.52116 152.8506,115.44917"
       id="path916" /><path
       style="fill:none;stroke:#000000;stroke-width:1;stroke-dasharray:none;stroke-opacity:1"
       d="M 145.50694,114.42447 149.60573,120.06031"
       id="path918" /><path
       style="fill:none;stroke:#000000;stroke-width:1;stroke-dasharray:none;stroke-opacity:1"
       d="M 138.67563,118.01091 145.84851,123.47596"
       id="path920" /><path
       style="fill:none;stroke:#000000;stroke-width:1;stroke-dasharray:none;stroke-opacity:1"
       d="M 133.72293,121.42657 143.11598,127.74553"
       id="path922" /><path
       style="fill:none;stroke:#000000;stroke-width:1;stroke-dasharray:none;stroke-opacity:1"
       d="M 126.37927,125.52535 139.0172,131.84432"
       id="path924" /><path
       style="fill:none;stroke:#000000;stroke-width:1;stroke-dasharray:none;stroke-opacity:1"
       d="M 121.59735,130.81962 136.11389,136.62624"
       id="path926" /><path
       style="fill:none;stroke:#000000;stroke-width:1;stroke-dasharray:none;stroke-opacity:1"
       d="M 116.64465,137.30937 134.40606,142.26207"
       id="path928" /><path
       style="fill:none;stroke:#000000;stroke-width:1;stroke-dasharray:none;stroke-opacity:1"
       d="M 113.22899,144.82381 132.35667,147.72712"
       id="path930" /><path
       style="fill:none;stroke:#000000;stroke-width:1;stroke-dasharray:none;stroke-opacity:1"
       d="M 112.71664,153.8753 131.50275,153.53373"
       id="path932" /><path
       style="fill:none;stroke:#000000;stroke-width:1;stroke-dasharray:none;stroke-opacity:1"
       d="M 113.91212,162.24365 132.69823,159.16956"
       id="path934" /><path
       style="fill:none;stroke:#000000;stroke-width:1;stroke-dasharray:none;stroke-opacity:1"
       d="M 116.30308,169.24575 134.23528,164.97618"
       id="path936" /><path
       style="fill:none;stroke:#000000;stroke-width:1;stroke-dasharray:none;stroke-opacity:1"
       d="M 121.93892,175.90628 137.13858,170.61201"
       id="path938" /><path
       style="fill:none;stroke:#000000;stroke-width:1;stroke-dasharray:none;stroke-opacity:1"
       d="M 127.23318,181.37133 139.70033,174.54002"
       id="path940" /><path
       style="fill:none;stroke:#000000;stroke-width:1;stroke-dasharray:none;stroke-opacity:1"
       d="M 131.67353,187.00716 141.9205,179.49272"
       id="path942" /><path
       style="fill:none;stroke:#000000;stroke-width:1;stroke-dasharray:none;stroke-opacity:1"
       d="M 137.82172,190.25203 145.50694,183.24994"
       id="path944" /><path
       style="fill:none;stroke:#000000;stroke-width:1;stroke-dasharray:none;stroke-opacity:1"
       d="M 144.14068,192.64299 149.77651,187.86108"
       id="path946" /><path
       style="fill:none;stroke:#000000;stroke-width:1;stroke-dasharray:none;stroke-opacity:1"
       d="M 150.11808,194.86317 153.53373,190.93517"
       id="path948" /><path
       style="fill:none;stroke:#000000;stroke-width:1;stroke-dasharray:none;stroke-opacity:1"
       d="M 155.41234,198.44961 158.48643,194.35082"
       id="path950" /><path
       style="fill:none;stroke:#000000;stroke-width:1;stroke-dasharray:none;stroke-opacity:1;marker-end:url(#TriangleStart)"
       d="M 25.230691,151.25069 84.692225,150.99221"
       id="path1720" /><g
       aria-label="风向"
       id="text4221"
       style="font-weight:500;font-size:7.36204px;font-family:MiSans;-inkscape-font-specification:'MiSans Medium';fill:none;stroke:#000000;stroke-width:0.869531"><path
         d="M 15.181394,152.25425 Q 15.05624,153.18187 14.967895,153.5058 14.783844,154.25672 14.349484,154.25672 14.143347,154.25672 13.966658,154.10212 13.789969,153.94752 13.694262,153.63095 13.583832,153.24812 13.517573,152.72542 13.458677,152.19535 13.458677,151.29718 V 148.55851 H 9.9175358 V 150.98062 Q 9.9175358,151.87142 9.7261228,152.68861 9.5347098,153.49843 9.0856253,154.32298 L 8.5334723,153.80764 Q 8.9604706,153.07144 9.1003494,152.44566 9.2402282,151.81989 9.2402282,150.93644 V 147.87384 H 14.135985 V 150.95117 Q 14.135985,151.73154 14.150709,152.15854 14.172795,152.57818 14.216967,152.85794 14.246415,153.08616 14.283226,153.19659 14.327398,153.30702 14.378932,153.30702 14.430466,153.30702 14.467277,153.21868 14.504087,153.13033 14.533535,152.93892 14.614517,152.42358 14.65869,152.04075 Z M 13.230454,149.27262 Q 12.766645,150.19288 12.111424,151.20884 12.56787,151.87142 13.385057,153.12297 L 12.803456,153.53524 11.69915,151.81253 Q 10.985032,152.82849 10.263552,153.60886 L 9.7776571,153.10825 Q 10.535947,152.32051 11.308961,151.2162 10.550671,150.06772 10.094225,149.41986 L 10.609568,149.02968 Q 11.021842,149.61128 11.706512,150.61251 12.273389,149.72171 12.648853,148.94869 Z"
         style="fill:#000000;stroke:none"
         id="path6142" /><path
         d="M 22.042802,148.44807 V 153.388 Q 22.042802,153.71193 21.954457,153.88126 21.866113,154.05795 21.659976,154.12421 21.453839,154.19783 21.078375,154.19783 H 20.187568 L 20.062413,153.52052 H 20.8796 Q 21.093099,153.52052 21.181443,153.49107 21.27715,153.45426 21.306598,153.38064 21.336046,153.29966 21.336046,153.13033 V 149.12538 H 17.007167 V 154.20519 H 16.307773 V 148.44807 H 18.229265 Q 18.494299,147.82966 18.612091,147.46156 L 19.429278,147.56463 Q 19.363019,147.77813 19.083262,148.44807 Z M 17.802267,150.00883 H 20.577756 V 152.87266 H 17.802267 Z M 18.486937,152.19535 H 19.900448 V 150.6935 H 18.486937 Z"
         style="fill:#000000;stroke:none"
         id="path6144" /></g><g
       aria-label="迎风坡（缓坡）"
       id="text4221-2"
       style="font-weight:500;font-size:7.36204px;font-family:MiSans;-inkscape-font-specification:'MiSans Medium';fill:none;stroke:#000000;stroke-width:0.869531"><path
         d="M 66.75856,139.73744 Q 66.861628,139.6491 66.883715,139.5902 66.913163,139.53131 66.913163,139.44296 V 135.8871 Q 67.259179,135.79875 67.664091,135.65151 68.069003,135.49691 68.392933,135.34231 L 68.650604,136.00489 Q 68.032193,136.3141 67.583108,136.43925 V 139.35462 L 68.444467,138.87609 68.518087,139.6491 66.986783,140.41475 Z M 65.484927,135.37912 Q 65.853029,135.85029 66.50825,136.74109 L 65.956097,137.21226 Q 65.786771,136.96195 65.477565,136.54232 65.175721,136.12268 64.940136,135.82084 Z M 68.731587,135.75458 H 70.999095 V 139.39879 Q 70.999095,139.84787 70.785596,140.02456 70.579459,140.20125 70.11565,140.20125 H 69.651842 L 69.519325,139.52394 H 69.865341 Q 70.07884,139.51658 70.167184,139.48713 70.262891,139.45032 70.292339,139.36198 70.329149,139.27364 70.329149,139.08222 V 136.43189 H 69.386808 V 140.95218 H 68.731587 Z M 64.689827,141.19513 65.536461,140.31905 V 138.427 H 64.778171 V 137.73497 H 66.221131 V 140.31168 Q 66.552423,140.80494 66.942611,140.98899 67.332799,141.17304 68.017469,141.17304 H 71.293577 L 71.168422,141.82826 H 67.9144 Q 67.406419,141.82826 67.067766,141.75464 66.729112,141.68102 66.456716,141.49697 66.184321,141.31292 65.911925,140.95954 L 65.02848,141.94606 Z"
         style="fill:#000000;stroke:none"
         id="path6147" /><path
         d="M 78.707137,139.95831 Q 78.581982,140.88592 78.493638,141.20985 78.309587,141.96078 77.875226,141.96078 77.669089,141.96078 77.4924,141.80618 77.315711,141.65157 77.220005,141.33501 77.109574,140.95218 77.043316,140.42948 76.98442,139.89941 76.98442,139.00124 V 136.26256 H 73.443278 V 138.68467 Q 73.443278,139.57548 73.251865,140.39267 73.060452,141.20249 72.611368,142.02704 L 72.059215,141.5117 Q 72.486213,140.77549 72.626092,140.14972 72.765971,139.52394 72.765971,138.6405 V 135.57789 H 77.661727 V 138.65522 Q 77.661727,139.4356 77.676451,139.8626 77.698538,140.28223 77.74271,140.56199 77.772158,140.79022 77.808968,140.90065 77.85314,141.01108 77.904675,141.01108 77.956209,141.01108 77.993019,140.92273 78.029829,140.83439 78.059277,140.64297 78.14026,140.12763 78.184432,139.74481 Z M 76.756196,136.97668 Q 76.292388,137.89693 75.637166,138.9129 76.093613,139.57548 76.910799,140.82703 L 76.329198,141.2393 75.224892,139.51658 Q 74.510774,140.53254 73.789294,141.31292 L 73.3034,140.8123 Q 74.06169,140.02456 74.834704,138.92026 74.076414,137.77178 73.619967,137.12392 L 74.13531,136.73373 Q 74.547584,137.31533 75.232254,138.31657 75.799131,137.42576 76.174595,136.65275 Z"
         style="fill:#000000;stroke:none"
         id="path6149" /><path
         d="M 85.671613,141.99023 Q 84.648289,141.48225 84.059326,140.9669 83.404105,141.52642 82.410229,142.04176 L 82.056851,141.43808 Q 82.99183,141.00371 83.595518,140.5031 82.984468,139.78898 82.601642,138.70676 H 82.513298 Q 82.498574,139.42088 82.417591,139.92149 82.336609,140.41475 82.130472,140.90801 81.931697,141.3939 81.534147,142.04176 L 80.930459,141.68102 Q 81.342734,141.07734 81.534147,140.60616 81.72556,140.12763 81.784456,139.57548 81.850714,139.02333 81.850714,138.0589 V 136.17422 H 83.588156 V 135.23188 H 84.258101 V 136.17422 H 85.885112 V 136.81471 L 85.590631,137.71288 84.972219,137.55092 85.200442,136.82944 H 84.258101 V 138.06626 H 85.531734 V 138.68467 Q 85.325597,139.23683 85.090012,139.67119 84.861789,140.10555 84.530497,140.49573 85.090012,140.93009 86.017629,141.31292 Z M 81.600405,140.27487 Q 81.217579,140.41475 80.577081,140.63561 79.943946,140.85647 79.539034,140.98899 L 79.391793,140.2896 Q 79.516948,140.26015 80.216341,140.03193 V 137.77178 H 79.494861 V 137.07975 H 80.216341 V 135.32758 H 80.871563 V 137.07975 H 81.585681 V 137.77178 H 80.871563 V 139.8037 Q 81.254389,139.67855 81.504698,139.58284 Z M 83.588156,138.06626 V 136.82944 H 82.52066 V 138.06626 Z M 83.293674,138.70676 Q 83.588156,139.52394 84.051964,140.05401 84.302274,139.75953 84.478963,139.4356 84.663014,139.11167 84.824978,138.70676 Z"
         style="fill:#000000;stroke:none"
         id="path6151" /><path
         d="M 92.194367,141.94606 Q 91.767368,141.23194 91.531783,140.34849 91.30356,139.46505 91.30356,138.63314 91.30356,137.79387 91.531783,136.91778 91.767368,136.03434 92.194367,135.32022 H 92.974743 Q 92.547745,136.06379 92.312159,136.94723 92.083936,137.82331 92.083936,138.63314 92.083936,139.4356 92.312159,140.31905 92.547745,141.20249 92.974743,141.94606 Z"
         style="fill:#000000;stroke:none"
         id="path6153" /><path
         d="M 94.31462,138.08098 94.189466,137.45521 Q 94.704809,136.74109 95.345306,135.20243 L 95.897459,135.45274 Q 95.544081,136.21103 95.32322,136.66011 95.109721,137.10183 94.918308,137.39632 L 95.617701,137.32269 95.971079,136.63803 96.508508,136.93987 Q 95.985804,138 95.124445,139.281 L 96.191941,139.08222 96.221389,139.74481 94.410327,140.03929 94.285172,139.38407 Q 94.800515,138.73621 95.264324,137.94847 Z M 100.56499,135.96808 Q 99.166205,136.13741 96.493784,136.27729 L 96.434888,135.70305 Q 97.391953,135.6736 98.540431,135.59262 99.696272,135.50427 100.46929,135.4012 Z M 100.52082,142.01968 Q 99.4386,141.72519 98.71712,141.26139 97.877848,141.76937 96.773542,142.04176 L 96.545319,141.43808 Q 97.546556,141.23194 98.223864,140.87856 97.782141,140.47365 97.450849,139.89205 97.009127,140.89328 96.147768,141.84299 L 95.728132,141.33501 95.845925,141.21721 94.292534,141.5117 94.182104,140.81966 96.236113,140.43684 96.258199,140.75341 Q 96.589491,140.31905 96.817714,139.84051 97.053299,139.36198 97.20054,138.78774 H 96.309733 V 138.25031 H 97.318333 L 97.384591,137.89693 97.406677,137.73497 H 96.530594 V 137.19754 H 97.104834 Q 96.972317,136.87361 96.773542,136.49078 L 97.259436,136.29937 Q 97.517108,136.75582 97.627538,137.04294 L 97.252074,137.19754 H 99.269273 Q 99.578479,136.61594 99.76253,136.17422 L 100.28523,136.35091 Q 100.18953,136.58649 99.961305,137.04294 99.902409,137.14601 99.880323,137.19754 H 100.55763 V 137.73497 H 98.025089 Q 97.99564,137.99264 97.936744,138.25031 H 100.71223 V 138.78774 H 97.818951 Q 97.760055,139.03069 97.686435,139.24419 H 100.21161 V 139.81106 Q 99.83615,140.40739 99.225101,140.90801 99.814064,141.20985 100.74904,141.38654 Z M 98.415277,137.19018 Q 98.223864,136.69692 98.091347,136.38772 L 98.599328,136.21839 Q 98.672948,136.38035 98.783379,136.63803 98.893809,136.88833 98.937982,137.02085 Z M 98.025089,139.79634 Q 98.334294,140.27487 98.71712,140.57672 99.188291,140.24542 99.504859,139.79634 Z"
         style="fill:#000000;stroke:none"
         id="path6155" /><path
         d="M 107.75769,141.99023 Q 106.73437,141.48225 106.1454,140.9669 105.49018,141.52642 104.49631,142.04176 L 104.14293,141.43808 Q 105.07791,141.00371 105.6816,140.5031 105.07055,139.78898 104.68772,138.70676 H 104.59938 Q 104.58465,139.42088 104.50367,139.92149 104.42269,140.41475 104.21655,140.90801 104.01778,141.3939 103.62023,142.04176 L 103.01654,141.68102 Q 103.42881,141.07734 103.62023,140.60616 103.81164,140.12763 103.87053,139.57548 103.93679,139.02333 103.93679,138.0589 V 136.17422 H 105.67423 V 135.23188 H 106.34418 V 136.17422 H 107.97119 V 136.81471 L 107.67671,137.71288 107.0583,137.55092 107.28652,136.82944 H 106.34418 V 138.06626 H 107.61781 V 138.68467 Q 107.41168,139.23683 107.17609,139.67119 106.94787,140.10555 106.61658,140.49573 107.17609,140.93009 108.10371,141.31292 Z M 103.68648,140.27487 Q 103.30366,140.41475 102.66316,140.63561 102.03002,140.85647 101.62511,140.98899 L 101.47787,140.2896 Q 101.60303,140.26015 102.30242,140.03193 V 137.77178 H 101.58094 V 137.07975 H 102.30242 V 135.32758 H 102.95764 V 137.07975 H 103.67176 V 137.77178 H 102.95764 V 139.8037 Q 103.34047,139.67855 103.59078,139.58284 Z M 105.67423,138.06626 V 136.82944 H 104.60674 V 138.06626 Z M 105.37975,138.70676 Q 105.67423,139.52394 106.13804,140.05401 106.38835,139.75953 106.56504,139.4356 106.74909,139.11167 106.91106,138.70676 Z"
         style="fill:#000000;stroke:none"
         id="path6157" /><path
         d="M 109.31843,141.94606 Q 109.74543,141.20249 109.97365,140.31905 110.20924,139.4356 110.20924,138.63314 110.20924,137.82331 109.97365,136.94723 109.74543,136.06379 109.31843,135.32022 H 110.09881 Q 110.5258,136.03434 110.75403,136.91778 110.98961,137.79387 110.98961,138.63314 110.98961,139.46505 110.75403,140.34849 110.5258,141.23194 110.09881,141.94606 Z"
         style="fill:#000000;stroke:none"
         id="path6159" /></g><g
       aria-label="背风坡（陡坡）"
       id="text4221-2-7"
       style="font-weight:500;font-size:7.36204px;font-family:MiSans;-inkscape-font-specification:'MiSans Medium';fill:none;stroke:#000000;stroke-width:0.869531"><path
         d="M 144.82633,153.29762 H 144.14902 V 152.87062 L 142.25698,153.26817 142.18336,152.64239 144.14902,152.25957 V 151.81048 H 142.32324 V 151.21416 H 144.14902 V 150.64728 H 144.82633 Z M 148.5368,151.97245 Q 148.5368,152.25221 148.51471,152.55405 148.49263,152.86326 148.40428,153.01786 148.31594,153.17246 148.11716,153.23136 147.92575,153.29025 147.55765,153.29025 H 146.54169 Q 146.22512,153.29025 146.04843,153.224 145.8791,153.15774 145.80548,152.99577 145.73186,152.83381 145.73186,152.53196 V 150.64728 H 146.39445 V 151.49392 Q 146.85825,151.35404 147.36623,151.17735 147.87422,150.9933 148.18342,150.86078 L 148.3822,151.43502 Q 147.64599,151.72214 146.39445,152.08288 V 152.3111 Q 146.39445,152.5246 146.47543,152.60558 146.56377,152.68657 146.80672,152.68657 H 147.40305 Q 147.6828,152.68657 147.77851,152.60558 147.87422,152.5246 147.88894,152.32583 L 147.90366,151.83257 Z M 142.94901,157.44244 V 153.64363 H 147.81532 V 156.42648 Q 147.81532,156.82403 147.71961,157.03017 147.62391,157.24367 147.40305,157.33201 147.18218,157.42036 146.78463,157.42036 H 145.64352 L 145.52572,156.78722 H 146.62267 Q 146.90243,156.78722 146.99813,156.69152 147.1012,156.59581 147.1012,156.33078 V 156.20562 H 143.66313 V 157.44244 Z M 147.1012,154.68904 V 154.21787 H 143.66313 V 154.68904 Z M 143.66313,155.19702 V 155.67555 H 147.1012 V 155.19702 Z"
         style="fill:#000000;stroke:none"
         id="path6162" /><path
         d="M 156.06815,155.38844 Q 155.943,156.31605 155.85465,156.63998 155.6706,157.39091 155.23624,157.39091 155.0301,157.39091 154.85342,157.23631 154.67673,157.0817 154.58102,156.76514 154.47059,156.38231 154.40433,155.85961 154.34543,155.32954 154.34543,154.43137 V 151.69269 H 150.80429 V 154.1148 Q 150.80429,155.00561 150.61288,155.8228 150.42147,156.63262 149.97238,157.45717 L 149.42023,156.94183 Q 149.84723,156.20562 149.98711,155.57985 150.12699,154.95407 150.12699,154.07063 V 151.00802 H 155.02274 V 154.08535 Q 155.02274,154.86573 155.03747,155.29273 155.05955,155.71236 155.10373,155.99212 155.13317,156.22035 155.16998,156.33078 155.21416,156.44121 155.26569,156.44121 155.31722,156.44121 155.35403,156.35286 155.39084,156.26452 155.42029,156.0731 155.50128,155.55776 155.54545,155.17494 Z M 154.11721,152.40681 Q 153.6534,153.32706 152.99818,154.34303 153.45463,155.00561 154.27181,156.25716 L 153.69021,156.66943 152.58591,154.94671 Q 151.87179,155.96267 151.15031,156.74305 L 150.66441,156.24243 Q 151.42271,155.45469 152.19572,154.35039 151.43743,153.20191 150.98098,152.55405 L 151.49633,152.16386 Q 151.9086,152.74546 152.59327,153.7467 153.16015,152.85589 153.53561,152.08288 Z"
         style="fill:#000000;stroke:none"
         id="path6164" /><path
         d="M 163.03263,157.42036 Q 162.0093,156.91238 161.42034,156.39703 160.76512,156.95655 159.77124,157.47189 L 159.41787,156.86821 Q 160.35285,156.43384 160.95653,155.93323 160.34548,155.21911 159.96266,154.13689 H 159.87431 Q 159.85959,154.85101 159.77861,155.35162 159.69762,155.84488 159.49149,156.33814 159.29271,156.82403 158.89516,157.47189 L 158.29147,157.11115 Q 158.70375,156.50747 158.89516,156.03629 159.08657,155.55776 159.14547,155.00561 159.21173,154.45346 159.21173,153.48903 V 151.60435 H 160.94917 V 150.66201 H 161.61912 V 151.60435 H 163.24613 V 152.24484 L 162.95165,153.14301 162.33323,152.98105 162.56146,152.25957 H 161.61912 V 153.49639 H 162.89275 V 154.1148 Q 162.68661,154.66696 162.45103,155.10132 162.2228,155.53568 161.89151,155.92586 162.45103,156.36022 163.37864,156.74305 Z M 158.96142,155.705 Q 158.57859,155.84488 157.9381,156.06574 157.30496,156.2866 156.90005,156.41912 L 156.75281,155.71973 Q 156.87796,155.69028 157.57736,155.46206 V 153.20191 H 156.85588 V 152.50988 H 157.57736 V 150.75771 H 158.23258 V 152.50988 H 158.9467 V 153.20191 H 158.23258 V 155.23383 Q 158.6154,155.10868 158.86571,155.01297 Z M 160.94917,153.49639 V 152.25957 H 159.88168 V 153.49639 Z M 160.65469,154.13689 Q 160.94917,154.95407 161.41298,155.48414 161.66329,155.18966 161.83998,154.86573 162.02403,154.5418 162.18599,154.13689 Z"
         style="fill:#000000;stroke:none"
         id="path6166" /><path
         d="M 169.55538,157.37619 Q 169.12838,156.66207 168.8928,155.77862 168.66458,154.89518 168.66458,154.06327 168.66458,153.224 168.8928,152.34791 169.12838,151.46447 169.55538,150.75035 H 170.33576 Q 169.90876,151.49392 169.67317,152.37736 169.44495,153.25344 169.44495,154.06327 169.44495,154.86573 169.67317,155.74918 169.90876,156.63262 170.33576,157.37619 Z"
         style="fill:#000000;stroke:none"
         id="path6168" /><path
         d="M 178.12478,156.559 178.01435,157.22895 H 176.50513 Q 175.84255,157.22895 175.41555,157.00072 174.98855,156.77986 174.7088,156.24979 174.46585,156.89765 173.99468,157.49398 L 173.47197,157.05226 Q 173.81063,156.63262 173.99468,156.2866 174.17873,155.94059 174.27444,155.50623 174.37014,155.06451 174.41431,154.37247 L 175.04009,154.42401 Q 175.00328,154.9688 174.92966,155.3958 175.04745,155.80807 175.24623,156.05838 175.45236,156.30869 175.75421,156.43384 V 153.84977 H 173.98732 V 153.18719 H 175.6585 V 152.28165 H 174.23763 V 151.60435 H 175.6585 V 150.69882 H 176.32845 V 151.60435 H 177.85975 V 152.28165 H 176.32845 V 153.18719 H 178.11006 V 153.84977 H 176.42415 V 154.79947 H 177.8892 V 155.44733 H 176.42415 V 156.559 H 176.52722 Z M 173.93578,155.07187 Q 173.93578,155.50623 173.84008,155.74918 173.74437,155.98476 173.53087,156.08047 173.31737,156.17617 172.93454,156.17617 H 172.70632 L 172.58853,155.47678 H 172.86829 Q 173.06706,155.46942 173.15541,155.42525 173.24375,155.38107 173.2732,155.27064 173.30265,155.16021 173.30265,154.91726 173.30265,154.6007 173.17013,154.25468 173.04498,153.90867 172.77258,153.49639 L 173.28792,151.76631 H 172.50755 V 157.47925 H 171.86705 V 151.089 H 173.92842 V 151.76631 L 173.4278,153.39332 Q 173.69283,153.86449 173.81063,154.26204 173.93578,154.65959 173.93578,155.07187 Z"
         style="fill:#000000;stroke:none"
         id="path6170" /><path
         d="M 185.11871,157.42036 Q 184.09538,156.91238 183.50642,156.39703 182.8512,156.95655 181.85732,157.47189 L 181.50395,156.86821 Q 182.43892,156.43384 183.04261,155.93323 182.43156,155.21911 182.04874,154.13689 H 181.96039 Q 181.94567,154.85101 181.86469,155.35162 181.7837,155.84488 181.57757,156.33814 181.37879,156.82403 180.98124,157.47189 L 180.37755,157.11115 Q 180.78983,156.50747 180.98124,156.03629 181.17265,155.55776 181.23155,155.00561 181.29781,154.45346 181.29781,153.48903 V 151.60435 H 183.03525 V 150.66201 H 183.7052 V 151.60435 H 185.33221 V 152.24484 L 185.03772,153.14301 184.41931,152.98105 184.64754,152.25957 H 183.7052 V 153.49639 H 184.97883 V 154.1148 Q 184.77269,154.66696 184.53711,155.10132 184.30888,155.53568 183.97759,155.92586 184.53711,156.36022 185.46472,156.74305 Z M 181.0475,155.705 Q 180.66467,155.84488 180.02418,156.06574 179.39104,156.2866 178.98613,156.41912 L 178.83889,155.71973 Q 178.96404,155.69028 179.66344,155.46206 V 153.20191 H 178.94196 V 152.50988 H 179.66344 V 150.75771 H 180.31866 V 152.50988 H 181.03277 V 153.20191 H 180.31866 V 155.23383 Q 180.70148,155.10868 180.95179,155.01297 Z M 183.03525,153.49639 V 152.25957 H 181.96775 V 153.49639 Z M 182.74077,154.13689 Q 183.03525,154.95407 183.49906,155.48414 183.74937,155.18966 183.92606,154.86573 184.11011,154.5418 184.27207,154.13689 Z"
         style="fill:#000000;stroke:none"
         id="path6172" /><path
         d="M 186.67945,157.37619 Q 187.10644,156.63262 187.33467,155.74918 187.57025,154.86573 187.57025,154.06327 187.57025,153.25344 187.33467,152.37736 187.10644,151.49392 186.67945,150.75035 H 187.45982 Q 187.88682,151.46447 188.11504,152.34791 188.35063,153.224 188.35063,154.06327 188.35063,154.89518 188.11504,155.77862 187.88682,156.66207 187.45982,157.37619 Z"
         style="fill:#000000;stroke:none"
         id="path6174" /></g><g
       aria-label="翼角"
       id="text5174"
       style="font-weight:500;font-size:8.46667px;font-family:MiSans;-inkscape-font-specification:'MiSans Medium'"><path
         d="M 229.72606,154.08062 227.14372,154.56322 227.08446,154.03829 228.57459,153.76736 227.62632,153.28476 227.91419,152.92916 H 227.15219 V 152.37882 H 230.47959 V 154.46162 H 229.72606 Z M 230.86059,154.46162 230.78439,153.93669 232.03746,153.71656 Q 231.38552,153.36096 231.14846,153.24242 L 231.38552,152.92916 H 230.80979 V 152.37882 H 234.02713 V 154.46162 H 233.28206 V 154.02136 Z M 228.08352,152.92916 229.06566,153.42022 228.85399,153.71656 229.72606,153.55569 V 152.92916 Z M 231.62259,152.92916 232.56239,153.42022 232.38459,153.65729 233.28206,153.49642 V 152.92916 Z M 234.47586,158.17003 V 158.66956 H 231.52946 Q 231.90199,158.75423 233.52759,159.16063 L 234.21339,159.33843 234.00173,159.91416 Q 232.54546,159.50776 231.27546,159.20296 L 231.49559,158.66956 H 229.96312 L 230.14092,159.19449 Q 229.64139,159.37229 228.83706,159.58396 228.04119,159.79563 227.40619,159.93109 L 227.24532,159.33843 Q 227.90572,159.21143 228.63386,159.02516 229.37046,158.83889 229.90386,158.66956 H 226.96592 V 158.17003 H 228.93866 V 157.67896 H 227.30459 V 157.19636 H 228.93866 V 156.78996 H 227.70252 V 154.63096 H 233.73926 V 156.78996 H 232.47772 V 157.19636 H 234.11179 V 157.67896 H 232.47772 V 158.17003 Z M 230.36106,155.49456 V 155.08816 H 228.45606 V 155.49456 Z M 231.08072,155.49456 H 232.98572 V 155.08816 H 231.08072 Z M 230.36106,155.91789 H 228.45606 V 156.32429 H 230.36106 Z M 231.08072,155.91789 V 156.32429 H 232.98572 V 155.91789 Z M 231.70726,156.78996 H 229.70912 V 157.19636 H 231.70726 Z M 231.70726,157.67896 H 229.70912 V 158.17003 H 231.70726 Z"
         id="path6177" /><path
         d="M 240.54644,154.23302 H 242.30751 V 158.77116 Q 242.30751,159.31303 242.09585,159.53316 241.89265,159.76176 241.37618,159.76176 H 240.35171 L 240.20778,158.99976 H 241.00365 Q 241.22378,158.99976 241.32538,158.97436 241.43545,158.94049 241.46931,158.85583 241.51165,158.76269 241.51165,158.56796 V 158.07689 H 239.69131 V 159.65169 H 238.89544 V 158.07689 H 236.97351 Q 236.88884,158.57643 236.70258,158.99976 236.51631,159.42309 236.16071,159.92263 L 235.44951,159.44849 Q 235.81358,158.98283 235.98291,158.60183 236.16071,158.22083 236.21151,157.77209 236.27078,157.32336 236.27078,156.54443 V 155.03736 Q 235.99138,155.26596 235.97444,155.28289 L 235.42411,154.64789 Q 236.10991,154.10602 236.73644,153.39482 237.36298,152.68362 237.76938,151.98089 L 238.57371,152.22642 Q 238.44671,152.46349 238.27738,152.72596 H 241.33385 V 153.37789 Z M 240.24164,153.42869 H 237.78631 Q 237.47304,153.84356 237.10898,154.23302 H 239.49658 Z M 237.06664,155.79936 H 238.89544 V 154.96116 H 237.06664 Z M 239.69131,155.79936 H 241.51165 V 154.96116 H 239.69131 Z M 238.89544,157.34029 V 156.51056 H 237.06664 V 156.75609 Q 237.06664,157.16249 237.04971,157.34029 Z M 239.69131,156.51056 V 157.34029 H 241.51165 V 156.51056 Z"
         id="path6179" /></g><path
       style="fill:none;fill-opacity:1;stroke:#000000;stroke-width:1;stroke-dasharray:none;stroke-opacity:1;marker-end:url(#marker5182)"
       d="M 226.85691,147.1214 C 224.44068,143.09436 187.39186,98.796855 187.39186,98.796855"
       id="path5176" /><path
       style="fill:none;fill-opacity:1;stroke:#000000;stroke-width:1;stroke-dasharray:none;stroke-opacity:1;marker-end:url(#marker5228)"
       d="M 228.00018,164.87669 188.40297,205.29133"
       id="path5178" /></g></svg>
