<?xml version="1.0" encoding="UTF-8" standalone="no"?>
<!-- Created with Inkscape (http://www.inkscape.org/) -->

<svg
   width="193.09299mm"
   height="83.045601mm"
   viewBox="0 0 193.09299 83.045601"
   version="1.1"
   id="svg5"
   xml:space="preserve"
   inkscape:version="1.2.1 (9c6d41e, 2022-07-14)"
   sodipodi:docname="海岸带.svg"
   xmlns:inkscape="http://www.inkscape.org/namespaces/inkscape"
   xmlns:sodipodi="http://sodipodi.sourceforge.net/DTD/sodipodi-0.dtd"
   xmlns="http://www.w3.org/2000/svg"
   xmlns:svg="http://www.w3.org/2000/svg"><sodipodi:namedview
     id="namedview7"
     pagecolor="#ffffff"
     bordercolor="#000000"
     borderopacity="0.25"
     inkscape:showpageshadow="2"
     inkscape:pageopacity="0.0"
     inkscape:pagecheckerboard="0"
     inkscape:deskcolor="#d1d1d1"
     inkscape:document-units="mm"
     showgrid="false"
     inkscape:zoom="1.056631"
     inkscape:cx="397.96296"
     inkscape:cy="94.640417"
     inkscape:window-width="1440"
     inkscape:window-height="900"
     inkscape:window-x="0"
     inkscape:window-y="0"
     inkscape:window-maximized="0"
     inkscape:current-layer="layer1"
     showborder="false" /><defs
     id="defs2"><marker
       style="overflow:visible"
       id="marker1405"
       refX="0"
       refY="0"
       orient="auto-start-reverse"
       inkscape:stockid="TriangleStart"
       markerWidth="5.3244081"
       markerHeight="6.155385"
       viewBox="0 0 5.3244081 6.1553851"
       inkscape:isstock="true"
       inkscape:collect="always"
       preserveAspectRatio="xMidYMid"><path
         transform="scale(0.5)"
         style="fill:context-stroke;fill-rule:evenodd;stroke:context-stroke;stroke-width:1pt"
         d="M 5.77,0 -2.88,5 V -5 Z"
         id="path1403" /></marker><marker
       style="overflow:visible"
       id="marker1145"
       refX="0"
       refY="0"
       orient="auto-start-reverse"
       inkscape:stockid="TriangleStart"
       markerWidth="5.3244081"
       markerHeight="6.155385"
       viewBox="0 0 5.3244081 6.1553851"
       inkscape:isstock="true"
       inkscape:collect="always"
       preserveAspectRatio="xMidYMid"><path
         transform="scale(0.5)"
         style="fill:context-stroke;fill-rule:evenodd;stroke:context-stroke;stroke-width:1pt"
         d="M 5.77,0 -2.88,5 V -5 Z"
         id="path1143" /></marker><marker
       style="overflow:visible"
       id="TriangleStart"
       refX="0"
       refY="0"
       orient="auto-start-reverse"
       inkscape:stockid="TriangleStart"
       markerWidth="5.3244081"
       markerHeight="6.155385"
       viewBox="0 0 5.3244081 6.1553851"
       inkscape:isstock="true"
       inkscape:collect="always"
       preserveAspectRatio="xMidYMid"><path
         transform="scale(0.5)"
         style="fill:context-stroke;fill-rule:evenodd;stroke:context-stroke;stroke-width:1pt"
         d="M 5.77,0 -2.88,5 V -5 Z"
         id="path135" /></marker><marker
       style="overflow:visible"
       id="TriangleStart-3"
       refX="0"
       refY="0"
       orient="auto-start-reverse"
       inkscape:stockid="TriangleStart"
       markerWidth="5.3244081"
       markerHeight="6.155385"
       viewBox="0 0 5.3244081 6.1553851"
       inkscape:isstock="true"
       inkscape:collect="always"
       preserveAspectRatio="xMidYMid"><path
         transform="scale(0.5)"
         style="fill:context-stroke;fill-rule:evenodd;stroke:context-stroke;stroke-width:1pt"
         d="M 5.77,0 -2.88,5 V -5 Z"
         id="path135-7" /></marker><marker
       style="overflow:visible"
       id="marker1145-1"
       refX="0"
       refY="0"
       orient="auto-start-reverse"
       inkscape:stockid="TriangleStart"
       markerWidth="5.3244081"
       markerHeight="6.155385"
       viewBox="0 0 5.3244081 6.1553851"
       inkscape:isstock="true"
       inkscape:collect="always"
       preserveAspectRatio="xMidYMid"><path
         transform="scale(0.5)"
         style="fill:context-stroke;fill-rule:evenodd;stroke:context-stroke;stroke-width:1pt"
         d="M 5.77,0 -2.88,5 V -5 Z"
         id="path1143-8" /></marker></defs><g
     inkscape:label="Layer 1"
     inkscape:groupmode="layer"
     id="layer1"
     transform="translate(-7.3587179,-99.81928)"><path
       style="fill:none;stroke:#000000;stroke-width:1;stroke-dasharray:none;stroke-opacity:1"
       d="M 10.082715,139.08976 C 10.082715,139.08976 19.537758,137.00551 27.738792,148.34223 35.939825,159.67896 61.507756,158.95534 61.507756,158.95534 61.507756,158.95534 90.211374,160.16137 94.5531,164.5031 98.894822,168.84482 150.27189,179.69913 152.44275,179.45792 154.61361,179.21672 189.82982,182.59361 200.20172,182.35241"
       id="path356" /><path
       style="fill:none;stroke:#000000;stroke-width:0.5;stroke-dasharray:none;stroke-opacity:1"
       d="M 93.829477,164.02068 200.20172,164.26189"
       id="path912" /><path
       style="fill:none;stroke:#000000;stroke-width:0.499999;stroke-dasharray:none;stroke-opacity:1"
       d="M 34.251378,153.16637 200.20172,152.92517"
       id="path914" /><path
       style="fill:none;stroke:#000000;stroke-width:0.499999;stroke-dasharray:1.5, 1.5;stroke-dashoffset:0;stroke-opacity:1"
       d="M 34.492586,124.22155 V 153.40758"
       id="path916" /><path
       style="fill:none;stroke:#000000;stroke-width:0.499999;stroke-dasharray:1.5, 1.5;stroke-dashoffset:0;stroke-opacity:1"
       d="M 89.97017,122.5331 90.452582,161.84982"
       id="path918" /><path
       style="fill:none;stroke:#000000;stroke-width:0.499999;stroke-dasharray:1.5, 1.5;stroke-dashoffset:0;stroke-opacity:1"
       d="M 200.20172,123.49793 199.7193,182.35241"
       id="path922" /><path
       style="fill:none;stroke:#000000;stroke-width:0.492533;stroke-dasharray:none;stroke-dashoffset:0;stroke-opacity:1;marker-start:url(#TriangleStart);marker-end:url(#marker1145)"
       d="M 91.998131,129.5281 H 198.02581"
       id="path924" /><path
       style="fill:none;stroke:#000000;stroke-width:0.606574;stroke-dasharray:none;stroke-dashoffset:0;stroke-opacity:1;marker-start:url(#TriangleStart-3);marker-end:url(#marker1145-1)"
       d="M 36.782849,108.4244 H 197.59415"
       id="path924-9" /><path
       style="fill:none;stroke:#000000;stroke-width:0.491134;stroke-dasharray:none;stroke-dashoffset:0;stroke-opacity:1;marker-start:url(#marker1405);marker-end:url(#TriangleStart)"
       d="M 36.678207,129.5281 H 88.344125"
       id="path1401" /><g
       aria-label="海岸线"
       id="text1601"
       style="font-weight:500;font-size:5.51052px;font-family:MiSans;-inkscape-font-specification:'MiSans Medium';fill:none;stroke:#000000;stroke-width:0.325424"><path
         d="M 31.417425,119.13928 H 30.893926 Q 30.882905,119.37072 30.882905,119.48094 L 30.866373,119.89973 H 31.329257 V 120.35711 H 30.849842 V 120.43426 Q 30.83331,120.70427 30.756163,120.84754 30.679016,120.99633 30.5137,121.05694 30.353895,121.11756 30.061837,121.11756 H 29.235259 L 29.13607,120.67672 H 29.902032 Q 30.144495,120.67672 30.243685,120.60508 30.348385,120.53344 30.364916,120.35711 H 27.896203 L 28.028456,119.13928 H 27.631698 V 118.68191 H 28.07805 L 28.17724,117.77267 Q 28.127645,117.8388 28.017435,117.96003 L 27.659251,117.59083 Q 27.962329,117.2602 28.221324,116.85793 28.485829,116.45566 28.662165,116.04237 L 29.163623,116.15809 28.970755,116.56036 H 31.290683 V 117.01773 H 28.71176 Q 28.568487,117.24917 28.430724,117.44204 H 30.954542 L 30.910458,118.68191 H 31.417425 Z M 27.526998,117.28224 Q 27.12473,116.94059 26.661847,116.5824 L 26.953904,116.19115 Q 27.212899,116.38402 27.824566,116.87997 Z M 27.383725,118.64885 Q 26.761036,118.09228 26.507552,117.90493 L 26.810631,117.50266 Q 27.466383,118.02616 27.686803,118.21352 Z M 28.662165,117.89391 28.568487,118.68191 H 29.687122 Q 29.306896,118.37332 29.053412,118.18596 L 29.279344,117.89391 Z M 30.442063,118.68191 30.469616,118.08126 30.480637,117.89391 H 29.373022 Q 29.819375,118.21352 30.001222,118.37332 L 29.758759,118.68191 Z M 26.562657,120.99082 Q 26.672868,120.62161 26.838183,120.04852 27.009009,119.47542 27.113709,119.10071 L 27.576593,119.24949 Q 27.460872,119.6187 27.058604,121.14511 Z M 28.513381,119.13928 28.425213,119.89973 H 29.576912 Q 29.373022,119.7234 28.970755,119.42583 L 29.202196,119.13928 Z M 30.386958,119.89973 30.420021,119.13928 H 29.295875 L 29.946117,119.62972 29.714675,119.89973 Z"
         style="fill:#000000;stroke:none"
         id="path16413" /><path
         d="M 36.02972,116.33994 H 36.55873 V 117.37041 H 32.580135 V 116.34545 H 33.120166 V 116.90752 H 34.299417 V 116.09748 H 34.839448 V 116.90752 H 36.02972 Z M 36.823235,117.76716 V 118.23005 H 33.026487 V 118.80865 Q 33.026487,119.58012 32.905255,120.11464 32.784024,120.64917 32.475435,121.17818 L 32.023572,120.86959 Q 32.227461,120.48385 32.326651,120.19179 32.431351,119.89973 32.464414,119.58012 32.502987,119.26051 32.502987,118.76457 V 117.76716 Z M 35.214163,119.7234 H 36.867319 V 120.19179 H 35.214163 V 121.17818 H 34.685153 V 120.19179 H 33.070571 V 119.7234 H 34.685153 V 119.14479 H 33.368139 V 118.6764 H 36.564241 V 119.14479 H 35.214163 Z"
         style="fill:#000000;stroke:none"
         id="path16415" /><path
         d="M 37.682866,118.23005 37.578166,117.7341 Q 37.787566,117.49164 38.063092,117.01222 38.344128,116.5273 38.548017,116.07543 L 38.977838,116.27932 Q 38.432296,117.38143 38.173302,117.71206 L 38.751907,117.65695 Q 38.972327,117.2602 39.049475,117.1059 L 39.479295,117.34285 Q 39.220301,117.83329 38.922733,118.30719 38.630675,118.77559 38.371681,119.0952 L 39.308469,118.95744 39.31949,119.44787 37.782055,119.66829 37.677355,119.16684 Q 38.024518,118.80314 38.465359,118.13086 Z M 41.523698,117.10039 Q 41.275725,116.83038 40.867946,116.4226 L 41.176535,116.13054 41.33083,116.27932 Q 41.744119,116.68159 41.85984,116.80833 Z M 41.793714,120.21383 Q 41.86535,119.93831 41.914945,119.58564 L 42.361297,119.80055 Q 42.267618,120.25241 42.207003,120.48936 42.107813,120.85305 41.942498,121.00735 41.782693,121.16715 41.556761,121.16715 41.341851,121.16715 41.160004,121.0349 40.978157,120.90265 40.763246,120.561 40.675078,120.4067 40.647525,120.34609 40.090963,120.70427 39.567463,120.92469 L 39.352553,120.44528 Q 39.95871,120.1973 40.471189,119.87218 40.338936,119.43134 40.239747,118.80314 L 39.435211,118.90233 39.391127,118.4174 40.173621,118.31822 Q 40.135047,117.98758 40.113005,117.76165 L 39.556442,117.82227 39.512358,117.35938 40.068921,117.29877 Q 40.041368,116.99569 40.024837,116.59893 40.008305,116.19667 40.008305,116.15258 L 40.526294,116.14156 40.531804,116.27932 40.58691,117.23815 42.212513,117.0508 42.267618,117.51368 40.625483,117.70104 40.675078,118.2576 42.339255,118.05371 42.377829,118.53313 40.741204,118.73701 Q 40.80182,119.19439 40.90652,119.5691 41.424509,119.16684 41.848819,118.66538 L 42.168429,119.00152 Q 41.655951,119.58564 41.066325,120.04301 41.126941,120.20832 41.198577,120.31302 41.369404,120.59406 41.556761,120.59406 41.64493,120.59406 41.689014,120.52242 41.738608,120.44528 41.793714,120.21383 Z M 37.605718,120.8255 37.528571,120.31853 39.31398,119.97688 39.352553,120.49487 Z"
         style="fill:#000000;stroke:none"
         id="path16417" /></g><g
       aria-label="水下岸坡"
       id="text1601-9"
       style="font-weight:500;font-size:5.51052px;font-family:MiSans;-inkscape-font-specification:'MiSans Medium';fill:none;stroke:#000000;stroke-width:0.325424"><path
         d="M 140.18114,124.30689 Q 140.76525,125.30429 141.74612,125.93249 L 141.421,126.49457 Q 140.72668,125.92147 140.28033,125.34838 139.83397,124.76977 139.54192,124.04789 V 126.24659 Q 139.54192,126.51661 139.47028,126.65988 139.39864,126.80315 139.23884,126.86377 139.07903,126.92439 138.78697,126.92439 H 138.09816 L 137.98795,126.37333 H 138.59411 Q 138.77044,126.37333 138.8531,126.34578 138.94127,126.31823 138.96882,126.24659 138.99637,126.16944 138.99637,126.01515 V 121.96492 H 139.54192 V 122.75292 Q 139.70723,123.34255 139.92765,123.82196 140.65504,123.19927 141.08486,122.69231 L 141.48713,123.11111 Q 140.81485,123.79441 140.18114,124.30689 Z M 138.60513,123.17172 V 123.70073 Q 138.45083,124.51078 138.08714,125.19408 137.72895,125.87188 137.05667,126.53314 L 136.79217,126.00413 Q 137.29362,125.53573 137.60772,124.97917 137.92733,124.42261 138.10918,123.71726 H 136.91891 V 123.17172 Z"
         style="fill:#000000;stroke:none"
         id="path16439" /><path
         d="M 142.35778,122.84109 V 122.3231 H 147.16847 V 122.84109 H 144.89262 V 126.97949 H 144.30851 V 122.84109 Z M 145.22876,123.58501 Q 145.6145,123.86054 146.14902,124.26832 146.68905,124.67058 146.93702,124.87998 L 146.60088,125.34287 Q 146.28678,125.07285 145.79084,124.68711 145.3004,124.29587 144.92568,124.02034 Z"
         style="fill:#000000;stroke:none"
         id="path16441" /><path
         d="M 151.83035,122.17983 H 152.35936 V 123.2103 H 148.38077 V 122.18534 H 148.9208 V 122.74741 H 150.10005 V 121.93737 H 150.64008 V 122.74741 H 151.83035 Z M 152.62387,123.60705 V 124.06994 H 148.82712 V 124.64854 Q 148.82712,125.42001 148.70589,125.95453 148.58466,126.48905 148.27607,127.01806 L 147.82421,126.70948 Q 148.0281,126.32374 148.12729,126.03168 148.23198,125.73962 148.26505,125.42001 148.30362,125.1004 148.30362,124.60446 V 123.60705 Z M 151.0148,125.56329 H 152.66795 V 126.03168 H 151.0148 V 127.01806 H 150.48579 V 126.03168 H 148.87121 V 125.56329 H 150.48579 V 124.98468 H 149.16877 V 124.51629 H 152.36487 V 124.98468 H 151.0148 Z"
         style="fill:#000000;stroke:none"
         id="path16443" /><path
         d="M 157.97457,126.985 Q 157.20861,126.60478 156.76777,126.21904 156.27733,126.63784 155.53341,127.02358 L 155.26891,126.57171 Q 155.96874,126.24659 156.42061,125.87188 155.96323,125.33736 155.67669,124.52731 H 155.61056 Q 155.59954,125.06183 155.53892,125.43655 155.47831,125.80575 155.32401,126.17496 155.17523,126.53865 154.87766,127.02358 L 154.4258,126.75356 Q 154.73439,126.3017 154.87766,125.94902 155.02094,125.59084 155.06502,125.17755 155.11461,124.76426 155.11461,124.04238 V 122.63169 H 156.4151 V 121.92634 H 156.91655 V 122.63169 H 158.13438 V 123.11111 L 157.91396,123.78339 157.45107,123.66216 157.6219,123.12213 H 156.91655 V 124.04789 H 157.86987 V 124.51078 Q 157.71558,124.92407 157.53924,125.24919 157.36842,125.57431 157.12044,125.86637 157.53924,126.19149 158.23357,126.47803 Z M 154.92726,125.70105 Q 154.64071,125.80575 154.16129,125.97107 153.68739,126.13638 153.38431,126.23557 L 153.2741,125.71207 Q 153.36778,125.69003 153.89128,125.5192 V 123.82747 H 153.35125 V 123.30948 H 153.89128 V 121.99798 H 154.38171 V 123.30948 H 154.91624 V 123.82747 H 154.38171 V 125.34838 Q 154.66826,125.2547 154.85562,125.18306 Z M 156.4151,124.04789 V 123.12213 H 155.61607 V 124.04789 Z M 156.19468,124.52731 Q 156.4151,125.13898 156.76226,125.53573 156.94962,125.31531 157.08187,125.07285 157.21963,124.83039 157.34086,124.52731 Z"
         style="fill:#000000;stroke:none"
         id="path16445" /></g><g
       aria-label="高潮水位 - 大潮"
       id="text1601-9-9"
       style="font-weight:500;font-size:5.51052px;font-family:MiSans;-inkscape-font-specification:'MiSans Medium';fill:none;stroke:#000000;stroke-width:0.325424"><path
         d="M 138.91645,145.90782 V 146.3211 H 134.04515 V 145.90782 H 136.23834 Q 136.16119,145.71495 136.062,145.51657 L 136.61857,145.40085 Q 136.69571,145.55514 136.85001,145.90782 Z M 134.81112,147.74282 V 146.65174 H 138.15049 V 147.74282 Z M 135.31257,147.37361 H 137.64352 V 147.02094 H 135.31257 Z M 134.32068,150.48155 V 148.08447 H 138.64093 V 149.83131 Q 138.64093,150.07377 138.58031,150.20602 138.5197,150.33827 138.37091,150.39338 138.22764,150.44848 137.96313,150.44848 H 137.35147 L 137.2633,150.00764 H 137.77578 Q 137.99069,150.00764 138.05681,149.94703 138.12294,149.88641 138.12294,149.69354 V 148.47572 H 134.83316 V 150.48155 Z M 135.3787,148.82288 H 137.58291 V 149.93049 H 135.3787 Z M 135.86914,149.5668 H 137.09247 V 149.18106 H 135.86914 Z"
         style="fill:#000000;stroke:none"
         id="path16448" /><path
         d="M 142.46522,149.23066 V 149.67701 H 141.76538 V 150.50359 H 141.31903 V 149.67701 H 140.50347 V 149.23066 H 141.31903 V 148.80635 H 140.70736 V 146.83358 H 141.33005 V 146.43131 H 140.65777 V 145.99598 H 141.33005 V 145.47248 H 141.75987 V 145.99598 H 142.48726 V 146.43131 H 141.75987 V 146.83358 H 142.38807 V 148.80635 H 141.76538 V 149.23066 Z M 140.31061,146.6848 Q 140.07916,146.44234 139.59424,146.01252 L 139.91385,145.64331 Q 140.20039,145.89128 140.61919,146.28804 Z M 142.70217,145.77556 H 144.22307 V 149.8258 Q 144.22307,150.16745 144.08531,150.2997 143.94755,150.43746 143.58385,150.43746 H 143.1871 L 143.08791,149.93049 H 143.49569 Q 143.66651,149.93049 143.71611,149.8809 143.77121,149.8258 143.77121,149.64946 V 148.86145 H 143.12648 Q 143.0824,149.37393 142.96668,149.73763 142.85647,150.10132 142.614,150.55318 L 142.20071,150.28868 Q 142.43767,149.89192 142.53686,149.60537 142.63604,149.31883 142.66911,148.92758 142.70217,148.53082 142.70217,147.73731 Z M 143.77121,147.07605 V 146.28253 H 143.15403 V 147.07605 Z M 140.29958,148.08998 Q 140.05161,147.8365 139.4675,147.313 L 139.77608,146.92726 Q 140.06263,147.14768 140.61368,147.66567 Z M 141.96376,147.61608 V 147.24136 H 141.12065 V 147.61608 Z M 143.77121,148.36 V 147.56648 H 143.15403 V 147.97977 Q 143.15403,148.23877 143.14852,148.36 Z M 141.96376,148.01283 H 141.12065 V 148.38204 H 141.96376 Z M 140.27203,148.44817 140.48143,148.50878 140.43735,148.69063 Q 140.08467,150.27766 140.0461,150.47053 L 139.57771,150.34378 Q 139.66587,149.96356 139.80364,149.36291 139.9414,148.75675 140.02406,148.38755 Z"
         style="fill:#000000;stroke:none"
         id="path16450" /><path
         d="M 148.42208,147.81997 Q 149.0062,148.81737 149.98707,149.44557 L 149.66195,150.00764 Q 148.96762,149.43455 148.52127,148.86145 148.07492,148.28285 147.78286,147.56097 V 149.75967 Q 147.78286,150.02968 147.71122,150.17296 147.63959,150.31623 147.47978,150.37685 147.31998,150.43746 147.02792,150.43746 H 146.3391 L 146.22889,149.88641 H 146.83505 Q 147.01139,149.88641 147.09404,149.85886 147.18221,149.83131 147.20977,149.75967 147.23732,149.68252 147.23732,149.52823 V 145.47799 H 147.78286 V 146.266 Q 147.94818,146.85562 148.1686,147.33504 148.89598,146.71235 149.32581,146.20538 L 149.72807,146.62418 Q 149.05579,147.30749 148.42208,147.81997 Z M 146.84607,146.6848 V 147.21381 Q 146.69178,148.02386 146.32808,148.70716 145.9699,149.38495 145.29762,150.04622 L 145.03311,149.51721 Q 145.53457,149.04881 145.84867,148.49225 146.16828,147.93569 146.35012,147.23034 H 145.15985 V 146.6848 Z"
         style="fill:#000000;stroke:none"
         id="path16452" /><path
         d="M 152.07554,146.34866 H 153.47522 Q 153.33194,145.81414 153.22173,145.51657 L 153.78381,145.43942 Q 153.96014,145.97394 154.05933,146.34866 H 155.3543 V 146.85562 H 152.07554 Z M 152.10861,145.57167 Q 151.89921,146.24947 151.67879,146.76195 V 150.48155 H 151.17182 V 147.75935 Q 150.94038,148.13958 150.68689,148.4647 L 150.48851,147.84201 Q 150.80812,147.41219 151.09467,146.78399 151.38122,146.15579 151.58511,145.45044 Z M 155.45349,149.79824 V 150.28868 H 151.96533 V 149.79824 H 153.70666 Q 153.88299,149.3023 154.12546,148.4647 154.36792,147.6271 154.48915,147.08707 L 155.00714,147.24687 Q 154.87489,147.74833 154.64896,148.49776 154.42303,149.24168 154.23016,149.79824 Z M 152.96825,149.43455 Q 152.86906,149.02677 152.67619,148.34347 152.48332,147.66016 152.36209,147.27442 L 152.85253,147.13115 Q 152.97927,147.51138 153.16112,148.16713 153.34296,148.82288 153.45868,149.29127 Z"
         style="fill:#000000;stroke:none"
         id="path16454" /><path
         d="M 157.95526,147.70424 H 159.71862 V 148.26632 H 157.95526 Z"
         style="fill:#000000;stroke:none"
         id="path16456" /><path
         d="M 164.93157,147.37912 Q 165.12444,148.23877 165.64793,148.86696 166.17143,149.48965 167.13578,149.99662 L 166.80514,150.50359 Q 165.24567,149.63293 164.70564,148.29938 164.19867,149.53925 162.57306,150.53114 L 162.23141,150.00764 Q 163.14616,149.51721 163.71925,148.84492 164.29235,148.16713 164.375,147.32953 H 162.35815 V 146.79501 H 164.39154 V 145.48351 H 164.9481 V 146.79501 H 167.00352 V 147.32953 H 164.93708 Q 164.93708,147.36259 164.93157,147.37912 Z"
         style="fill:#000000;stroke:none"
         id="path16458" /><path
         d="M 170.66801,149.23066 V 149.67701 H 169.96817 V 150.50359 H 169.52182 V 149.67701 H 168.70626 V 149.23066 H 169.52182 V 148.80635 H 168.91015 V 146.83358 H 169.53284 V 146.43131 H 168.86056 V 145.99598 H 169.53284 V 145.47248 H 169.96266 V 145.99598 H 170.69005 V 146.43131 H 169.96266 V 146.83358 H 170.59086 V 148.80635 H 169.96817 V 149.23066 Z M 168.51339,146.6848 Q 168.28195,146.44234 167.79703,146.01252 L 168.11664,145.64331 Q 168.40318,145.89128 168.82198,146.28804 Z M 170.90496,145.77556 H 172.42586 V 149.8258 Q 172.42586,150.16745 172.2881,150.2997 172.15034,150.43746 171.78664,150.43746 H 171.38989 L 171.2907,149.93049 H 171.69848 Q 171.8693,149.93049 171.9189,149.8809 171.974,149.8258 171.974,149.64946 V 148.86145 H 171.32927 Q 171.28519,149.37393 171.16947,149.73763 171.05925,150.10132 170.81679,150.55318 L 170.4035,150.28868 Q 170.64046,149.89192 170.73964,149.60537 170.83883,149.31883 170.8719,148.92758 170.90496,148.53082 170.90496,147.73731 Z M 171.974,147.07605 V 146.28253 H 171.35682 V 147.07605 Z M 168.50237,148.08998 Q 168.2544,147.8365 167.67028,147.313 L 167.97887,146.92726 Q 168.26542,147.14768 168.81647,147.66567 Z M 170.16655,147.61608 V 147.24136 H 169.32344 V 147.61608 Z M 171.974,148.36 V 147.56648 H 171.35682 V 147.97977 Q 171.35682,148.23877 171.35131,148.36 Z M 170.16655,148.01283 H 169.32344 V 148.38204 H 170.16655 Z M 168.47482,148.44817 168.68422,148.50878 168.64014,148.69063 Q 168.28746,150.27766 168.24889,150.47053 L 167.7805,150.34378 Q 167.86866,149.96356 168.00643,149.36291 168.14419,148.75675 168.22685,148.38755 Z"
         style="fill:#000000;stroke:none"
         id="path16460" /></g><g
       aria-label="低潮水位 - 小潮"
       id="text1601-9-9-1"
       style="font-weight:500;font-size:5.51052px;font-family:MiSans;-inkscape-font-specification:'MiSans Medium';fill:none;stroke:#000000;stroke-width:0.325424"><path
         d="M 135.56606,156.55553 Q 135.3787,157.18373 135.11971,157.77335 V 161.49846 H 134.62376 V 158.73769 Q 134.41436,159.09037 134.13332,159.46508 L 133.95699,158.8479 Q 134.24904,158.4291 134.56314,157.75131 134.87724,157.06801 135.05909,156.42328 Z M 138.9385,160.14288 Q 138.91645,160.29166 138.87237,160.5231 138.82829,160.75454 138.79522,160.87578 138.7291,161.16232 138.60235,161.28906 138.47561,161.42132 138.28825,161.42132 138.1009,161.42132 137.91905,161.21743 137.7372,161.01905 137.59393,160.60576 137.37351,159.9996 137.2633,158.9526 H 136.26589 V 160.49004 L 137.08696,159.93899 137.2137,160.45147 136.87756,160.67189 137.0043,160.84271 Q 137.05941,160.91986 137.16962,161.06313 137.27983,161.20641 137.33493,161.28906 L 136.93267,161.515 136.76735,161.28355 Q 136.59101,161.03007 136.50285,160.91435 L 135.86363,161.32764 135.59912,160.91986 Q 135.69831,160.83169 135.72586,160.77108 135.75342,160.71046 135.75342,160.60025 V 156.95229 Q 136.43121,156.91371 137.16962,156.82003 137.91354,156.72635 138.58031,156.58859 L 138.69603,157.10107 Q 138.3103,157.18373 137.66557,157.28292 137.67659,157.91112 137.71516,158.44564 H 138.86686 V 158.9526 H 137.75924 Q 137.86946,159.96103 138.07334,160.49004 138.12294,160.61678 138.18907,160.70495 138.25519,160.78761 138.29377,160.78761 138.34336,160.78761 138.37091,160.7325 138.40398,160.67189 138.43153,160.5231 138.45908,160.40187 138.48112,160.25309 138.50868,160.1043 138.5197,159.98858 Z M 136.26589,158.44564 H 137.21921 Q 137.19166,158.07092 137.1586,157.34904 136.66265,157.41517 136.26589,157.44823 Z"
         style="fill:#000000;stroke:none"
         id="path16463" /><path
         d="M 142.46522,160.22002 V 160.66638 H 141.76538 V 161.49295 H 141.31903 V 160.66638 H 140.50347 V 160.22002 H 141.31903 V 159.79571 H 140.70736 V 157.82295 H 141.33005 V 157.42068 H 140.65777 V 156.98535 H 141.33005 V 156.46185 H 141.75987 V 156.98535 H 142.48726 V 157.42068 H 141.75987 V 157.82295 H 142.38807 V 159.79571 H 141.76538 V 160.22002 Z M 140.31061,157.67416 Q 140.07916,157.4317 139.59424,157.00188 L 139.91385,156.63267 Q 140.20039,156.88065 140.61919,157.27741 Z M 142.70217,156.76493 H 144.22307 V 160.81516 Q 144.22307,161.15681 144.08531,161.28906 143.94755,161.42683 143.58385,161.42683 H 143.1871 L 143.08791,160.91986 H 143.49569 Q 143.66651,160.91986 143.71611,160.87026 143.77121,160.81516 143.77121,160.63882 V 159.85082 H 143.12648 Q 143.0824,160.3633 142.96668,160.72699 142.85647,161.09069 142.614,161.54255 L 142.20071,161.27804 Q 142.43767,160.88129 142.53686,160.59474 142.63604,160.30819 142.66911,159.91694 142.70217,159.52019 142.70217,158.72667 Z M 143.77121,158.06541 V 157.2719 H 143.15403 V 158.06541 Z M 140.29958,159.07935 Q 140.05161,158.82586 139.4675,158.30236 L 139.77608,157.91663 Q 140.06263,158.13705 140.61368,158.65504 Z M 141.96376,158.60544 V 158.23073 H 141.12065 V 158.60544 Z M 143.77121,159.34936 V 158.55585 H 143.15403 V 158.96914 Q 143.15403,159.22813 143.14852,159.34936 Z M 141.96376,159.0022 H 141.12065 V 159.3714 H 141.96376 Z M 140.27203,159.43753 140.48143,159.49815 140.43735,159.67999 Q 140.08467,161.26702 140.0461,161.45989 L 139.57771,161.33315 Q 139.66587,160.95292 139.80364,160.35228 139.9414,159.74612 140.02406,159.37691 Z"
         style="fill:#000000;stroke:none"
         id="path16465" /><path
         d="M 148.42208,158.80933 Q 149.0062,159.80673 149.98707,160.43493 L 149.66195,160.99701 Q 148.96762,160.42391 148.52127,159.85082 148.07492,159.27221 147.78286,158.55034 V 160.74903 Q 147.78286,161.01905 147.71122,161.16232 147.63959,161.3056 147.47978,161.36621 147.31998,161.42683 147.02792,161.42683 H 146.3391 L 146.22889,160.87578 H 146.83505 Q 147.01139,160.87578 147.09404,160.84822 147.18221,160.82067 147.20977,160.74903 147.23732,160.67189 147.23732,160.51759 V 156.46736 H 147.78286 V 157.25536 Q 147.94818,157.84499 148.1686,158.3244 148.89598,157.70172 149.32581,157.19475 L 149.72807,157.61355 Q 149.05579,158.29685 148.42208,158.80933 Z M 146.84607,157.67416 V 158.20317 Q 146.69178,159.01322 146.32808,159.69652 145.9699,160.37432 145.29762,161.03558 L 145.03311,160.50657 Q 145.53457,160.03818 145.84867,159.48161 146.16828,158.92505 146.35012,158.2197 H 145.15985 V 157.67416 Z"
         style="fill:#000000;stroke:none"
         id="path16467" /><path
         d="M 152.07554,157.33802 H 153.47522 Q 153.33194,156.8035 153.22173,156.50593 L 153.78381,156.42879 Q 153.96014,156.96331 154.05933,157.33802 H 155.3543 V 157.84499 H 152.07554 Z M 152.10861,156.56104 Q 151.89921,157.23883 151.67879,157.75131 V 161.47091 H 151.17182 V 158.74871 Q 150.94038,159.12894 150.68689,159.45406 L 150.48851,158.83137 Q 150.80812,158.40155 151.09467,157.77335 151.38122,157.14515 151.58511,156.43981 Z M 155.45349,160.78761 V 161.27804 H 151.96533 V 160.78761 H 153.70666 Q 153.88299,160.29166 154.12546,159.45406 154.36792,158.61646 154.48915,158.07643 L 155.00714,158.23624 Q 154.87489,158.73769 154.64896,159.48712 154.42303,160.23104 154.23016,160.78761 Z M 152.96825,160.42391 Q 152.86906,160.01613 152.67619,159.33283 152.48332,158.64953 152.36209,158.26379 L 152.85253,158.12052 Q 152.97927,158.50074 153.16112,159.15649 153.34296,159.81225 153.45868,160.28064 Z"
         style="fill:#000000;stroke:none"
         id="path16469" /><path
         d="M 157.95526,158.69361 H 159.71862 V 159.25568 H 157.95526 Z"
         style="fill:#000000;stroke:none"
         id="path16471" /><path
         d="M 164.02233,160.84822 Q 164.20418,160.84822 164.28684,160.81516 164.375,160.7821 164.40256,160.69944 164.43011,160.61678 164.43011,160.43493 V 156.52798 H 165.01422 V 160.60576 Q 165.01422,160.91986 164.93157,161.0962 164.84891,161.26702 164.66155,161.33315 164.4797,161.40479 164.14907,161.40479 H 163.46026 L 163.34454,160.84822 Z M 166.01714,157.47027 Q 166.24307,157.96071 166.60677,158.87546 166.97597,159.7902 167.17435,160.35779 L 166.61228,160.57821 Q 166.4139,159.97205 166.07776,159.10139 165.74712,158.22522 165.49915,157.66314 Z M 162.15978,160.31921 Q 162.46836,159.75163 162.72736,158.98016 162.98635,158.20317 163.12963,157.5364 L 163.6917,157.64661 Q 163.51536,158.39053 163.24535,159.17854 162.97533,159.96103 162.67225,160.56168 Z"
         style="fill:#000000;stroke:none"
         id="path16473" /><path
         d="M 170.66801,160.22002 V 160.66638 H 169.96817 V 161.49295 H 169.52182 V 160.66638 H 168.70626 V 160.22002 H 169.52182 V 159.79571 H 168.91015 V 157.82295 H 169.53284 V 157.42068 H 168.86056 V 156.98535 H 169.53284 V 156.46185 H 169.96266 V 156.98535 H 170.69005 V 157.42068 H 169.96266 V 157.82295 H 170.59086 V 159.79571 H 169.96817 V 160.22002 Z M 168.51339,157.67416 Q 168.28195,157.4317 167.79703,157.00188 L 168.11664,156.63267 Q 168.40318,156.88065 168.82198,157.27741 Z M 170.90496,156.76493 H 172.42586 V 160.81516 Q 172.42586,161.15681 172.2881,161.28906 172.15034,161.42683 171.78664,161.42683 H 171.38989 L 171.2907,160.91986 H 171.69848 Q 171.8693,160.91986 171.9189,160.87026 171.974,160.81516 171.974,160.63882 V 159.85082 H 171.32927 Q 171.28519,160.3633 171.16947,160.72699 171.05925,161.09069 170.81679,161.54255 L 170.4035,161.27804 Q 170.64046,160.88129 170.73964,160.59474 170.83883,160.30819 170.8719,159.91694 170.90496,159.52019 170.90496,158.72667 Z M 171.974,158.06541 V 157.2719 H 171.35682 V 158.06541 Z M 168.50237,159.07935 Q 168.2544,158.82586 167.67028,158.30236 L 167.97887,157.91663 Q 168.26542,158.13705 168.81647,158.65504 Z M 170.16655,158.60544 V 158.23073 H 169.32344 V 158.60544 Z M 171.974,159.34936 V 158.55585 H 171.35682 V 158.96914 Q 171.35682,159.22813 171.35131,159.34936 Z M 170.16655,159.0022 H 169.32344 V 159.3714 H 170.16655 Z M 168.47482,159.43753 168.68422,159.49815 168.64014,159.67999 Q 168.28746,161.26702 168.24889,161.45989 L 167.7805,161.33315 Q 167.86866,160.95292 168.00643,160.35228 168.14419,159.74612 168.22685,159.37691 Z"
         style="fill:#000000;stroke:none"
         id="path16475" /></g><g
       aria-label="潮间带"
       id="text1601-0"
       style="font-weight:500;font-size:5.51052px;font-family:MiSans;-inkscape-font-specification:'MiSans Medium';fill:none;stroke:#000000;stroke-width:0.325424"><path
         d="M 57.5743,125.7176 V 126.16396 H 56.874464 V 126.99054 H 56.428112 V 126.16396 H 55.612555 V 125.7176 H 56.428112 V 125.29329 H 55.816444 V 123.32053 H 56.439133 V 122.91826 H 55.766849 V 122.48293 H 56.439133 V 121.95943 H 56.868953 V 122.48293 H 57.596342 V 122.91826 H 56.868953 V 123.32053 H 57.497153 V 125.29329 H 56.874464 V 125.7176 Z M 55.419687,123.17174 Q 55.188245,122.92928 54.703319,122.49946 L 55.022929,122.13026 Q 55.309476,122.37823 55.728276,122.77499 Z M 57.811252,122.26251 H 59.332156 V 126.31274 Q 59.332156,126.65439 59.194393,126.78665 59.05663,126.92441 58.692935,126.92441 H 58.296178 L 58.196989,126.41744 H 58.604767 Q 58.775593,126.41744 58.825188,126.36785 58.880293,126.31274 58.880293,126.1364 V 125.3484 H 58.235562 Q 58.191478,125.86088 58.075757,126.22457 57.965547,126.58827 57.723084,127.04013 L 57.309795,126.77562 Q 57.546747,126.37887 57.645937,126.09232 57.745126,125.80577 57.778189,125.41453 57.811252,125.01777 57.811252,124.22425 Z M 58.880293,123.56299 V 122.76948 H 58.263115 V 123.56299 Z M 55.408665,124.57693 Q 55.160692,124.32344 54.576577,123.79994 L 54.885166,123.41421 Q 55.171713,123.63463 55.722765,124.15262 Z M 57.072843,124.10302 V 123.72831 H 56.229733 V 124.10302 Z M 58.880293,124.84694 V 124.05343 H 58.263115 V 124.46672 Q 58.263115,124.72571 58.257604,124.84694 Z M 57.072843,124.49978 H 56.229733 V 124.86898 H 57.072843 Z M 55.381113,124.93511 55.590513,124.99573 55.546428,125.17757 Q 55.193755,126.7646 55.155182,126.95747 L 54.686787,126.83073 Q 54.774956,126.4505 54.912719,125.84986 55.050482,125.2437 55.133139,124.8745 Z"
         style="fill:#000000;stroke:none"
         id="path16432" /><path
         d="M 60.858559,121.91535 Q 61.348996,122.39476 61.707179,122.76948 L 61.321443,123.16072 Q 61.172659,122.98439 60.919175,122.71437 60.665691,122.43885 60.494865,122.27353 Z M 61.855963,122.21291 H 64.809602 V 126.15845 Q 64.809602,126.48357 64.737965,126.64888 64.666329,126.81971 64.495502,126.88584 64.324676,126.95196 63.999556,126.95196 H 63.360335 L 63.261146,126.44499 H 63.845261 Q 64.038129,126.44499 64.126298,126.41193 64.219976,126.37887 64.25304,126.2907 64.286103,126.20253 64.286103,126.02068 V 122.7309 H 61.855963 Z M 60.924685,126.96849 H 60.406697 V 123.15521 H 60.924685 Z M 61.514311,123.32604 H 63.690967 V 126.07028 H 61.514311 Z M 63.19502,124.43916 V 123.79443 H 62.015768 V 124.43916 Z M 62.015768,124.91307 V 125.57984 H 63.19502 V 124.91307 Z"
         style="fill:#000000;stroke:none"
         id="path16434" /><path
         d="M 69.636807,121.98147 V 122.56008 H 70.529511 V 123.02296 H 69.636807 V 123.53544 H 69.14086 V 123.02296 H 68.352856 V 123.53544 H 67.86242 V 123.02296 H 67.074415 V 123.53544 H 66.578468 V 123.02296 H 65.696785 V 122.56008 H 66.578468 V 121.98147 H 67.074415 V 122.56008 H 67.86242 V 121.98147 H 68.352856 V 122.56008 H 69.14086 V 121.98147 Z M 66.352537,124.71469 H 65.840059 V 123.75035 H 70.386238 V 124.71469 H 69.873759 V 124.20772 H 66.352537 Z M 68.374898,124.37304 V 124.83592 H 69.939886 V 125.9766 Q 69.939886,126.23008 69.88478,126.36785 69.829675,126.5001 69.686402,126.5552 69.548639,126.61031 69.284134,126.61031 H 68.738592 L 68.633892,126.15294 H 69.091266 Q 69.284134,126.15294 69.355771,126.10334 69.427407,126.04824 69.432918,125.91598 V 125.29881 H 68.374898 V 127.00156 H 67.845888 V 125.29881 H 66.8044 V 126.62133 H 66.297432 V 124.83592 H 67.845888 V 124.37304 Z"
         style="fill:#000000;stroke:none"
         id="path16436" /></g><g
       aria-label="海岸带"
       id="text1601-0-3"
       style="font-weight:500;font-size:5.51052px;font-family:MiSans;-inkscape-font-specification:'MiSans Medium';fill:none;stroke:#000000;stroke-width:0.325424"><path
         d="M 113.29435,102.91619 H 112.77085 Q 112.75983,103.14763 112.75983,103.25784 L 112.7433,103.67664 H 113.20618 V 104.13402 H 112.72677 V 104.21116 Q 112.71023,104.48118 112.63309,104.62445 112.55594,104.77324 112.39062,104.83385 112.23082,104.89447 111.93876,104.89447 H 111.11218 L 111.01299,104.45363 H 111.77896 Q 112.02142,104.45363 112.12061,104.38199 112.22531,104.31035 112.24184,104.13402 H 109.77313 L 109.90538,102.91619 H 109.50862 V 102.45882 H 109.95497 L 110.05416,101.54958 Q 110.00457,101.61571 109.89436,101.73694 L 109.53618,101.36774 Q 109.83925,101.0371 110.09825,100.63484 110.36275,100.23257 110.53909,99.81928 L 111.04055,99.935 110.84768,100.33727 H 113.16761 V 100.79464 H 110.58868 Q 110.44541,101.02608 110.30765,101.21895 H 112.83147 L 112.78738,102.45882 H 113.29435 Z M 109.40392,101.05915 Q 109.00165,100.71749 108.53877,100.35931 L 108.83083,99.968064 Q 109.08982,100.16093 109.70149,100.65688 Z M 109.26065,102.42576 Q 108.63796,101.86919 108.38448,101.68184 L 108.68756,101.27957 Q 109.34331,101.80307 109.56373,101.99042 Z M 110.53909,101.67081 110.44541,102.45882 H 111.56405 Q 111.18382,102.15023 110.93034,101.96287 L 111.15627,101.67081 Z M 112.31899,102.45882 112.34654,101.85817 112.35756,101.67081 H 111.24995 Q 111.6963,101.99042 111.87815,102.15023 L 111.63568,102.45882 Z M 108.43958,104.76773 Q 108.54979,104.39852 108.71511,103.82543 108.88593,103.25233 108.99063,102.87762 L 109.45352,103.0264 Q 109.3378,103.39561 108.93553,104.92202 Z M 110.39031,102.91619 110.30214,103.67664 H 111.45384 Q 111.24995,103.50031 110.84768,103.20274 L 111.07912,102.91619 Z M 112.26388,103.67664 112.29695,102.91619 H 111.1728 L 111.82304,103.40663 111.5916,103.67664 Z"
         style="fill:#000000;stroke:none"
         id="path16420" /><path
         d="M 117.90664,100.11685 H 118.43565 V 101.14731 H 114.45706 V 100.12236 H 114.99709 V 100.68443 H 116.17634 V 99.874385 H 116.71637 V 100.68443 H 117.90664 Z M 118.70016,101.54407 V 102.00696 H 114.90341 V 102.58556 Q 114.90341,103.35703 114.78218,103.89155 114.66095,104.42607 114.35236,104.95508 L 113.9005,104.6465 Q 114.10439,104.26076 114.20358,103.9687 114.30828,103.67664 114.34134,103.35703 114.37991,103.03742 114.37991,102.54148 V 101.54407 Z M 117.09109,103.50031 H 118.74424 V 103.9687 H 117.09109 V 104.95508 H 116.56208 V 103.9687 H 114.9475 V 103.50031 H 116.56208 V 102.9217 H 115.24506 V 102.45331 H 118.44117 V 102.9217 H 117.09109 Z"
         style="fill:#000000;stroke:none"
         id="path16422" /><path
         d="M 123.38409,99.918469 V 100.49707 H 124.2768 V 100.95996 H 123.38409 V 101.47244 H 122.88814 V 100.95996 H 122.10014 V 101.47244 H 121.6097 V 100.95996 H 120.8217 V 101.47244 H 120.32575 V 100.95996 H 119.44407 V 100.49707 H 120.32575 V 99.918469 H 120.8217 V 100.49707 H 121.6097 V 99.918469 H 122.10014 V 100.49707 H 122.88814 V 99.918469 Z M 120.09982,102.65169 H 119.58734 V 101.68735 H 124.13352 V 102.65169 H 123.62104 V 102.14472 H 120.09982 Z M 122.12218,102.31003 V 102.77292 H 123.68717 V 103.9136 Q 123.68717,104.16708 123.63206,104.30484 123.57696,104.4371 123.43369,104.4922 123.29592,104.54731 123.03142,104.54731 H 122.48588 L 122.38118,104.08993 H 122.83855 Q 123.03142,104.08993 123.10305,104.04034 123.17469,103.98523 123.1802,103.85298 V 103.2358 H 122.12218 V 104.93855 H 121.59317 V 103.2358 H 120.55168 V 104.55833 H 120.04472 V 102.77292 H 121.59317 V 102.31003 Z"
         style="fill:#000000;stroke:none"
         id="path16424" /></g><g
       aria-label="海岸"
       id="text1601-0-2"
       style="font-weight:500;font-size:5.51052px;font-family:MiSans;-inkscape-font-specification:'MiSans Medium';fill:none;stroke:#000000;stroke-width:0.325424"><path
         d="M 12.268591,131.4621 H 11.745092 Q 11.734071,131.69354 11.734071,131.80375 L 11.717539,132.22255 H 12.180423 V 132.67992 H 11.701008 V 132.75707 Q 11.684476,133.02709 11.607329,133.17036 11.530181,133.31914 11.364866,133.37976 11.205061,133.44037 10.913003,133.44037 H 10.086425 L 9.9872359,132.99953 H 10.753198 Q 10.995661,132.99953 11.09485,132.9279 11.19955,132.85626 11.216082,132.67992 H 8.7473689 L 8.8796214,131.4621 H 8.4828639 V 131.00472 H 8.9292161 L 9.0284054,130.09549 Q 8.9788107,130.16162 8.8686003,130.28285 L 8.5104165,129.91364 Q 8.8134951,129.58301 9.0724896,129.18074 9.3369945,128.77847 9.5133312,128.36519 L 10.014788,128.48091 9.8219203,128.88317 H 12.141849 V 129.34055 H 9.5629259 Q 9.4196523,129.57199 9.2818893,129.76486 H 11.805707 L 11.761623,131.00472 H 12.268591 Z M 8.3781641,129.60505 Q 7.9758961,129.2634 7.5130124,128.90522 L 7.80507,128.51397 Q 8.0640644,128.70684 8.6757321,129.20278 Z M 8.2348905,130.97166 Q 7.6122018,130.4151 7.3587179,130.22774 L 7.6617965,129.82547 Q 8.3175483,130.34897 8.5379691,130.53633 Z M 9.5133312,130.21672 9.4196523,131.00472 H 10.538288 Q 10.158062,130.69614 9.9045781,130.50878 L 10.130509,130.21672 Z M 11.293229,131.00472 11.320782,130.40408 11.331803,130.21672 H 10.224188 Q 10.67054,130.53633 10.852388,130.69614 L 10.609925,131.00472 Z M 7.4138231,133.31363 Q 7.5240335,132.94443 7.6893491,132.37133 7.8601752,131.79824 7.9648751,131.42352 L 8.4277587,131.57231 Q 8.3120378,131.94151 7.9097699,133.46793 Z M 9.3645471,131.4621 9.2763788,132.22255 H 10.428077 Q 10.224188,132.04621 9.8219203,131.74864 L 10.053362,131.4621 Z M 11.238124,132.22255 11.271187,131.4621 H 10.147041 L 10.797282,131.95253 10.56584,132.22255 Z"
         style="fill:#000000;stroke:none"
         id="path16427" /><path
         d="M 16.880886,128.66275 H 17.409896 V 129.69322 H 13.4313 V 128.66826 H 13.971331 V 129.23034 H 15.150583 V 128.42029 H 15.690614 V 129.23034 H 16.880886 Z M 17.674401,130.08998 V 130.55286 H 13.877653 V 131.13147 Q 13.877653,131.90294 13.756421,132.43746 13.63519,132.97198 13.326601,133.50099 L 12.874738,133.1924 Q 13.078627,132.80666 13.177816,132.51461 13.282516,132.22255 13.315579,131.90294 13.354153,131.58333 13.354153,131.08738 V 130.08998 Z M 16.065329,132.04621 H 17.718485 V 132.51461 H 16.065329 V 133.50099 H 15.536319 V 132.51461 H 13.921737 V 132.04621 H 15.536319 V 131.46761 H 14.219305 V 130.99921 H 17.415406 V 131.46761 H 16.065329 Z"
         style="fill:#000000;stroke:none"
         id="path16429" /></g></g></svg>
